<?xml version="1.0" encoding="utf-8"?>
<!-- Generator: Adobe Illustrator 21.0.2, SVG Export Plug-In . SVG Version: 6.00 Build 0)  -->
<svg version="1.1" id="Layer_1" xmlns="http://www.w3.org/2000/svg" xmlns:xlink="http://www.w3.org/1999/xlink" x="0px" y="0px"
	 viewBox="0 0 215 38" style="enable-background:new 0 0 215 38;" xml:space="preserve">
<style type="text/css">
	.st0{fill:#FAA500;}
	.st1{enable-background:new    ;}
	.st2{fill:#4C484C;}
</style>
<title>Group</title>
<desc>Created with Sketch.</desc>
<g id="ISOframe-UI">
	<g id="_x37_.1-Case-study-index" transform="translate(-135.000000, -226.000000)">
		<g id="Group-2" transform="translate(135.000000, 219.000000)">
			<g id="element-_x2F_-finder-result">
				<g id="Group" transform="translate(0.000000, 7.000000)">
					<g id="Rectangle">
						<path class="st0" d="M0,0h196c10.5,0,19,8.5,19,19l0,0c0,10.5-8.5,19-19,19H0V0z"/>
					</g>
					<g class="st1">
						<path class="st2" d="M15.5,15v2.3h4.4v2.3h-4.4V24h-2.7V12.7h7.5V15H15.5z"/>
						<path class="st2" d="M29,20.1c0,0.1,0,0.2,0,0.3c0,0.1,0,0.2,0,0.3h-5.8c0,0.2,0.1,0.4,0.2,0.6c0.1,0.2,0.3,0.3,0.4,0.5
							c0.2,0.1,0.4,0.2,0.6,0.3c0.2,0.1,0.4,0.1,0.7,0.1c0.4,0,0.8-0.1,1.1-0.2c0.3-0.2,0.5-0.4,0.7-0.6l1.8,1.2
							c-0.4,0.5-0.9,1-1.5,1.3c-0.6,0.3-1.3,0.4-2.1,0.4c-0.6,0-1.2-0.1-1.7-0.3c-0.5-0.2-1-0.5-1.4-0.8s-0.7-0.8-0.9-1.3
							s-0.3-1.1-0.3-1.8c0-0.7,0.1-1.2,0.3-1.8c0.2-0.5,0.5-1,0.9-1.3c0.4-0.4,0.8-0.7,1.4-0.9c0.5-0.2,1.1-0.3,1.7-0.3
							c0.6,0,1.1,0.1,1.6,0.3s0.9,0.5,1.3,0.9c0.4,0.4,0.6,0.8,0.8,1.4S29,19.4,29,20.1z M26.6,19.1c0-0.4-0.1-0.8-0.4-1.1
							c-0.3-0.3-0.7-0.4-1.2-0.4c-0.3,0-0.5,0-0.7,0.1c-0.2,0.1-0.4,0.2-0.6,0.3c-0.2,0.1-0.3,0.3-0.4,0.5c-0.1,0.2-0.1,0.4-0.2,0.6
							H26.6z"/>
						<path class="st2" d="M30.4,17.1c0.5-0.4,1-0.8,1.6-1c0.6-0.2,1.3-0.3,1.9-0.3c0.7,0,1.2,0.1,1.7,0.2c0.5,0.2,0.8,0.4,1.1,0.8
							s0.5,0.8,0.6,1.3c0.1,0.5,0.2,1.2,0.2,1.9v4h-2.4v-0.8h0c-0.2,0.3-0.5,0.6-0.9,0.8s-0.9,0.3-1.3,0.3c-0.3,0-0.7,0-1-0.1
							c-0.3-0.1-0.7-0.2-0.9-0.4c-0.3-0.2-0.5-0.4-0.7-0.8c-0.2-0.3-0.3-0.7-0.3-1.2c0-0.6,0.2-1,0.5-1.4c0.3-0.4,0.7-0.6,1.2-0.8
							c0.5-0.2,1-0.3,1.7-0.4C34,19,34.6,19,35.2,19v-0.1c0-0.4-0.1-0.7-0.4-0.9s-0.6-0.3-1-0.3c-0.4,0-0.7,0.1-1.1,0.2
							s-0.6,0.4-0.9,0.6L30.4,17.1z M35.2,20.5h-0.3c-0.3,0-0.6,0-0.9,0c-0.3,0-0.6,0.1-0.8,0.2c-0.2,0.1-0.4,0.2-0.6,0.3
							c-0.1,0.1-0.2,0.3-0.2,0.6c0,0.1,0,0.3,0.1,0.4s0.2,0.2,0.3,0.3c0.1,0.1,0.2,0.1,0.4,0.1c0.1,0,0.3,0,0.4,0
							c0.5,0,0.9-0.1,1.2-0.4c0.3-0.3,0.4-0.7,0.4-1.2V20.5z"/>
						<path class="st2" d="M42.3,18V21c0,0.4,0.1,0.7,0.2,0.8s0.4,0.3,0.8,0.3c0.1,0,0.3,0,0.4,0s0.3-0.1,0.4-0.1l0,1.9
							c-0.2,0.1-0.4,0.1-0.7,0.2s-0.6,0.1-0.8,0.1c-0.5,0-1-0.1-1.3-0.2c-0.4-0.1-0.7-0.3-0.9-0.6c-0.2-0.3-0.4-0.6-0.5-0.9
							c-0.1-0.3-0.1-0.7-0.1-1.2V18h-1.3v-2h1.3v-2.1h2.6V16h1.9v2H42.3z"/>
						<path class="st2" d="M50.6,24v-1.1h0c-0.1,0.2-0.2,0.4-0.4,0.5c-0.2,0.2-0.3,0.3-0.5,0.4S49.2,24,49,24.1
							c-0.3,0.1-0.5,0.1-0.8,0.1c-0.5,0-1-0.1-1.4-0.3c-0.4-0.2-0.7-0.4-0.9-0.7c-0.2-0.3-0.4-0.7-0.5-1c-0.1-0.4-0.2-0.8-0.2-1.2
							V16h2.6v4.3c0,0.2,0,0.4,0,0.6c0,0.2,0.1,0.4,0.2,0.5s0.2,0.3,0.4,0.4s0.3,0.1,0.6,0.1c0.5,0,0.8-0.2,1-0.5
							c0.2-0.3,0.4-0.7,0.4-1.2V16h2.6v8H50.6z"/>
						<path class="st2" d="M60.4,18.2c-0.1,0-0.2-0.1-0.3-0.1c-0.1,0-0.2,0-0.3,0c-0.4,0-0.6,0.1-0.9,0.2c-0.2,0.1-0.4,0.3-0.6,0.5
							s-0.2,0.4-0.3,0.6s-0.1,0.4-0.1,0.6V24h-2.6v-8h2.5v1.2h0c0.2-0.4,0.5-0.7,0.9-1c0.4-0.3,0.8-0.4,1.3-0.4c0.1,0,0.2,0,0.3,0
							c0.1,0,0.2,0,0.2,0L60.4,18.2z"/>
						<path class="st2" d="M69.2,20.1c0,0.1,0,0.2,0,0.3c0,0.1,0,0.2,0,0.3h-5.8c0,0.2,0.1,0.4,0.2,0.6c0.1,0.2,0.3,0.3,0.4,0.5
							c0.2,0.1,0.4,0.2,0.6,0.3c0.2,0.1,0.4,0.1,0.7,0.1c0.4,0,0.8-0.1,1.1-0.2c0.3-0.2,0.5-0.4,0.7-0.6l1.8,1.2
							c-0.4,0.5-0.9,1-1.5,1.3c-0.6,0.3-1.3,0.4-2.1,0.4c-0.6,0-1.2-0.1-1.7-0.3c-0.5-0.2-1-0.5-1.4-0.8s-0.7-0.8-0.9-1.3
							s-0.3-1.1-0.3-1.8c0-0.7,0.1-1.2,0.3-1.8c0.2-0.5,0.5-1,0.9-1.3c0.4-0.4,0.8-0.7,1.4-0.9c0.5-0.2,1.1-0.3,1.7-0.3
							c0.6,0,1.1,0.1,1.6,0.3s0.9,0.5,1.3,0.9c0.4,0.4,0.6,0.8,0.8,1.4S69.2,19.4,69.2,20.1z M66.7,19.1c0-0.4-0.1-0.8-0.4-1.1
							c-0.3-0.3-0.7-0.4-1.2-0.4c-0.3,0-0.5,0-0.7,0.1c-0.2,0.1-0.4,0.2-0.6,0.3c-0.2,0.1-0.3,0.3-0.4,0.5c-0.1,0.2-0.1,0.4-0.2,0.6
							H66.7z"/>
						<path class="st2" d="M76.8,24v-1h0c-0.3,0.4-0.6,0.7-1.1,0.9c-0.5,0.2-1,0.3-1.5,0.3c-0.6,0-1.1-0.1-1.6-0.4s-0.9-0.5-1.2-0.9
							c-0.3-0.4-0.6-0.8-0.7-1.4s-0.3-1-0.3-1.6s0.1-1.1,0.3-1.6c0.2-0.5,0.4-1,0.8-1.3c0.3-0.4,0.7-0.7,1.2-0.9
							c0.5-0.2,1-0.3,1.6-0.3c0.6,0,1.1,0.1,1.5,0.3c0.4,0.2,0.7,0.5,0.9,0.7h0v-5h2.6V24H76.8z M76.7,20c0-0.3,0-0.5-0.1-0.8
							c-0.1-0.2-0.2-0.5-0.4-0.7c-0.2-0.2-0.4-0.3-0.6-0.5C75.4,18,75.1,18,74.8,18c-0.3,0-0.6,0.1-0.8,0.2
							c-0.2,0.1-0.4,0.3-0.6,0.5c-0.2,0.2-0.3,0.4-0.4,0.6c-0.1,0.2-0.1,0.5-0.1,0.8c0,0.3,0,0.5,0.1,0.8s0.2,0.5,0.4,0.7
							c0.2,0.2,0.4,0.3,0.6,0.5c0.2,0.1,0.5,0.2,0.8,0.2c0.3,0,0.6-0.1,0.8-0.2c0.2-0.1,0.4-0.3,0.6-0.5c0.2-0.2,0.3-0.4,0.4-0.7
							C76.7,20.5,76.7,20.3,76.7,20z"/>
						<path class="st2" d="M90.8,18.6c-0.1-0.2-0.4-0.3-0.6-0.5C90,18,89.7,18,89.4,18c-0.3,0-0.5,0.1-0.8,0.2
							c-0.2,0.1-0.4,0.3-0.6,0.4c-0.2,0.2-0.3,0.4-0.4,0.6c-0.1,0.2-0.1,0.5-0.1,0.8c0,0.3,0,0.5,0.1,0.8c0.1,0.2,0.2,0.5,0.4,0.6
							s0.4,0.3,0.6,0.4c0.2,0.1,0.5,0.2,0.8,0.2c0.3,0,0.5-0.1,0.8-0.2c0.3-0.1,0.5-0.2,0.6-0.4l1.5,1.8c-0.3,0.3-0.8,0.6-1.3,0.8
							c-0.5,0.2-1.1,0.3-1.7,0.3c-0.6,0-1.2-0.1-1.8-0.3c-0.5-0.2-1-0.5-1.4-0.8c-0.4-0.4-0.7-0.8-0.9-1.3c-0.2-0.5-0.3-1.1-0.3-1.8
							c0-0.7,0.1-1.2,0.3-1.8c0.2-0.5,0.5-1,0.9-1.3c0.4-0.4,0.9-0.7,1.4-0.8c0.5-0.2,1.1-0.3,1.7-0.3c0.3,0,0.6,0,0.9,0.1
							c0.3,0.1,0.6,0.1,0.8,0.2c0.3,0.1,0.5,0.2,0.7,0.3c0.2,0.1,0.4,0.3,0.6,0.4L90.8,18.6z"/>
						<path class="st2" d="M93.2,17.1c0.5-0.4,1-0.8,1.6-1c0.6-0.2,1.3-0.3,1.9-0.3c0.7,0,1.2,0.1,1.7,0.2c0.5,0.2,0.8,0.4,1.1,0.8
							s0.5,0.8,0.6,1.3c0.1,0.5,0.2,1.2,0.2,1.9v4h-2.4v-0.8h0c-0.2,0.3-0.5,0.6-0.9,0.8s-0.9,0.3-1.3,0.3c-0.3,0-0.7,0-1-0.1
							c-0.3-0.1-0.7-0.2-0.9-0.4c-0.3-0.2-0.5-0.4-0.7-0.8c-0.2-0.3-0.3-0.7-0.3-1.2c0-0.6,0.2-1,0.5-1.4c0.3-0.4,0.7-0.6,1.2-0.8
							c0.5-0.2,1-0.3,1.7-0.4C96.8,19,97.4,19,98,19v-0.1c0-0.4-0.1-0.7-0.4-0.9s-0.6-0.3-1-0.3c-0.4,0-0.7,0.1-1.1,0.2
							s-0.6,0.4-0.9,0.6L93.2,17.1z M98.1,20.5h-0.3c-0.3,0-0.6,0-0.9,0c-0.3,0-0.6,0.1-0.8,0.2c-0.2,0.1-0.4,0.2-0.6,0.3
							c-0.1,0.1-0.2,0.3-0.2,0.6c0,0.1,0,0.3,0.1,0.4s0.2,0.2,0.3,0.3c0.1,0.1,0.2,0.1,0.4,0.1c0.1,0,0.3,0,0.4,0
							c0.5,0,0.9-0.1,1.2-0.4c0.3-0.3,0.4-0.7,0.4-1.2V20.5z"/>
						<path class="st2" d="M107.1,18.4c-0.2-0.2-0.5-0.4-0.8-0.5s-0.6-0.2-0.9-0.2c-0.2,0-0.5,0-0.7,0.1c-0.2,0.1-0.3,0.3-0.3,0.5
							c0,0.2,0.1,0.4,0.3,0.5s0.6,0.2,1.1,0.3c0.3,0.1,0.6,0.2,0.9,0.3s0.6,0.3,0.8,0.5c0.2,0.2,0.4,0.4,0.6,0.7s0.2,0.6,0.2,1
							c0,0.5-0.1,0.9-0.3,1.3c-0.2,0.3-0.5,0.6-0.8,0.8c-0.3,0.2-0.7,0.4-1.1,0.5c-0.4,0.1-0.8,0.1-1.2,0.1c-0.7,0-1.3-0.1-1.9-0.3
							s-1.1-0.5-1.6-0.9l1.5-1.6c0.2,0.3,0.5,0.5,0.9,0.6c0.3,0.2,0.7,0.3,1.1,0.3c0.2,0,0.4-0.1,0.6-0.2c0.2-0.1,0.3-0.3,0.3-0.5
							c0-0.2-0.1-0.4-0.4-0.5c-0.3-0.1-0.7-0.2-1.2-0.4c-0.3-0.1-0.6-0.1-0.8-0.3c-0.3-0.1-0.5-0.2-0.7-0.4s-0.4-0.4-0.5-0.7
							c-0.1-0.3-0.2-0.6-0.2-1c0-0.5,0.1-0.9,0.3-1.2s0.5-0.6,0.8-0.8c0.3-0.2,0.7-0.4,1.1-0.5c0.4-0.1,0.8-0.2,1.2-0.2
							c0.6,0,1.2,0.1,1.8,0.3c0.6,0.2,1.1,0.5,1.4,0.8L107.1,18.4z"/>
						<path class="st2" d="M117.9,20.1c0,0.1,0,0.2,0,0.3c0,0.1,0,0.2,0,0.3h-5.8c0,0.2,0.1,0.4,0.2,0.6c0.1,0.2,0.3,0.3,0.4,0.5
							c0.2,0.1,0.4,0.2,0.6,0.3c0.2,0.1,0.4,0.1,0.7,0.1c0.4,0,0.8-0.1,1.1-0.2c0.3-0.2,0.5-0.4,0.7-0.6l1.8,1.2
							c-0.4,0.5-0.9,1-1.5,1.3c-0.6,0.3-1.3,0.4-2.1,0.4c-0.6,0-1.2-0.1-1.7-0.3c-0.5-0.2-1-0.5-1.4-0.8c-0.4-0.4-0.7-0.8-0.9-1.3
							s-0.3-1.1-0.3-1.8c0-0.7,0.1-1.2,0.3-1.8c0.2-0.5,0.5-1,0.9-1.3c0.4-0.4,0.8-0.7,1.4-0.9c0.5-0.2,1.1-0.3,1.7-0.3
							c0.6,0,1.1,0.1,1.6,0.3c0.5,0.2,0.9,0.5,1.3,0.9c0.4,0.4,0.6,0.8,0.8,1.4S117.9,19.4,117.9,20.1z M115.5,19.1
							c0-0.4-0.1-0.8-0.4-1.1s-0.7-0.4-1.2-0.4c-0.3,0-0.5,0-0.7,0.1c-0.2,0.1-0.4,0.2-0.6,0.3c-0.2,0.1-0.3,0.3-0.4,0.5
							c-0.1,0.2-0.1,0.4-0.2,0.6H115.5z"/>
						<path class="st2" d="M128.2,18.4c-0.2-0.2-0.5-0.4-0.8-0.5s-0.6-0.2-0.9-0.2c-0.2,0-0.5,0-0.7,0.1c-0.2,0.1-0.3,0.3-0.3,0.5
							c0,0.2,0.1,0.4,0.3,0.5s0.6,0.2,1.1,0.3c0.3,0.1,0.6,0.2,0.9,0.3c0.3,0.1,0.6,0.3,0.8,0.5c0.2,0.2,0.4,0.4,0.6,0.7
							s0.2,0.6,0.2,1c0,0.5-0.1,0.9-0.3,1.3c-0.2,0.3-0.5,0.6-0.8,0.8c-0.3,0.2-0.7,0.4-1.1,0.5c-0.4,0.1-0.8,0.1-1.2,0.1
							c-0.7,0-1.3-0.1-1.9-0.3s-1.1-0.5-1.6-0.9l1.5-1.6c0.2,0.3,0.5,0.5,0.9,0.6c0.3,0.2,0.7,0.3,1.1,0.3c0.2,0,0.4-0.1,0.6-0.2
							c0.2-0.1,0.3-0.3,0.3-0.5c0-0.2-0.1-0.4-0.4-0.5c-0.3-0.1-0.7-0.2-1.2-0.4c-0.3-0.1-0.6-0.1-0.8-0.3c-0.3-0.1-0.5-0.2-0.7-0.4
							s-0.4-0.4-0.5-0.7c-0.1-0.3-0.2-0.6-0.2-1c0-0.5,0.1-0.9,0.3-1.2c0.2-0.3,0.5-0.6,0.8-0.8c0.3-0.2,0.7-0.4,1.1-0.5
							c0.4-0.1,0.8-0.2,1.2-0.2c0.6,0,1.2,0.1,1.8,0.3c0.6,0.2,1.1,0.5,1.4,0.8L128.2,18.4z"/>
						<path class="st2" d="M133.9,18V21c0,0.4,0.1,0.7,0.2,0.8c0.1,0.2,0.4,0.3,0.8,0.3c0.1,0,0.3,0,0.4,0c0.1,0,0.3-0.1,0.4-0.1
							l0,1.9c-0.2,0.1-0.4,0.1-0.7,0.2s-0.6,0.1-0.8,0.1c-0.5,0-1-0.1-1.3-0.2c-0.4-0.1-0.7-0.3-0.9-0.6c-0.2-0.3-0.4-0.6-0.5-0.9
							s-0.1-0.7-0.1-1.2V18h-1.3v-2h1.3v-2.1h2.6V16h1.9v2H133.9z"/>
						<path class="st2" d="M142.3,24v-1.1h0c-0.1,0.2-0.2,0.4-0.4,0.5c-0.2,0.2-0.3,0.3-0.5,0.4s-0.4,0.2-0.7,0.3
							c-0.3,0.1-0.5,0.1-0.8,0.1c-0.5,0-1-0.1-1.4-0.3c-0.4-0.2-0.7-0.4-0.9-0.7c-0.2-0.3-0.4-0.7-0.5-1c-0.1-0.4-0.2-0.8-0.2-1.2
							V16h2.6v4.3c0,0.2,0,0.4,0,0.6c0,0.2,0.1,0.4,0.2,0.5s0.2,0.3,0.4,0.4s0.3,0.1,0.6,0.1c0.5,0,0.8-0.2,1-0.5
							c0.2-0.3,0.4-0.7,0.4-1.2V16h2.6v8H142.3z"/>
						<path class="st2" d="M152.9,24v-1h0c-0.3,0.4-0.6,0.7-1.1,0.9c-0.5,0.2-1,0.3-1.5,0.3c-0.6,0-1.1-0.1-1.6-0.4
							c-0.5-0.2-0.9-0.5-1.2-0.9c-0.3-0.4-0.6-0.8-0.7-1.4c-0.2-0.5-0.3-1-0.3-1.6s0.1-1.1,0.3-1.6c0.2-0.5,0.4-1,0.8-1.3
							c0.3-0.4,0.7-0.7,1.2-0.9c0.5-0.2,1-0.3,1.6-0.3c0.6,0,1.1,0.1,1.5,0.3c0.4,0.2,0.7,0.5,0.9,0.7h0v-5h2.6V24H152.9z M152.8,20
							c0-0.3,0-0.5-0.1-0.8s-0.2-0.5-0.4-0.7c-0.2-0.2-0.4-0.3-0.6-0.5c-0.2-0.1-0.5-0.2-0.8-0.2c-0.3,0-0.6,0.1-0.8,0.2
							c-0.2,0.1-0.4,0.3-0.6,0.5c-0.2,0.2-0.3,0.4-0.4,0.6c-0.1,0.2-0.1,0.5-0.1,0.8c0,0.3,0,0.5,0.1,0.8s0.2,0.5,0.4,0.7
							c0.2,0.2,0.4,0.3,0.6,0.5c0.2,0.1,0.5,0.2,0.8,0.2c0.3,0,0.6-0.1,0.8-0.2c0.2-0.1,0.4-0.3,0.6-0.5c0.2-0.2,0.3-0.4,0.4-0.7
							S152.8,20.3,152.8,20z"/>
						<path class="st2" d="M161.9,25.2c-0.2,0.4-0.3,0.8-0.5,1.1c-0.2,0.3-0.4,0.6-0.7,0.8c-0.3,0.2-0.6,0.4-1,0.5s-0.8,0.2-1.3,0.2
							c-0.2,0-0.5,0-0.8,0c-0.3,0-0.5-0.1-0.7-0.1l0.3-2.2c0.1,0,0.3,0.1,0.4,0.1c0.2,0,0.3,0,0.4,0c0.4,0,0.7-0.1,0.9-0.3
							c0.2-0.2,0.3-0.5,0.5-0.8l0.3-0.7l-3.3-7.8h2.9l1.8,5.1h0l1.6-5.1h2.8L161.9,25.2z"/>
					</g>
				</g>
			</g>
		</g>
	</g>
</g>
</svg>
