<?xml version="1.0" encoding="UTF-8"?>
<svg width="60px" height="60px" viewBox="0 0 60 60" version="1.1" xmlns="http://www.w3.org/2000/svg" xmlns:xlink="http://www.w3.org/1999/xlink">
    <!-- Generator: Sketch 44 (41411) - http://www.bohemiancoding.com/sketch -->
    <title>element / hover circle copy</title>
    <desc>Created with Sketch.</desc>
    <defs>
        <circle id="path-1" cx="30" cy="30" r="30"></circle>
        <circle id="path-3" cx="23" cy="23" r="23"></circle>
    </defs>
    <g id="ISOframe-UI" stroke="none" stroke-width="1" fill="none" fill-rule="evenodd">
        <g id="4.0-Inspiration" transform="translate(-677.000000, -612.000000)">
            <g id="element-/-hover-circle" transform="translate(677.000000, 612.000000)">
                <g id="colour-/-red">
                    <mask id="mask-2" fill="white">
                        <use xlink:href="#path-1"></use>
                    </mask>
                    <use id="Mask" fill="#FFFFFF" xlink:href="#path-1"></use>
                    <g opacity="0.503962862" mask="url(#mask-2)" id="Rectangle-1-Copy" fill="#FA0032">
                        <g transform="translate(-38.000000, -20.000000)">
                            <rect x="0" y="0" width="240" height="100"></rect>
                        </g>
                    </g>
                </g>
                <g id="colour-/-red" transform="translate(7.000000, 7.000000)">
                    <mask id="mask-4" fill="white">
                        <use xlink:href="#path-3"></use>
                    </mask>
                    <use id="Mask" fill="#1397E1" xlink:href="#path-3"></use>
                    <g mask="url(#mask-4)" id="Rectangle-1-Copy" fill="#FA0032">
                        <g transform="translate(-29.133333, -15.333333)">
                            <rect x="0" y="0" width="184" height="76.6666667"></rect>
                        </g>
                    </g>
                </g>
                <g id="icon-/-question" transform="translate(14.000000, 14.000000)" fill="#FFFFFF">
                    <g id="appbar.question" transform="translate(7.000000, 2.000000)">
                        <path d="M8.54581,22.45831 C10.07615,22.45831 11.31669,23.69885 11.31669,25.22919 C11.31669,26.75946 10.07615,28 8.54581,28 C7.01554,28 5.775,26.75946 5.775,25.22919 C5.775,23.69885 7.01554,22.45831 8.54581,22.45831 Z M9.1,0.29169 C13.99692,0.29169 17.96662,3.45912 17.96662,8.05 C17.96662,9.7125 16.85831,12.48331 14.64169,13.59169 C12.425,14.7 11.31669,16.18869 11.31669,18.025 L11.31669,20.24169 L5.775,20.24169 L5.775,18.57919 C5.775,14.80997 9.1,12.48331 10.20831,11.375 C12.425,9.15831 12.425,8.8508 12.425,8.05 C12.425,6.21369 10.93631,4.725 9.1,4.725 C7.26362,4.725 5.775,6.21369 5.775,8.05 L5.775,9.7125 L0.23331,9.7125 L0.23331,8.60419 C0.23331,4.01331 4.20308,0.29169 9.1,0.29169 Z" id="Shape" fill-rule="nonzero"></path>
                    </g>
                </g>
            </g>
        </g>
    </g>
</svg>