<svg xmlns="http://www.w3.org/2000/svg" xmlns:xlink="http://www.w3.org/1999/xlink" style="enable-background:new 0 0 366.4 367" id="Layer_1" x="0" y="0" version="1.1" viewBox="0 0 366.4 367" xml:space="preserve"><style type="text/css">.st0,.st1{fill:#fff;stroke:#fff;stroke-miterlimit:10}.st1{stroke-width:.2316}.st2,.st3{stroke-linecap:round;stroke-linejoin:round}.st2{fill:#fff;stroke:#fff;stroke-width:.2463;stroke-miterlimit:10}.st3{stroke-width:.3776}.st3,.st4,.st5{fill:#fff;stroke:#fff;stroke-miterlimit:10}.st4{stroke-width:.2831;stroke-linecap:round;stroke-linejoin:round}.st5{stroke-width:.2395}.st5,.st6,.st7{stroke-linecap:round;stroke-linejoin:round}.st6{fill:#fff;stroke:#fff;stroke-width:1.8771;stroke-miterlimit:10}.st7{stroke-width:1.7808}.st7,.st8,.st9{fill:#fff;stroke:#fff;stroke-miterlimit:10}.st8{stroke-width:.3749;stroke-linecap:round;stroke-linejoin:round}.st9{stroke-width:.2155}.st10,.st11{stroke-linecap:round;stroke-linejoin:round}.st10{fill:#fff;stroke:#fff;stroke-width:.2014;stroke-miterlimit:10}.st11{stroke-width:9.109480e-02}.st11,.st12,.st13,.st14{fill:#fff;stroke:#fff;stroke-miterlimit:10}.st12{stroke-width:.9188;stroke-linecap:round;stroke-linejoin:round}.st13{stroke-width:2.23}.st14{stroke-width:.1667;stroke-linecap:round;stroke-linejoin:round}</style><g><path d="M76,196c0,3.7-3,6.6-6.6,6.6s-6.6-3-6.6-6.6c0-3.7,3-6.6,6.6-6.6S76,192.3,76,196L76,196z" class="st0"/><path d="M76,196c0,3.7-3,6.6-6.6,6.6s-6.6-3-6.6-6.6c0-3.7,3-6.6,6.6-6.6S76,192.3,76,196L76,196z" class="st1"/><path d="M99.5,194.5c0,0.9-0.7,1.6-1.6,1.6c-0.9,0-1.6-0.7-1.6-1.6c0-0.9,0.7-1.6,1.6-1.6 C98.8,192.9,99.5,193.6,99.5,194.5L99.5,194.5z" class="st0"/><path d="M99.5,194.5c0,0.9-0.7,1.6-1.6,1.6c-0.9,0-1.6-0.7-1.6-1.6c0-0.9,0.7-1.6,1.6-1.6 C98.8,192.9,99.5,193.6,99.5,194.5L99.5,194.5z" class="st1"/><path d="M75.9,173.5c-0.2-0.3-0.7-0.6-1.1-0.6H59.9c-0.4,0-0.7,0.3-0.7,0.7v2.3c0,0.4,0.3,0.7,0.7,0.7l1.7,0 c0.4,0,0.7,0.3,0.7,0.7l0,5.3c0,0.4-0.3,0.7-0.7,0.8c0,0-5.3,0.9-5.5,1.9c-0.2,0.9,2.4,1.7,2.1,2.8c-0.3,1.1-4.2,1.6-4.7,2.5 c-0.5,0.8,5.1,1.2,4.9,2.5c-0.2,1.3-3.8,2.8-3.8,2.8c-0.3,0.1-0.3,0.3,0.1,0.3h5.1c0.4,0,0.7,0,0.7,0c0,0,0,0,0,0 c0-4.9,4-8.9,8.9-8.9c4.9,0,8.9,4,8.9,8.9c0,0,0,0,0,0c0,0,0.3,0,0.7,0h4.9c0.4,0,0.7-0.3,0.7-0.7v-8.7c0-0.4-0.2-0.9-0.4-1.2 L75.9,173.5L75.9,173.5z M66.4,182.7c-0.4,0-0.7-0.3-0.7-0.7v-4.9c0-0.4,0.3-0.7,0.7-0.7h7c0.4,0,0.8,0.3,1.1,0.6l3.3,5.1 c0.2,0.3,0.1,0.6-0.3,0.6H66.4L66.4,182.7z" class="st0"/><path d="M75.9,173.5c-0.2-0.3-0.7-0.6-1.1-0.6H59.9c-0.4,0-0.7,0.3-0.7,0.7v2.3c0,0.4,0.3,0.7,0.7,0.7l1.7,0 c0.4,0,0.7,0.3,0.7,0.7l0,5.3c0,0.4-0.3,0.7-0.7,0.8c0,0-5.3,0.9-5.5,1.9c-0.2,0.9,2.4,1.7,2.1,2.8c-0.3,1.1-4.2,1.6-4.7,2.5 c-0.5,0.8,5.1,1.2,4.9,2.5c-0.2,1.3-3.8,2.8-3.8,2.8c-0.3,0.1-0.3,0.3,0.1,0.3h5.1c0.4,0,0.7,0,0.7,0c0,0,0,0,0,0 c0-4.9,4-8.9,8.9-8.9c4.9,0,8.9,4,8.9,8.9c0,0,0,0,0,0c0,0,0.3,0,0.7,0h4.9c0.4,0,0.7-0.3,0.7-0.7v-8.7c0-0.4-0.2-0.9-0.4-1.2 L75.9,173.5L75.9,173.5z M66.4,182.7c-0.4,0-0.7-0.3-0.7-0.7v-4.9c0-0.4,0.3-0.7,0.7-0.7h7c0.4,0,0.8,0.3,1.1,0.6l3.3,5.1 c0.2,0.3,0.1,0.6-0.3,0.6H66.4L66.4,182.7z" class="st1"/><path d="M94.1,166.9c0.4,0,0.7-0.3,0.7-0.7l0-2.3c0-0.4-0.3-0.7-0.7-0.7l-3.6,0c-0.4,0-0.7,0-0.7,0 c0,0-0.3,0.2-0.6,0.4l-12.3,8.5c-0.3,0.2-0.4,0.6-0.2,0.9l1.3,1.9c0.2,0.3,0.6,0.4,0.9,0.2l11.3-7.9c0.3-0.2,0.9-0.4,1.2-0.4 L94.1,166.9L94.1,166.9z" class="st0"/><path d="M94.1,166.9c0.4,0,0.7-0.3,0.7-0.7l0-2.3c0-0.4-0.3-0.7-0.7-0.7l-3.6,0c-0.4,0-0.7,0-0.7,0 c0,0-0.3,0.2-0.6,0.4l-12.3,8.5c-0.3,0.2-0.4,0.6-0.2,0.9l1.3,1.9c0.2,0.3,0.6,0.4,0.9,0.2l11.3-7.9c0.3-0.2,0.9-0.4,1.2-0.4 L94.1,166.9L94.1,166.9z" class="st1"/><path d="M92.8,177.7c-0.3-0.2-0.7-0.1-0.9,0.2l-5.2,7.5c-0.2,0.3-0.1,0.7,0.2,0.9l8.7,6.1c0.3,0.2,0.8,0.2,1.1,0 c0,0,0.6-0.4,1.4-0.4c0.8,0,1.5,0.5,1.5,0.5c0.3,0.2,0.7,0.2,0.9-0.1l4-5.7c0.2-0.3,0.1-0.7-0.2-0.9L92.8,177.7L92.8,177.7z M98.1,188.4c-0.2,0.3-0.6,0.4-0.9,0.2l-3.9-2.8c-0.3-0.2-0.7-0.2-0.9,0c-0.2,0.2-0.4,0.2-0.6-0.2l-1.1-2.4c-0.2-0.3,0-0.6,0.4-0.6 l2.6,0.3c0.4,0,0.5,0.3,0.4,0.5c-0.2,0.2-0.1,0.6,0.3,0.8l3.9,2.8c0.3,0.2,0.4,0.6,0.2,0.9L98.1,188.4L98.1,188.4z" class="st0"/><path d="M92.8,177.7c-0.3-0.2-0.7-0.1-0.9,0.2l-5.2,7.5c-0.2,0.3-0.1,0.7,0.2,0.9l8.7,6.1c0.3,0.2,0.8,0.2,1.1,0 c0,0,0.6-0.4,1.4-0.4c0.8,0,1.5,0.5,1.5,0.5c0.3,0.2,0.7,0.2,0.9-0.1l4-5.7c0.2-0.3,0.1-0.7-0.2-0.9L92.8,177.7L92.8,177.7z M98.1,188.4c-0.2,0.3-0.6,0.4-0.9,0.2l-3.9-2.8c-0.3-0.2-0.7-0.2-0.9,0c-0.2,0.2-0.4,0.2-0.6-0.2l-1.1-2.4c-0.2-0.3,0-0.6,0.4-0.6 l2.6,0.3c0.4,0,0.5,0.3,0.4,0.5c-0.2,0.2-0.1,0.6,0.3,0.8l3.9,2.8c0.3,0.2,0.4,0.6,0.2,0.9L98.1,188.4L98.1,188.4z" class="st1"/></g><g><polygon points="216.1 168.3 234.9 164.2 253.8 168.4 235 174.1 216.1 168.3" class="st0"/><polygon points="216.1 168.3 234.9 164.2 253.8 168.4 235 174.1 216.1 168.3" class="st2"/><path d="M246,180.7l-3.1,1v9.1l3.1-1.3c1.3-0.5,1.8-1.8,1.8-3.4v-3.3C247.8,180.6,247.3,180.3,246,180.7L246,180.7z" class="st0"/><path d="M246,180.7l-3.1,1v9.1l3.1-1.3c1.3-0.5,1.8-1.8,1.8-3.4v-3.3C247.8,180.6,247.3,180.3,246,180.7L246,180.7z" class="st2"/><path d="M253.8,170.7l-17.8,5.4v25.6l17.8-9.3L253.8,170.7L253.8,170.7z M251.5,184.8c0,4.2-1.2,6.6-4.9,8.2l-7.3,3.5 V179l6.8-2c3.7-0.9,5.4,0.3,5.4,4.7V184.8L251.5,184.8z" class="st0"/><path d="M253.8,170.7l-17.8,5.4v25.6l17.8-9.3L253.8,170.7L253.8,170.7z M251.5,184.8c0,4.2-1.2,6.6-4.9,8.2l-7.3,3.5 V179l6.8-2c3.7-0.9,5.4,0.3,5.4,4.7V184.8L251.5,184.8z" class="st2"/><path d="M216.1,170.6l0,21.9l17.8,9.1v-25.6L216.1,170.6L216.1,170.6z M225.2,194.2c-3.5-1.5-6.3-2.9-6.3-7.5v-0.9 l3.8,1.4v0.6c0,1.9,0.9,2.3,2.3,2.9c1.7,0.7,2.3,0.9,2.3-1.1c0-1.2-0.2-1.7-2.3-2.5l-1-0.4v-3.2l1,0.4c2,0.8,2.1,0.6,2.1-0.6 c0-1.4-0.1-1.9-2.1-2.7c-1.5-0.5-2.1-0.7-2.1,1.2v0.3l-3.8-1.3v-0.6c0-4.6,2.3-4.3,6.2-3.1c2.5,0.9,5.8,2.4,5.8,6.8 c0,2-0.5,3.4-2.3,2.9v0.2c1.9,0.9,2.5,2.8,2.5,4.8C231.2,196.4,228.7,195.8,225.2,194.2L225.2,194.2z" class="st0"/><path d="M216.1,170.6l0,21.9l17.8,9.1v-25.6L216.1,170.6L216.1,170.6z M225.2,194.2c-3.5-1.5-6.3-2.9-6.3-7.5v-0.9 l3.8,1.4v0.6c0,1.9,0.9,2.3,2.3,2.9c1.7,0.7,2.3,0.9,2.3-1.1c0-1.2-0.2-1.7-2.3-2.5l-1-0.4v-3.2l1,0.4c2,0.8,2.1,0.6,2.1-0.6 c0-1.4-0.1-1.9-2.1-2.7c-1.5-0.5-2.1-0.7-2.1,1.2v0.3l-3.8-1.3v-0.6c0-4.6,2.3-4.3,6.2-3.1c2.5,0.9,5.8,2.4,5.8,6.8 c0,2-0.5,3.4-2.3,2.9v0.2c1.9,0.9,2.5,2.8,2.5,4.8C231.2,196.4,228.7,195.8,225.2,194.2L225.2,194.2z" class="st2"/></g><g><path d="M287,114.3c9.2,0,16.7,7.5,16.7,16.7s-7.5,16.7-16.7,16.7c-9.2,0-16.7-7.5-16.7-16.7S277.8,114.3,287,114.3 M287,110.9c-11.1,0-20.1,9-20.1,20.1c0,11.1,9,20.1,20.1,20.1c11.1,0,20.1-9,20.1-20.1C307.1,119.9,298.1,110.9,287,110.9 L287,110.9L287,110.9z" class="st0"/><path d="M277.3,142c0.4,0.2,0.5,0.2,1.2-0.4c0.3-0.3,3.7-3.7,7.7-7.7l-3-3c-3.7,3.7-7.4,7.4-7.7,7.7 c-0.7,0.7-0.6,0.8-0.4,1.2c0.2,0.4,0.6,1.3,0.8,1.5C276,141.4,276.9,141.8,277.3,142L277.3,142z M277.8,138.2 c0.3-0.3,0.8-0.3,1.1,0c0.3,0.3,0.3,0.8,0,1.1c-0.3,0.3-0.8,0.3-1.1,0C277.5,139,277.5,138.5,277.8,138.2L277.8,138.2z" class="st0"/><path d="M277.6,142.2c-0.1,0-0.3,0-0.4-0.1l0,0c-0.1,0-1.3-0.6-1.5-0.8c-0.2-0.2-0.8-1.4-0.8-1.5 c-0.2-0.4-0.2-0.6,0.5-1.3c0.2-0.2,1.5-1.5,3.2-3.2l4.5-4.5c0,0,0.1,0,0.1,0l3,3c0,0,0,0,0,0.1s0,0,0,0.1c-3.6,3.6-6.7,6.7-7.5,7.5 l-0.2,0.2C278.1,142,277.9,142.2,277.6,142.2z M277.3,141.9c0.3,0.2,0.5,0.2,1.1-0.4l0.2-0.2c0.8-0.8,3.9-3.9,7.5-7.5l-2.9-2.9 l-4.4,4.4c-1.8,1.8-3,3-3.2,3.2c-0.6,0.6-0.6,0.8-0.4,1.1c0.2,0.5,0.6,1.3,0.8,1.4C276,141.3,276.8,141.7,277.3,141.9L277.3,141.9z M278.3,139.6c-0.2,0-0.5-0.1-0.6-0.3c-0.3-0.3-0.3-0.9,0-1.2l0,0c0.2-0.2,0.4-0.3,0.6-0.3h0c0.2,0,0.5,0.1,0.6,0.3 c0.2,0.2,0.3,0.4,0.3,0.6c0,0.2-0.1,0.5-0.3,0.6C278.8,139.5,278.6,139.6,278.3,139.6z M278.3,138L278.3,138 c-0.2,0-0.4,0.1-0.5,0.2l0,0c-0.3,0.3-0.3,0.7,0,1c0.3,0.3,0.7,0.3,1,0c0.1-0.1,0.2-0.3,0.2-0.5c0-0.2-0.1-0.4-0.2-0.5 C278.7,138.1,278.5,138,278.3,138z M277.8,138.2L277.8,138.2L277.8,138.2z" class="st0"/><path d="M297.6,125.7c1.2-1.2,1.6-3.1,1-4.6l-1.3,1.3l-2.3-0.3l-0.3-2.3l1.3-1.3c-1.6-0.6-3.4-0.2-4.6,1 c-1.2,1.2-1.6,2.9-1.1,4.4c-0.6,0.6-1.8,1.8-3.1,3.1l3,3c1.7-1.7,2.4-2.4,3.1-3.1C294.7,127.3,296.4,126.9,297.6,125.7L297.6,125.7 z" class="st0"/><path d="M290,130.1C290,130.1,290,130.1,290,130.1l-3-3c0,0,0-0.1,0-0.1c1.4-1.4,2.5-2.5,3.1-3.1 c-0.4-1.6,0-3.3,1.2-4.4c1.2-1.2,3.1-1.6,4.7-1.1c0,0,0,0,0.1,0.1c0,0,0,0.1,0,0.1l-1.3,1.3l0.3,2.2l2.2,0.3l1.3-1.3 c0,0,0.1,0,0.1,0c0,0,0.1,0,0.1,0.1c0.6,1.6,0.2,3.5-1.1,4.7l0,0c-1.2,1.2-2.8,1.6-4.4,1.2L290,130.1 C290.1,130.1,290.1,130.1,290,130.1z M287.2,127l2.9,2.9l3.1-3.1c0,0,0.1,0,0.1,0c1.5,0.5,3.2,0,4.3-1.1c1.1-1.1,1.6-2.9,1.1-4.4 l-1.2,1.2c0,0,0,0-0.1,0l-2.3-0.3c0,0-0.1,0-0.1-0.1l-0.3-2.3c0,0,0-0.1,0-0.1l1.2-1.2c-1.5-0.5-3.2-0.1-4.4,1.1 c-1.1,1.1-1.5,2.8-1.1,4.3c0,0,0,0.1,0,0.1C289.6,124.5,288.5,125.6,287.2,127z M297.6,125.7L297.6,125.7L297.6,125.7z" class="st0"/><path d="M300,145.5c-0.4,0-0.9-0.2-1.2-0.5l-25.8-25.8c-0.7-0.7-0.7-1.7,0-2.4c0.7-0.7,1.7-0.7,2.4,0l25.8,25.8 c0.7,0.7,0.7,1.7,0,2.4C300.8,145.4,300.4,145.5,300,145.5z" class="st0"/></g><polygon points="29.8 24.2 29.8 22.9 24.2 22.9 24.2 24.2 19.5 22.5 24.2 20.8 24.2 22.2 29.8 22.2 29.8 20.8 34.5 22.5 34.5 11.2 19.5 11.2 19.5 42.8 34.5 42.8 34.5 22.5 29.8 24.2" class="st0"/><g><path d="M82.1,34.4v-3.3h-6.2v3.3h-5.7c-0.9,0.9-0.9,2.1,0,3l7.3,7.3c0.9,0.9,2.3,0.9,3.2,0l7.3-7.3 c0.9-0.9,0.9-2.1,0-3H82.1L82.1,34.4z" class="st0"/><path d="M75.8,19.7v3.2h6.3v-3.2h5.8c0.9-0.9,0.9-2.3,0-3.1l-7.3-7.3c-0.9-0.9-2.3-0.9-3.2,0L70,16.6 c-0.9,0.9-0.9,2.3,0,3.1H75.8L75.8,19.7z" class="st0"/><polygon points="59.9 24.7 98.1 24.7 98.1 29.3 59.9 29.3 59.9 24.7" class="st0"/></g><g><polygon points="248.2 28.2 244.5 26.4 244.5 27.8 236.9 30.4 236.9 33.9 244.5 31.3 244.4 32.9 248.2 28.2" class="st0"/><polygon points="248.2 36.6 244.5 34.9 244.5 36.3 236.9 38.9 236.9 42.3 244.5 39.7 244.4 41.3 248.2 36.6" class="st0"/><path d="M230.5,4.5l17.2,12.4c0,0-25.9,1.8-25.9-6.7C221.9,4.5,230.5,4.5,230.5,4.5L230.5,4.5z" class="st0"/><path d="M247.7,23.3c0,0-25.9,1.8-25.9-6.7l0-2.7c3.5,6.6,26,4.8,26,4.8L247.7,23.3L247.7,23.3z" class="st0"/><path d="M225.4,22.9v25.4c0,0.6,1.2,1.1,2.7,1.1c1.5,0,2.7-0.5,2.7-1.1h0V24.5C228.8,24.2,226.9,23.6,225.4,22.9 L225.4,22.9z" class="st0"/></g><g><path d="M339,19.1c3.3,0,6.5-0.4,8.8-1c1.2-0.3,2.1-0.7,2.7-1.1v24.3c0,0,0,0,0,0c0,1.8-5.1,3.2-11.5,3.2 c-6.3,0-11.5-1.4-11.5-3.2V17c0.6,0.4,1.4,0.7,2.6,1C332.5,18.7,335.7,19.1,339,19.1L339,19.1z" class="st0"/><path d="M339,9.5c6.7,0,12.1,1.7,12.1,3.7c0,2.1-5.4,3.7-12.1,3.7c-6.7,0-12.1-1.7-12.1-3.7 C326.9,11.2,332.3,9.5,339,9.5L339,9.5z" class="st0"/></g><g><path d="M127.4,61.7c1.1,0,2.1,0.2,3.1,0.6v25.6c-1-0.3-2-0.5-3.1-0.5c-1,0-2.1,0.2-3.1,0.5V62.3 C125.2,61.9,126.3,61.7,127.4,61.7 M121.8,63.5v25.5l-6.1,3V66.5L121.8,63.5L121.8,63.5z M132.9,63.5l6.1,3v25.5l-6.1-3V63.5 L132.9,63.5z M141.5,67.7l6.1,3v25.5l-6.1-3V67.7L141.5,67.7z M127.4,60.9c-1.3,0-2.7,0.3-3.9,0.9v27.3c1.2-0.5,2.6-0.8,3.9-0.8 c1.3,0,2.7,0.3,3.9,0.8V61.8C130,61.2,128.7,60.9,127.4,60.9L127.4,60.9L127.4,60.9z M122.6,62.2l-7.8,3.8v27.3l7.8-3.8V62.2 L122.6,62.2z M132.1,62.2v27.3l7.8,3.8V66L132.1,62.2L132.1,62.2z M140.7,66.4v27.3l7.8,3.8V70.2L140.7,66.4L140.7,66.4z M149.3,70.1v27.3l3.5-2.4V67.7L149.3,70.1L149.3,70.1z" class="st0"/><path d="M109.2,92.7c0,0,1.1,2.6,4.8,0.8V66.3c0,0-3.5,1.8-4.8-0.9V92.7L109.2,92.7z" class="st0"/></g><path d="M317.3,129.2c0.1,0,0.2-0.1,0.2-0.2v-0.7c0-0.1-0.1-0.2-0.2-0.2c-0.1,0-0.2,0.1-0.2,0.2v0.7	C317,129.1,317.1,129.2,317.3,129.2L317.3,129.2z M317.3,127.5c0.1,0,0.2-0.1,0.2-0.2v-0.7c0-0.1-0.1-0.2-0.2-0.2	c-0.1,0-0.2,0.1-0.2,0.2v0.7C317,127.4,317.1,127.5,317.3,127.5L317.3,127.5z M317.3,130.8c0.1,0,0.2-0.1,0.2-0.2v-0.7	c0-0.1-0.1-0.2-0.2-0.2c-0.1,0-0.2,0.1-0.2,0.2v0.7C317,130.7,317.1,130.8,317.3,130.8L317.3,130.8z M317.3,125.9	c0.1,0,0.2-0.1,0.2-0.2V125c0-0.1-0.1-0.2-0.2-0.2c-0.1,0-0.2,0.1-0.2,0.2v0.7C317,125.8,317.1,125.9,317.3,125.9L317.3,125.9z M317.3,132.5c0.1,0,0.2-0.1,0.2-0.2v-0.7c0-0.1-0.1-0.2-0.2-0.2c-0.1,0-0.2,0.1-0.2,0.2v0.7C317,132.4,317.1,132.5,317.3,132.5	L317.3,132.5z M317.3,119.2c0.1,0,0.2-0.1,0.2-0.2v-0.7c0-0.1-0.1-0.2-0.2-0.2c-0.1,0-0.2,0.1-0.2,0.2v0.7	C317,119.1,317.1,119.2,317.3,119.2L317.3,119.2z M317.3,134.1c0.1,0,0.2-0.1,0.2-0.2v-0.7c0-0.1-0.1-0.2-0.2-0.2	c-0.1,0-0.2,0.1-0.2,0.2v0.7C317,134,317.1,134.1,317.3,134.1L317.3,134.1z M317.3,117.6c0.1,0,0.2-0.1,0.2-0.2v-0.7	c0-0.1-0.1-0.2-0.2-0.2c-0.1,0-0.2,0.1-0.2,0.2v0.7C317,117.5,317.1,117.6,317.3,117.6L317.3,117.6z M317.3,124.2	c0.1,0,0.2-0.1,0.2-0.2v-0.7c0-0.1-0.1-0.2-0.2-0.2c-0.1,0-0.2,0.1-0.2,0.2v0.7C317,124.1,317.1,124.2,317.3,124.2L317.3,124.2z M317.3,120.9c0.1,0,0.2-0.1,0.2-0.2V120c0-0.1-0.1-0.2-0.2-0.2c-0.1,0-0.2,0.1-0.2,0.2v0.7C317,120.8,317.1,120.9,317.3,120.9	L317.3,120.9z M317.3,122.6c0.1,0,0.2-0.1,0.2-0.2v-0.7c0-0.1-0.1-0.2-0.2-0.2c-0.1,0-0.2,0.1-0.2,0.2v0.7	C317,122.4,317.1,122.6,317.3,122.6L317.3,122.6z M321,113.9l-0.6,0.3c-0.1,0.1-0.2,0.2-0.1,0.3c0,0.1,0.1,0.1,0.2,0.1	c0,0,0.1,0,0.1,0l0.6-0.3c0.1-0.1,0.2-0.2,0.1-0.3C321.2,113.9,321.1,113.8,321,113.9L321,113.9z M319.5,114.6l-0.6,0.3	c-0.1,0.1-0.2,0.2-0.1,0.3c0,0.1,0.1,0.1,0.2,0.1c0,0,0.1,0,0.1,0l0.6-0.3c0.1-0.1,0.2-0.2,0.1-0.3	C319.7,114.6,319.6,114.6,319.5,114.6L319.5,114.6z M320.8,136.2l-0.6,0.3c-0.1,0.1-0.2,0.2-0.1,0.3c0,0.1,0.1,0.1,0.2,0.1	c0,0,0.1,0,0.1,0l0.6-0.3c0.1-0.1,0.2-0.2,0.1-0.3C321.1,136.1,320.9,136.1,320.8,136.2L320.8,136.2z M317.3,135.8	c0.1,0,0.2-0.1,0.2-0.2v-0.7c0-0.1-0.1-0.2-0.2-0.2c-0.1,0-0.2,0.1-0.2,0.2v0.7C317,135.7,317.1,135.8,317.3,135.8L317.3,135.8z M322.4,113.2l-0.6,0.3c-0.1,0.1-0.2,0.2-0.1,0.3c0,0.1,0.1,0.1,0.2,0.1c0,0,0.1,0,0.1,0l0.6-0.3c0.1-0.1,0.2-0.2,0.1-0.3	C322.7,113.2,322.6,113.1,322.4,113.2L322.4,113.2z M322.3,135.4l-0.6,0.3c-0.1,0.1-0.2,0.2-0.1,0.3c0,0.1,0.1,0.1,0.2,0.1	c0,0,0.1,0,0.1,0l0.6-0.3c0.1-0.1,0.2-0.2,0.1-0.3C322.5,135.4,322.4,135.4,322.3,135.4L322.3,135.4z M317.5,137.2v-0.7	c0-0.1-0.1-0.2-0.2-0.2c-0.1,0-0.2,0.1-0.2,0.2v0.7c0,0.1,0.1,0.2,0.2,0.2C317.4,137.5,317.5,137.4,317.5,137.2L317.5,137.2z M319.3,136.9l-0.6,0.3c-0.1,0.1-0.2,0.2-0.1,0.3c0,0.1,0.1,0.1,0.2,0.1c0,0,0.1,0,0.1,0l0.6-0.3c0.1-0.1,0.2-0.2,0.1-0.3	C319.6,136.9,319.4,136.8,319.3,136.9L319.3,136.9z M317.8,137.6l-0.6,0.3c-0.1,0.1-0.2,0.2-0.1,0.3c0,0.1,0.1,0.1,0.2,0.1	c0,0,0.1,0,0.1,0l0.6-0.3c0.1-0.1,0.2-0.2,0.1-0.3C318.1,137.6,317.9,137.6,317.8,137.6L317.8,137.6z M318,115.3l-0.6,0.3	c-0.1,0.1-0.2,0.2-0.1,0.3c0,0.1,0.1,0.1,0.2,0.1c0,0,0.1,0,0.1,0l0.6-0.3c0.1-0.1,0.2-0.2,0.1-0.3	C318.2,115.3,318.1,115.3,318,115.3L318,115.3z M355.5,121.3C355.5,121.3,355.5,121.3,355.5,121.3c0.3-0.1,0.5-0.1,0.7-0.1	c0.1,0,0.2-0.1,0.2-0.3c0-0.1-0.1-0.2-0.3-0.2c-0.2,0-0.4,0.1-0.7,0.1c-0.1,0-0.2,0.2-0.2,0.3C355.3,121.2,355.4,121.3,355.5,121.3	L355.5,121.3z M359.6,121.2c0-0.1,0-0.3-0.2-0.3c-0.2-0.1-0.4-0.1-0.7-0.2c-0.1,0-0.2,0.1-0.3,0.2c0,0.1,0.1,0.2,0.2,0.3	c0.2,0,0.4,0.1,0.6,0.2c0,0,0,0,0.1,0C359.5,121.3,359.6,121.3,359.6,121.2L359.6,121.2z M360.7,140.9c-0.1,0-0.2,0.1-0.2,0.2v0.7	c0,0.1,0.1,0.2,0.2,0.2s0.2-0.1,0.2-0.2v-0.7C361,141,360.9,140.9,360.7,140.9L360.7,140.9z M360.7,135.9c-0.1,0-0.2,0.1-0.2,0.2	v0.7c0,0.1,0.1,0.2,0.2,0.2s0.2-0.1,0.2-0.2v-0.7C361,136,360.9,135.9,360.7,135.9L360.7,135.9z M360.3,143.4	c-0.2-0.1-0.4-0.2-0.6-0.2c-0.1,0-0.3,0-0.3,0.1c0,0.1,0,0.3,0.1,0.3c0.2,0.1,0.4,0.1,0.6,0.2c0,0,0.1,0,0.1,0	c0.1,0,0.2-0.1,0.2-0.1C360.5,143.6,360.5,143.5,360.3,143.4L360.3,143.4z M360.7,137.6c-0.1,0-0.2,0.1-0.2,0.2v0.7	c0,0.1,0.1,0.2,0.2,0.2s0.2-0.1,0.2-0.2v-0.7C361,137.7,360.9,137.6,360.7,137.6L360.7,137.6z M360.7,139.2c-0.1,0-0.2,0.1-0.2,0.2	v0.7c0,0.1,0.1,0.2,0.2,0.2s0.2-0.1,0.2-0.2v-0.7C361,139.3,360.9,139.2,360.7,139.2L360.7,139.2z M357,142.8c-0.2,0-0.5,0-0.7,0.1	c-0.1,0-0.2,0.1-0.2,0.3c0,0.1,0.1,0.2,0.2,0.2c0,0,0,0,0,0c0.2,0,0.4,0,0.6-0.1c0.1,0,0.2-0.1,0.2-0.2	C357.2,142.9,357.1,142.8,357,142.8L357,142.8z M355.3,143.1c-0.2,0.1-0.4,0.1-0.6,0.2c-0.1,0-0.2,0.2-0.1,0.3	c0,0.1,0.1,0.1,0.2,0.1c0,0,0.1,0,0.1,0c0.2-0.1,0.4-0.1,0.6-0.2c0.1,0,0.2-0.2,0.2-0.3C355.6,143.1,355.4,143,355.3,143.1	L355.3,143.1z M357.8,121.1c0.1,0,0.2-0.1,0.2-0.2c0-0.1-0.1-0.2-0.2-0.2c-0.2,0-0.3,0-0.5,0c-0.1,0-0.1,0-0.2,0	c-0.1,0-0.2,0.1-0.2,0.2c0,0.1,0.1,0.2,0.2,0.2c0.1,0,0.1,0,0.2,0C357.5,121,357.6,121,357.8,121.1	C357.8,121.1,357.8,121.1,357.8,121.1L357.8,121.1z M358.7,142.9c-0.2,0-0.5-0.1-0.7-0.1c-0.1,0-0.2,0.1-0.3,0.2	c0,0.1,0.1,0.2,0.2,0.3c0.2,0,0.4,0,0.6,0.1c0,0,0,0,0,0c0.1,0,0.2-0.1,0.2-0.2C358.9,143,358.8,142.9,358.7,142.9L358.7,142.9z M360.7,127.6c-0.1,0-0.2,0.1-0.2,0.2v0.7c0,0.1,0.1,0.2,0.2,0.2s0.2-0.1,0.2-0.2v-0.7C361,127.7,360.9,127.6,360.7,127.6	L360.7,127.6z M360.7,124.3c-0.1,0-0.2,0.1-0.2,0.2v0.7c0,0.1,0.1,0.2,0.2,0.2s0.2-0.1,0.2-0.2v-0.7	C361,124.4,360.9,124.3,360.7,124.3L360.7,124.3z M360.7,122.6c-0.1,0-0.2,0.1-0.2,0.2v0.7c0,0.1,0.1,0.2,0.2,0.2s0.2-0.1,0.2-0.2	v-0.7C361,122.7,360.9,122.6,360.7,122.6L360.7,122.6z M360.7,126c-0.1,0-0.2,0.1-0.2,0.2v0.7c0,0.1,0.1,0.2,0.2,0.2	s0.2-0.1,0.2-0.2v-0.7C361,126.1,360.9,126,360.7,126L360.7,126z M360.8,121.4c-0.1-0.1-0.3-0.1-0.4-0.2c-0.1-0.1-0.3,0-0.3,0.1	c-0.1,0.1,0,0.3,0.1,0.3c0.1,0,0.2,0.1,0.2,0.1v0.1c0,0.1,0.1,0.2,0.2,0.2s0.2-0.1,0.2-0.2v-0.2C361,121.6,360.9,121.5,360.8,121.4	L360.8,121.4z M354.8,121.3c0-0.1-0.2-0.2-0.3-0.1c-0.2,0.1-0.4,0.2-0.6,0.3h0c-0.1,0.1-0.2,0.1-0.4,0.2c-0.1,0.1-0.2,0.2-0.1,0.3	c0,0.1,0.1,0.1,0.2,0.1c0,0,0.1,0,0.1,0c0,0,0,0,0.1,0v0.3c0,0.1,0.1,0.2,0.2,0.2c0.1,0,0.2-0.1,0.2-0.2v-0.6	c0.2-0.1,0.3-0.2,0.5-0.2C354.8,121.5,354.8,121.4,354.8,121.3L354.8,121.3z M360.7,130.9c-0.1,0-0.2,0.1-0.2,0.2v0.7	c0,0.1,0.1,0.2,0.2,0.2s0.2-0.1,0.2-0.2v-0.7C361,131,360.9,130.9,360.7,130.9L360.7,130.9z M360.7,132.6c-0.1,0-0.2,0.1-0.2,0.2	v0.7c0,0.1,0.1,0.2,0.2,0.2s0.2-0.1,0.2-0.2v-0.7C361,132.7,360.9,132.6,360.7,132.6L360.7,132.6z M360.7,134.2	c-0.1,0-0.2,0.1-0.2,0.2v0.7c0,0.1,0.1,0.2,0.2,0.2s0.2-0.1,0.2-0.2v-0.7C361,134.3,360.9,134.2,360.7,134.2L360.7,134.2z M360.7,129.3c-0.1,0-0.2,0.1-0.2,0.2v0.7c0,0.1,0.1,0.2,0.2,0.2s0.2-0.1,0.2-0.2v-0.7C361,129.4,360.9,129.3,360.7,129.3	L360.7,129.3z M360.7,142.5c-0.1,0-0.2,0.1-0.2,0.2v0.7c0,0.1,0.1,0.2,0.2,0.2s0.2-0.1,0.2-0.2v-0.7	C361,142.6,360.9,142.5,360.7,142.5L360.7,142.5z M350.8,144.5c-0.1,0-0.1,0-0.2,0c-0.2,0-0.3,0-0.5,0c-0.1,0-0.2,0.1-0.2,0.2	c0,0.1,0.1,0.2,0.2,0.2c0.2,0,0.3,0,0.5,0c0.1,0,0.1,0,0.2,0c0.1,0,0.2-0.1,0.2-0.2C351,144.6,350.9,144.5,350.8,144.5L350.8,144.5z M349.2,144.3c-0.2,0-0.4-0.1-0.6-0.2c-0.1,0-0.3,0-0.3,0.2c0,0.1,0,0.3,0.2,0.3c0.2,0.1,0.4,0.1,0.7,0.2c0,0,0,0,0,0	c0.1,0,0.2-0.1,0.2-0.2C349.4,144.5,349.3,144.4,349.2,144.3L349.2,144.3z M352.4,144.2c-0.2,0.1-0.4,0.1-0.6,0.1	c-0.1,0-0.2,0.1-0.2,0.3c0,0.1,0.1,0.2,0.2,0.2c0,0,0,0,0,0c0.2,0,0.4-0.1,0.7-0.1c0.1,0,0.2-0.2,0.2-0.3	C352.6,144.3,352.5,144.2,352.4,144.2L352.4,144.2z M351,122.2c-0.1,0-0.3,0-0.4,0c-0.1,0-0.1,0-0.2,0c-0.1,0-0.2,0.1-0.2,0.2	c0,0.1,0.1,0.2,0.2,0.2c0.1,0,0.1,0,0.2,0c0.2,0,0.3,0,0.5,0c0.1,0,0.2-0.1,0.2-0.2C351.2,122.3,351.1,122.2,351,122.2L351,122.2z M347.9,121.7c-0.2-0.1-0.4-0.2-0.6-0.3c0,0,0,0,0,0l-16.2-8.9v0l-0.1-0.1c0,0,0,0,0,0l-0.3-0.2v0c-2.1-1-4.6-0.9-6.6,0.2	c0,0,0,0,0,0l-0.6,0.3c-0.1,0.1-0.2,0.2-0.1,0.3c0,0.1,0.1,0.1,0.2,0.1c0,0,0.1,0,0.1,0l0.3-0.1v21.7c0,0,0,0,0,0l-0.6,0.3	c-0.1,0.1-0.2,0.2-0.1,0.3c0,0.1,0.1,0.1,0.2,0.1c0,0,0.1,0,0.1,0l0.4-0.2v0l0.3-0.2c2-1.1,4.5-1.1,6.6,0l0,0l16.3,9c0,0,0,0,0,0	c0,0,0,0,0,0l0.3,0.2v0c0,0,0,0,0.1,0c0,0,0.1,0,0.1,0c0.1,0,0.2-0.1,0.2-0.1c0.1-0.1,0-0.3-0.1-0.3c-0.1,0-0.2-0.1-0.3-0.1V122	c0.1,0,0.2,0.1,0.3,0.1c0,0,0.1,0,0.1,0c0.1,0,0.2-0.1,0.2-0.1C348,121.9,348,121.8,347.9,121.7L347.9,121.7z M352.6,122	c-0.2,0.1-0.4,0.1-0.6,0.2c-0.1,0-0.2,0.1-0.2,0.3c0,0.1,0.1,0.2,0.2,0.2c0,0,0,0,0,0c0.2,0,0.4-0.1,0.7-0.2c0.1,0,0.2-0.2,0.2-0.3	C352.8,122,352.7,121.9,352.6,122L352.6,122z M349.4,122.2c-0.2,0-0.4-0.1-0.6-0.1c-0.1,0-0.3,0-0.3,0.2c0,0.1,0,0.3,0.2,0.3	c0.2,0.1,0.4,0.1,0.7,0.1c0,0,0,0,0,0c0.1,0,0.2-0.1,0.2-0.2C349.6,122.3,349.5,122.2,349.4,122.2L349.4,122.2z M354,129.7	c-0.1,0-0.2,0.1-0.2,0.2v0.7c0,0.1,0.1,0.2,0.2,0.2c0.1,0,0.2-0.1,0.2-0.2V130C354.2,129.8,354.1,129.7,354,129.7L354,129.7z M354,133c-0.1,0-0.2,0.1-0.2,0.2v0.7c0,0.1,0.1,0.2,0.2,0.2c0.1,0,0.2-0.1,0.2-0.2v-0.7C354.2,133.2,354.1,133,354,133L354,133z M354,123.1c-0.1,0-0.2,0.1-0.2,0.2v0.7c0,0.1,0.1,0.2,0.2,0.2c0.1,0,0.2-0.1,0.2-0.2v-0.7C354.2,123.2,354.1,123.1,354,123.1	L354,123.1z M354,134.7c-0.1,0-0.2,0.1-0.2,0.2v0.7c0,0.1,0.1,0.2,0.2,0.2c0.1,0,0.2-0.1,0.2-0.2v-0.7	C354.2,134.8,354.1,134.7,354,134.7L354,134.7z M354,128.1c-0.1,0-0.2,0.1-0.2,0.2v0.7c0,0.1,0.1,0.2,0.2,0.2c0.1,0,0.2-0.1,0.2-0.2	v-0.7C354.2,128.2,354.1,128.1,354,128.1L354,128.1z M354,131.4c-0.1,0-0.2,0.1-0.2,0.2v0.7c0,0.1,0.1,0.2,0.2,0.2	c0.1,0,0.2-0.1,0.2-0.2v-0.7C354.2,131.5,354.1,131.4,354,131.4L354,131.4z M354,136.4c-0.1,0-0.2,0.1-0.2,0.2v0.7	c0,0.1,0.1,0.2,0.2,0.2c0.1,0,0.2-0.1,0.2-0.2v-0.7C354.2,136.5,354.1,136.4,354,136.4L354,136.4z M354,139.7	c-0.1,0-0.2,0.1-0.2,0.2v0.7c0,0.1,0.1,0.2,0.2,0.2c0.1,0,0.2-0.1,0.2-0.2v-0.7C354.2,139.8,354.1,139.7,354,139.7L354,139.7z M354,138c-0.1,0-0.2,0.1-0.2,0.2v0.7c0,0.1,0.1,0.2,0.2,0.2c0.1,0,0.2-0.1,0.2-0.2v-0.7C354.2,138.1,354.1,138,354,138L354,138z M354,124.8c-0.1,0-0.2,0.1-0.2,0.2v0.7c0,0.1,0.1,0.2,0.2,0.2c0.1,0,0.2-0.1,0.2-0.2V125C354.2,124.9,354.1,124.8,354,124.8	L354,124.8z M354,126.4c-0.1,0-0.2,0.1-0.2,0.2v0.7c0,0.1,0.1,0.2,0.2,0.2c0.1,0,0.2-0.1,0.2-0.2v-0.7	C354.2,126.5,354.1,126.4,354,126.4L354,126.4z M354,143c-0.1,0-0.2,0.1-0.2,0.2v0.5c-0.2,0.1-0.3,0.2-0.5,0.2	c-0.1,0.1-0.2,0.2-0.1,0.3c0,0.1,0.1,0.1,0.2,0.1c0,0,0.1,0,0.1,0c0.2-0.1,0.3-0.2,0.5-0.2c0,0,0,0,0,0c0.1,0,0.2-0.1,0.2-0.2v-0.7	C354.2,143.1,354.1,143,354,143L354,143z M354,141.3c-0.1,0-0.2,0.1-0.2,0.2v0.7c0,0.1,0.1,0.2,0.2,0.2c0.1,0,0.2-0.1,0.2-0.2v-0.7	C354.2,141.4,354.1,141.3,354,141.3L354,141.3z M327.4,145.2L327.4,145.2L327.4,145.2L327.4,145.2L327.4,145.2L327.4,145.2	L327.4,145.2L327.4,145.2l-0.1-0.1h0l0,0l0,0l0,0l0,0c0,0,0,0,0,0l0,0c0,0,0,0,0,0l0,0c0,0,0,0,0,0l0,0c-0.2-0.1-0.5-0.3-0.5-0.3	c0,0-0.1,0-0.1,0c-0.1,0-0.2,0-0.2,0.1c-0.1,0.1,0,0.3,0.1,0.3l0.6,0.3c0,0,0.1,0,0.1,0c0.1,0,0.2,0,0.2-0.1	C327.5,145.4,327.5,145.2,327.4,145.2L327.4,145.2z M325.3,142.8c0,0.1,0.1,0.2,0.2,0.2s0.2-0.1,0.2-0.2v-0.7c0-0.1-0.1-0.2-0.2-0.2	s-0.2,0.1-0.2,0.2V142.8L325.3,142.8z M327.1,135.9c0-0.1-0.1-0.1-0.2-0.1c0,0-0.1,0-0.1,0l-0.6,0.3c-0.1,0.1-0.2,0.2-0.1,0.3	c0,0.1,0.1,0.1,0.2,0.1c0,0,0.1,0,0.1,0l0.6-0.3C327.1,136.2,327.1,136,327.1,135.9L327.1,135.9z M325.9,144.4c0,0-0.1,0-0.1-0.1h0	v0h0h0v0h0l0,0l0,0l0,0l0,0v-0.5c0-0.1-0.1-0.2-0.2-0.2s-0.2,0.1-0.2,0.2v0.5c0,0.2,0.1,0.3,0.2,0.4l0.1,0.1c0,0,0.1,0,0.1,0	c0.1,0,0.2,0,0.2-0.1C326.1,144.6,326,144.4,325.9,144.4L325.9,144.4z M328.8,146l-0.6-0.3c0,0-0.1,0-0.1,0c-0.1,0-0.2,0-0.2,0.1	c-0.1,0.1,0,0.3,0.1,0.3l0.6,0.3c0,0,0.1,0,0.1,0c0.1,0,0.2,0,0.2-0.1C329,146.2,328.9,146,328.8,146L328.8,146z M325.3,141.1	c0,0.1,0.1,0.2,0.2,0.2s0.2-0.1,0.2-0.2v-0.7c0-0.1-0.1-0.2-0.2-0.2s-0.2,0.1-0.2,0.2V141.1L325.3,141.1z M325.6,139.7	c0.1,0,0.2-0.1,0.2-0.2v-0.7c0-0.1-0.1-0.2-0.2-0.2s-0.2,0.1-0.2,0.2v0.7C325.3,139.6,325.4,139.7,325.6,139.7L325.6,139.7z M330.3,146.8c0,0-0.2-0.1-0.3-0.2l0,0h0l0,0l0,0l-0.2-0.1c0,0-0.1,0-0.1,0c-0.1,0-0.2,0-0.2,0.1c-0.1,0.1,0,0.3,0.1,0.3l0.6,0.3	c0,0,0.1,0,0.1,0c0.1,0,0.2,0,0.2-0.1C330.4,147,330.4,146.8,330.3,146.8L330.3,146.8z M336.8,139.8c0.1-0.1,0-0.3-0.1-0.3l-0.6-0.3	c0,0-0.1,0-0.1,0c-0.1,0-0.2,0-0.2,0.1c-0.1,0.1,0,0.3,0.1,0.3l0.6,0.3c0,0,0.1,0,0.1,0C336.7,139.9,336.8,139.9,336.8,139.8	L336.8,139.8z M336.2,149.7C336.1,149.7,336.1,149.7,336.2,149.7l-0.1-0.2c0-0.1-0.1-0.2-0.2-0.2c-0.1,0-0.2,0.1-0.2,0.2v0.2	c-0.1,0-0.1-0.1-0.1-0.1c0,0-0.1,0-0.1,0c-0.1,0-0.2,0-0.2,0.1c-0.1,0.1,0,0.3,0.1,0.3l0.4,0.2c0.1,0,0.1,0.1,0.2,0.1	c0.1,0,0.1,0,0.2,0l0.2-0.1c0.1-0.1,0.2-0.2,0.1-0.3C336.3,149.8,336.3,149.7,336.2,149.7L336.2,149.7z M337.7,149c0,0-0.1,0-0.1,0	c0,0-0.1,0-0.2,0.1l0,0c0,0,0,0,0,0l0,0h0l-0.4,0.2c-0.1,0.1-0.2,0.2-0.1,0.3c0,0.1,0.1,0.1,0.2,0.1c0,0,0.1,0,0.1,0l0.6-0.3	c0.1-0.1,0.2-0.2,0.1-0.3C337.8,149.1,337.7,149,337.7,149L337.7,149z M335.4,139c0.1-0.1,0-0.3-0.1-0.3l-0.6-0.3c0,0-0.1,0-0.1,0	c-0.1,0-0.2,0-0.2,0.1c-0.1,0.1,0,0.3,0.1,0.3l0.6,0.3c0,0,0.1,0,0.1,0C335.2,139.1,335.3,139.1,335.4,139L335.4,139z M333.9,138.2	c0.1-0.1,0-0.3-0.1-0.3l-0.6-0.3c0,0-0.1,0-0.1,0c-0.1,0-0.2,0-0.2,0.1c-0.1,0.1,0,0.3,0.1,0.3c0,0,0.3,0.2,0.5,0.3l0,0c0,0,0,0,0,0	l0,0v0l0,0l0,0l0,0l0,0l0,0c0,0,0,0,0,0l0,0c0,0,0,0,0,0l0.1,0c0,0,0.1,0,0.1,0C333.8,138.3,333.9,138.3,333.9,138.2L333.9,138.2z M334.6,149.2l-0.6-0.3c0,0-0.1,0-0.1,0c-0.1,0-0.2,0-0.2,0.1c-0.1,0.1,0,0.3,0.1,0.3l0.6,0.3c0,0,0.1,0,0.1,0c0.1,0,0.2,0,0.2-0.1	C334.8,149.4,334.7,149.3,334.6,149.2L334.6,149.2z M338.7,141.1C338.7,141.1,338.7,141.1,338.7,141.1c0-0.1,0-0.1,0-0.2	c-0.1-0.1-0.2-0.2-0.3-0.1l-0.3,0.1c-0.1,0.1-0.2,0.2-0.1,0.3c0,0.1,0.1,0.1,0.2,0.1c0,0,0.1,0,0.1,0l0.2-0.1c0,0,0,0.1,0,0.1v0.7	c0,0.1,0.1,0.2,0.2,0.2s0.2-0.1,0.2-0.2v-0.7C339,141.2,338.9,141.1,338.7,141.1L338.7,141.1z M338.7,147.7c-0.1,0-0.2,0.1-0.2,0.2	v0.6l0,0l0,0l0,0l0,0h0l0,0l0,0h0l0,0h0l0,0h0v0h0h0v0c0,0,0,0,0,0l0,0c0,0,0,0,0,0c-0.1,0.1-0.2,0.2-0.1,0.3c0,0.1,0.1,0.1,0.2,0.1	c0,0,0.1,0,0.1,0l0.1,0c0.2-0.1,0.3-0.2,0.3-0.4V148C339,147.8,338.9,147.7,338.7,147.7L338.7,147.7z M338.7,142.8	c-0.1,0-0.2,0.1-0.2,0.2v0.7c0,0.1,0.1,0.2,0.2,0.2s0.2-0.1,0.2-0.2V143C339,142.9,338.9,142.8,338.7,142.8L338.7,142.8z M338.7,144.4c-0.1,0-0.2,0.1-0.2,0.2v0.7c0,0.1,0.1,0.2,0.2,0.2s0.2-0.1,0.2-0.2v-0.7C339,144.5,338.9,144.4,338.7,144.4	L338.7,144.4z M338.7,146.1c-0.1,0-0.2,0.1-0.2,0.2v0.7c0,0.1,0.1,0.2,0.2,0.2s0.2-0.1,0.2-0.2v-0.7	C339,146.2,338.9,146.1,338.7,146.1L338.7,146.1z M338.3,140.6c0.1-0.1,0-0.3-0.1-0.3l-0.6-0.3c0,0-0.1,0-0.1,0	c-0.1,0-0.2,0-0.2,0.1c-0.1,0.1,0,0.3,0.1,0.3l0.6,0.3c0,0,0.1,0,0.1,0C338.1,140.7,338.2,140.7,338.3,140.6L338.3,140.6z M332.4,137.4c0.1-0.1,0-0.3-0.1-0.3l-0.6-0.3c0,0-0.1,0-0.1,0c-0.1,0-0.2,0-0.2,0.1c-0.1,0.1,0,0.3,0.1,0.3l0.3,0.2l0,0h0	c0.1,0.1,0.3,0.2,0.3,0.2c0,0,0.1,0,0.1,0C332.3,137.5,332.4,137.5,332.4,137.4L332.4,137.4z M331,136.6c0.1-0.1,0-0.3-0.1-0.3	l-0.6-0.3c0,0-0.1,0-0.1,0c-0.1,0-0.2,0-0.2,0.1c-0.1,0.1,0,0.3,0.1,0.3l0.6,0.3c0,0,0.1,0,0.1,0C330.9,136.7,330.9,136.7,331,136.6	L331,136.6z M331.7,147.6c0,0-0.2-0.1-0.3-0.2l-0.3-0.2c0,0-0.1,0-0.1,0c-0.1,0-0.2,0-0.2,0.1c-0.1,0.1,0,0.3,0.1,0.3l0.6,0.3	c0,0,0.1,0,0.1,0c0.1,0,0.2,0,0.2-0.1C331.9,147.8,331.8,147.6,331.7,147.6L331.7,147.6z M333.2,148.4l-0.6-0.3c0,0-0.1,0-0.1,0	c-0.1,0-0.2,0-0.2,0.1c-0.1,0.1,0,0.3,0.1,0.3l0.6,0.3c0,0,0.1,0,0.1,0c0.1,0,0.2,0,0.2-0.1C333.3,148.6,333.3,148.4,333.2,148.4	L333.2,148.4z M329.5,135.8c0.1-0.1,0-0.3-0.1-0.3l-0.6-0.3c0,0-0.1,0-0.1,0c-0.1,0-0.1,0-0.2,0.1c0,0,0,0,0,0	c0-0.1-0.1-0.1-0.2-0.1c0,0-0.1,0-0.1,0l-0.6,0.3c-0.1,0.1-0.2,0.2-0.1,0.3c0,0.1,0.1,0.1,0.2,0.1c0,0,0.1,0,0.1,0l0.6-0.3	c0,0,0,0,0.1,0c0,0.1,0.1,0.1,0.1,0.1c0,0,0.2,0.1,0.3,0.2h0c0,0,0,0,0,0l0,0c0,0,0,0,0,0l0,0l0,0l0.2,0.1c0,0,0.1,0,0.1,0	C329.4,136,329.5,135.9,329.5,135.8L329.5,135.8z M337,142l0.5-0.3c0.1-0.1,0.2-0.2,0.1-0.3c-0.1-0.1-0.2-0.2-0.3-0.1l-0.5,0.3	c-0.1,0.1-0.2,0.2-0.1,0.3c0,0.1,0.1,0.1,0.2,0.1C337,142,337,142,337,142L337,142z M336.1,142.4l0.2-0.1c0.1-0.1,0.2-0.2,0.1-0.3	c-0.1-0.1-0.2-0.2-0.3-0.1l-0.2,0.1l-0.2-0.1c-0.1-0.1-0.3,0-0.3,0.1c-0.1,0.1,0,0.3,0.1,0.3l0.2,0.1v0.2c0,0.1,0.1,0.2,0.2,0.2	c0.1,0,0.2-0.1,0.2-0.2V142.4L336.1,142.4z M335.8,147.8c-0.1,0-0.2,0.1-0.2,0.2v0.6c0,0.1,0.1,0.2,0.2,0.2c0.1,0,0.2-0.1,0.2-0.2	V148C336.1,147.9,336,147.8,335.8,147.8L335.8,147.8z M336.1,146.5c0-0.1-0.1-0.2-0.2-0.2c-0.1,0-0.2,0.1-0.2,0.2v0.6	c0,0.1,0.1,0.2,0.2,0.2c0.1,0,0.2-0.1,0.2-0.2V146.5L336.1,146.5z M336.1,145c0-0.1-0.1-0.2-0.2-0.2c-0.1,0-0.2,0.1-0.2,0.2v0.6	c0,0.1,0.1,0.2,0.2,0.2c0.1,0,0.2-0.1,0.2-0.2V145L336.1,145z M336.1,143.5c0-0.1-0.1-0.2-0.2-0.2c-0.1,0-0.2,0.1-0.2,0.2v0.6	c0,0.1,0.1,0.2,0.2,0.2c0.1,0,0.2-0.1,0.2-0.2V143.5L336.1,143.5z M334.8,141.5l-0.6-0.3c-0.1-0.1-0.3,0-0.3,0.1	c-0.1,0.1,0,0.3,0.1,0.3l0.6,0.3c0,0,0.1,0,0.1,0c0.1,0,0.2,0,0.2-0.1C335,141.7,334.9,141.5,334.8,141.5L334.8,141.5z M331.9,139.9	l-0.6-0.3c-0.1-0.1-0.3,0-0.3,0.1c-0.1,0.1,0,0.3,0.1,0.3l0.6,0.3c0,0,0.1,0,0.1,0c0.1,0,0.2,0,0.2-0.1	C332.1,140.1,332.1,140,331.9,139.9L331.9,139.9z M326.2,136.8l-0.3-0.2c-0.1-0.1-0.3,0-0.3,0.1c0,0.1,0,0.2,0,0.2c0,0,0,0,0,0	c-0.1,0-0.2,0.1-0.2,0.2v0.7c0,0.1,0.1,0.2,0.2,0.2s0.2-0.1,0.2-0.2v-0.7c0,0,0-0.1,0-0.1l0.2,0.1c0,0,0.1,0,0.1,0	c0.1,0,0.2,0,0.2-0.1C326.4,137,326.3,136.8,326.2,136.8L326.2,136.8z M329.1,138.3l-0.6-0.3c-0.1-0.1-0.3,0-0.3,0.1	c-0.1,0.1,0,0.3,0.1,0.3l0.6,0.3c0,0,0.1,0,0.1,0c0.1,0,0.2,0,0.2-0.1C329.2,138.5,329.2,138.4,329.1,138.3L329.1,138.3z M330.5,139.1l-0.6-0.3c-0.1-0.1-0.3,0-0.3,0.1c-0.1,0.1,0,0.3,0.1,0.3l0.6,0.3c0,0,0.1,0,0.1,0c0.1,0,0.2,0,0.2-0.1	C330.7,139.3,330.6,139.2,330.5,139.1L330.5,139.1z M327.6,137.5l-0.6-0.3c-0.1-0.1-0.3,0-0.3,0.1c-0.1,0.1,0,0.3,0.1,0.3l0.6,0.3	c0,0,0.1,0,0.1,0c0.1,0,0.2,0,0.2-0.1C327.8,137.7,327.7,137.6,327.6,137.5L327.6,137.5z M333.4,140.7l-0.6-0.3	c-0.1-0.1-0.3,0-0.3,0.1c-0.1,0.1,0,0.3,0.1,0.3l0.6,0.3c0,0,0.1,0,0.1,0c0.1,0,0.2,0,0.2-0.1C333.5,140.9,333.5,140.7,333.4,140.7	L333.4,140.7z" class="st0"/><path d="M38.8,120.6v20.8l6.1,4.5v-29.7L38.8,120.6L38.8,120.6z M15.2,120.6l-6.1-4.5v29.7l6.1-4.5V120.6L15.2,120.6z M38.3,120.6H15.7v20.5h22.7V120.6L38.3,120.6z M25.9,136.4h-0.8v1.8h-1.7v-1.8H20v-6.8h-1.6l2.4-6.7l2.4,6.7h-1.6v5.2h1.7v-3.4h1.7	v3.4h0.8V136.4L25.9,136.4z M35.4,138.2h-1.7v-5.9c0-0.6-0.3-1-0.8-1c-0.6,0-0.9,0.4-0.9,1.2v5.8h-1.7v-5.9c0-0.6-0.3-1-0.8-1	c-0.6,0-0.9,0.4-0.9,1.2v5.8h-1.7v-8.6h1.7v0.8h0c0.4-0.5,0.8-0.9,1.6-0.9c0.7,0,1.2,0.4,1.5,0.9c0.4-0.5,0.9-0.9,1.8-0.9	c0.9,0,1.9,0.6,1.9,2.1V138.2L35.4,138.2z M15.7,141.6l-5.7,4.3H44l-5.7-4.3H15.7L15.7,141.6z" class="st0"/><g><polygon points="109.8 121.5 109.8 123.5 106 123.5 106 138.5 109.8 138.5 109.8 140.6 115.3 140.6 115.3 121.5 109.8 121.5" class="st0"/><polygon points="156 123.4 152.3 123.4 152.3 121.3 146.6 121.3 146.6 140.6 152.3 140.6 152.3 138.6 156 138.6 156 123.4" class="st0"/><polygon points="117.2 129 144.3 129 144.3 132.7 117.2 132.7 117.2 129" class="st0"/></g><path d="M223.8,92.3c-7.3,0-13.3-6-13.3-13.3c0-7.3,6-13.3,13.3-13.3c4.1,0,8,1.9,10.5,5.2l-3,2.8	c-1.7-2.5-4.5-3.9-7.5-3.9c-5.1,0-9.2,4.1-9.2,9.2c0,5.1,4.1,9.2,9.2,9.2c2.7,0,6.5-5.8,9.6-10.4c4.1-6.2,8.1-12.1,12.8-12.1	c7.3,0,13.2,5.9,13.2,13.3c0,7.3-5.9,13.3-13.2,13.3c-4.1,0-8-1.9-10.5-5.2l3-2.9c1.7,2.5,4.5,4,7.5,4c5,0,9.1-4.1,9.1-9.2	c0-5.1-4.1-9.2-9.1-9.2c-2.6,0-6.4,5.7-9.4,10.3C232.6,86.4,228.7,92.3,223.8,92.3L223.8,92.3z" class="st0"/><path d="M244,125.9h1.2c-0.2-1.7-0.9-3.4-2-4.8l-0.8,0.8C243.3,123.1,243.8,124.4,244,125.9L244,125.9z M244.8,125	c0,0.2-0.2,0.3-0.3,0.3c-0.2,0-0.3-0.2-0.3-0.3c0-0.2,0.2-0.3,0.3-0.3C244.6,124.6,244.8,124.8,244.8,125L244.8,125z M244,123.2	c0.2,0,0.3,0.2,0.3,0.3c0,0.2-0.2,0.3-0.3,0.3c-0.2,0-0.3-0.2-0.3-0.3C243.7,123.4,243.8,123.2,244,123.2L244,123.2z M243.4,121.9	c0.2,0,0.3,0.2,0.3,0.3c0,0.2-0.2,0.3-0.3,0.3c-0.2,0-0.3-0.2-0.3-0.3C243,122.1,243.2,121.9,243.4,121.9L243.4,121.9z M242.8,129.3	h4.6v-2.5h-11.2l16-16l-1.7-1.7l-0.9,0.9l0.6,0.6l-17.8,17.8l-0.6-0.6l-0.9,0.9l1.7,1.7l2.7-2.7v1.6h4.1l-7.3,22.2h-0.8v1.8h4.1	v-1.8h-0.7l6.4-19.4l6.4,19.4h-0.7v1.8h4.1v-1.8h-0.8L242.8,129.3L242.8,129.3z M231.1,127.2c0,0,0.1,0,0.1,0c0.2,0,0.4,0,0.6-0.1	c0,0,0,0,0.1,0c0.1-0.1,0.3-0.1,0.4-0.2c0.2-0.1,0.3-0.2,0.4-0.3l4.8-4.8c0.8-0.8,0.8-2.2,0-3c-0.8-0.8-2.2-0.8-3,0l-2.9,2.9	l-2.8-4.2c-0.5-0.8-1.4-1.8-3.2-1.9c-1.9-0.1-3.3,0.9-3.9,2.7l-3.6,9.9c-0.4,1.1-0.5,2.3-0.5,2.6v20.1c0,1.3,1.1,2.4,2.4,2.4	c0.6,0,1.1-0.2,1.5-0.6c0.2,0.2,0.5,0.4,0.9,0.5c0.2,0.1,0.5,0.1,0.7,0.1c1,0,2-0.7,2.3-1.7l3-9.7c0.1-0.4,0.1-0.9,0-1.3l-2.8-10.5	l2.2-6l1.5,2.2C229.8,126.8,230.4,127.2,231.1,127.2C231.1,127.2,231.1,127.2,231.1,127.2L231.1,127.2z M222.5,144.7V137l1.1,4.1	L222.5,144.7L222.5,144.7z M228.9,115.6c2,0,3.5-1.6,3.5-3.5c0-2-1.6-3.5-3.5-3.5c-2,0-3.5,1.6-3.5,3.5	C225.4,114,227,115.6,228.9,115.6L228.9,115.6z" class="st0"/><g><path d="M13.9,180.6c-1.4,0-2.9-0.3-4.3-0.8c-0.6-0.2-1.1-0.4-1.7-0.7v17c0.5,0.3,1.1,0.5,1.7,0.7 c1.4,0.5,2.9,0.8,4.3,0.8V180.6L13.9,180.6z" class="st0"/><path d="M13.9,180.6c-1.4,0-2.9-0.3-4.3-0.8c-0.6-0.2-1.1-0.4-1.7-0.7v17c0.5,0.3,1.1,0.5,1.7,0.7 c1.4,0.5,2.9,0.8,4.3,0.8V180.6L13.9,180.6z" class="st3"/><polygon points="46.1 189 44.1 190 37.9 188.6 39.9 187.5 46.1 189" class="st0"/><polygon points="46.1 189 44.1 190 37.9 188.6 39.9 187.5 46.1 189" class="st4"/><polygon points="37.2 189.4 35.4 187.1 41.4 187 37.2 189.4" class="st0"/><polygon points="37.2 189.4 35.4 187.1 41.4 187 37.2 189.4" class="st5"/><polygon points="24.6 196 26.6 194.9 32.8 196.4 30.8 197.5 24.6 196" class="st0"/><polygon points="24.6 196 26.6 194.9 32.8 196.4 30.8 197.5 24.6 196" class="st4"/><polygon points="33.4 195.6 35.3 197.8 29.2 198 33.4 195.6" class="st0"/><polygon points="33.4 195.6 35.3 197.8 29.2 198 33.4 195.6" class="st5"/><path d="M36.5,168.6c-0.9,0.3-2,0.8-3.1,1.4c-1.2,0.7-2.2,1.3-2.9,1.9v17c0.7-0.5,1.7-1.2,2.9-1.9 c1.1-0.6,2.1-1.1,3.1-1.4c3.9-1.3,6.3-1,6.3-1v-16.6C42.8,168.1,40.3,167.3,36.5,168.6L36.5,168.6z" class="st0"/><path d="M36.5,168.6c-0.9,0.3-2,0.8-3.1,1.4c-1.2,0.7-2.2,1.3-2.9,1.9v17c0.7-0.5,1.7-1.2,2.9-1.9 c1.1-0.6,2.1-1.1,3.1-1.4c3.9-1.3,6.3-1,6.3-1v-16.6C42.8,168.1,40.3,167.3,36.5,168.6L36.5,168.6z" class="st3"/><path d="M29,173.1c-0.5,0.4-0.9,0.9-1.3,1.3c-1.1,1.2-2.3,2.4-5.4,4.2c-0.6,0.4-1.5,0.7-2.4,1.1 c-1.3,0.5-2.9,0.9-4.7,1v17c1.7-0.1,3.4-0.5,4.7-1c1-0.3,1.8-0.7,2.4-1.1c3.1-1.8,4.2-3,5.4-4.2c0.4-0.4,0.8-0.8,1.3-1.3V173.1 L29,173.1z" class="st0"/><path d="M29,173.1c-0.5,0.4-0.9,0.9-1.3,1.3c-1.1,1.2-2.3,2.4-5.4,4.2c-0.6,0.4-1.5,0.7-2.4,1.1 c-1.3,0.5-2.9,0.9-4.7,1v17c1.7-0.1,3.4-0.5,4.7-1c1-0.3,1.8-0.7,2.4-1.1c3.1-1.8,4.2-3,5.4-4.2c0.4-0.4,0.8-0.8,1.3-1.3V173.1 L29,173.1z" class="st3"/></g><g><path d="M185.2,168.9h-4.4c-1.4,0-2.5,1.1-2.5,2.5v3.8h9.4v-3.8C187.7,170.1,186.6,168.9,185.2,168.9L185.2,168.9z M178.3,181c0,1.4,1.1,2.5,2.5,2.5h4.4c1.4,0,2.5-1.1,2.5-2.5v-0.3h-9.4V181L178.3,181z M193.6,163.4h-21.2v39h21.2V163.4 L193.6,163.4z M178.5,189.7h-2.7v2c0,0.5-0.4,0.8-0.8,0.8c-0.5,0-0.8-0.4-0.8-0.8v-3.6c0-0.5,0.4-0.8,0.8-0.8 c0.4,0,0.8,0.4,0.8,0.8h2.7c0.5,0,0.8,0.4,0.8,0.8C179.4,189.3,179,189.7,178.5,189.7L178.5,189.7z M189.4,181 c0,2.3-1.9,4.2-4.2,4.2h-4.4c-2.3,0-4.2-1.9-4.2-4.2v-9.5c0-2.3,1.9-4.2,4.2-4.2h4.4c2.3,0,4.2,1.9,4.2,4.2V181L189.4,181z M178.3,179h9.4v-2h-9.4V179L178.3,179z M196.3,205.1h-26.5v-44.4h26.5V205.1L196.3,205.1z" class="st0"/></g><path d="M131.3,35.3v1L154,24.6v-1L131.3,35.3L131.3,35.3z M108,24.6l22.7,11.7v-1L108,23.6V24.6L108,24.6z M131.3,38	L154,26.2v-1L131.3,37V38L131.3,38z M108,26.2L130.7,38v-1L108,25.2V26.2L108,26.2z M131.3,39.6L154,27.9v-1l-22.7,11.7V39.6	L131.3,39.6z M108,27.9l22.7,11.7v-1L108,26.9V27.9L108,27.9z M131.3,41.3L154,29.5v-1l-22.7,11.7V41.3L131.3,41.3z M108,29.5	l22.7,11.7v-1L108,28.5V29.5L108,29.5z M131.3,42.9L154,31.2v-1l-22.7,11.7V42.9L131.3,42.9z M108,31.2l22.7,11.7v-1L108,30.2V31.2	L108,31.2z M131,29.9c-5.6,0-9.3-0.5-11.6-1.1l11.6,6l11.6-6C140.3,29.4,136.6,29.9,131,29.9L131,29.9z M131,22.4c0,0,7,7.6,14.3,5	L154,23l-23-11.9L108,23l8.5,4.4C123.5,29.8,131,22.4,131,22.4L131,22.4z M121.3,28.5c2.2,0.4,5.3,0.7,9.7,0.7c4,0,6.9-0.3,9.1-0.6	c-4.4-0.8-8-4-9.2-5.2C129.7,24.5,125.8,27.7,121.3,28.5L121.3,28.5z" class="st0"/><path d="M183,20.6V43h2.2V26.2h-1.4l1.7-4.7l1.7,4.7h-1.4V43h12.3V20.6H183L183,20.6z M183,11h-15.1V43h2.1V16.7h-1.4	l1.7-4.7l1.7,4.7h-1.4V43h4.1V14.6h8.2V11L183,11z M190.6,15.2h-15.1V43h2.2V20.8h-1.4L178,16l1.7,4.7h-1.4V43h4V20h8.3V15.2	L190.6,15.2z" class="st0"/><path d="M303.2,78.2l-1.5-0.3l0,0c0-2.8-1.3-5.3-3.3-7.3c1.3-2.2,3.9-3.3,2.2-3.5c-1.4-0.2-3.9,0.1-5.6,1.2	c-2.2-1.1-4.9-1.8-7.8-1.8c-5.5,0-10.2,2.4-12.7,5.9c-1.7-0.7-2.8-1.9-2.7-2.7c0-0.4,0.1-0.6,0.7-0.8c0.3-0.1,0.5-0.1,0.7-0.1	c0.7,0,0.8,0.4,0.8,0.5l0,0c0,0,0,0-0.1,0c0,0-0.1,0-0.2,0c-0.4-0.1-0.7,0.2-0.8,0.6c-0.1,0.4,0.2,0.7,0.6,0.8c0.1,0,0.3,0,0.4,0	c0.4,0,0.8-0.1,1.1-0.4c0.3-0.3,0.4-0.6,0.4-1c0-1-0.9-1.9-2.2-1.9c-0.3,0-0.7,0.1-1.1,0.2c-1.1,0.3-1.9,0.8-1.9,2.4	c0,1.6,1.5,3.2,3.3,4.3c-0.5,1.1-0.7,2.3-0.7,3.6c0,3.3,1.8,6.3,4.7,8.4l-0.8,5.1h5.8l0.8-2.5c1.3,0.3,2.6,0.5,4,0.5	c1.2,0,2.4-0.1,3.5-0.3l0.4,2.4h5.8L296,87c1.6-1,2.9-2.2,3.9-3.6c0.1-0.1,0-0.1,0-0.1l2.3,0.4c0.4,0.1,0.8-0.2,0.9-0.6l0.7-4.1	C303.9,78.7,303.6,78.3,303.2,78.2L303.2,78.2z M293.8,70.3c-0.2,0.3-0.6,0.5-0.9,0.3c-1.6-0.8-3.6-1.2-5.6-1.2	c-2.2,0-4.2,0.5-5.9,1.3c-0.1,0-0.2,0.1-0.3,0.1c-0.3,0-0.5-0.1-0.6-0.4c-0.2-0.3,0-0.8,0.3-0.9c1.9-0.9,4.1-1.5,6.5-1.5	c2.3,0,4.4,0.5,6.2,1.4h0C293.8,69.5,293.9,70,293.8,70.3L293.8,70.3z M297.9,76.5c-0.7,0-1.2-0.5-1.2-1.2c0-0.7,0.5-1.2,1.2-1.2	c0.7,0,1.2,0.5,1.2,1.2C299.1,76,298.5,76.5,297.9,76.5L297.9,76.5z" class="st0"/><g><path d="M297.2,43.6c0,1.2-0.9,2.1-2.1,2.1h-20.8c-1.2,0-2.1-0.9-2.1-2.1l2.1-6.4c0-1.2,0.9-2.1,2.1-2.1h18.8 c1.1,0,2.1,0.9,2.1,2.1V43.6L297.2,43.6z" class="st0"/><polygon points="276.9 32.1 295.5 32.1 295.5 33.2 276.9 33.2 276.9 32.1" class="st0"/><path d="M288.6,42.9c-0.8,0.2-1.7-0.3-1.9-1.1c-0.2-0.8,0.3-1.7,1.1-1.9c7.4-1.8,12.2-8.4,10.6-14.5 c-0.9-3.5-3.6-6.3-7.6-7.6c-0.8-0.3-1.3-1.1-1-2c0.2-0.8,1.1-1.3,1.9-1c4.9,1.6,8.5,5.3,9.6,9.8C303.4,32.4,297.6,40.7,288.6,42.9 L288.6,42.9z" class="st0"/><polygon points="288.8 24.9 284.8 23.3 288.8 13.4 292.8 15 288.8 24.9" class="st0"/><polygon points="287.8 27.9 283.8 26.2 284.3 24.9 288.4 26.5 287.8 27.9" class="st0"/><polygon points="293.7 13.4 289.7 11.7 290.2 10.4 294.3 12 293.7 13.4" class="st0"/><polygon points="292.8 11.6 291.5 11.1 292.6 8.4 293.9 8.9 292.8 11.6" class="st0"/></g><g><path d="M35.4,61.5c0,0-1.1-3.6-3-3.6c-2.3,0-8.6,0-10.6,0c-2,0-3.1,3.5-3.1,3.5l-5.8,15.9h28.2L35.4,61.5L35.4,61.5z" class="st0"/><path d="M12.8,79.2v1.7h12.5v16.1c-2,0-3.9,0-5.3,0c-3.5,0-3.5,3.2-3.5,3.2h20.9c0,0,0-3.2-3.5-3.2c-1.4,0-3.3,0-5.3,0 V80.8h3.8v6.9h1.7v-6.9h7.1v-1.7H12.8L12.8,79.2z" class="st0"/></g><g><path d="M79,76.9c-7.3,0-13.1,8.1-13.1,18c0,0.3,0,0.7,0,1h26.3c0-0.3,0-0.7,0-1C92.1,85,86.2,76.9,79,76.9L79,76.9z M79.1,75.1c3.7,0,6.6-2.9,6.6-6.5c0-3.6-3-6.5-6.6-6.5c-3.7,0-6.6,2.9-6.6,6.5C72.5,72.2,75.4,75.1,79.1,75.1L79.1,75.1z" class="st0"/><path d="M95.2,83.2c-0.6,0-1.3,0.1-1.8,0.3C95,86.7,96,90.7,96,94.9c0,0.3,0,0.7,0,1h8c0-0.2,0-0.4,0-0.7 C103.9,88.6,100,83.2,95.2,83.2L95.2,83.2z M99.7,77.7c0-2.4-2-4.3-4.4-4.3c-2.4,0-4.4,1.9-4.4,4.3s2,4.3,4.4,4.3 C97.7,82,99.7,80.1,99.7,77.7L99.7,77.7z" class="st0"/><path d="M62.8,83.2c0.6,0,1.3,0.1,1.8,0.3C63,86.7,62,90.7,62,94.9c0,0.3,0,0.7,0,1h-8c0-0.2,0-0.4,0-0.7 C54.1,88.6,58,83.2,62.8,83.2L62.8,83.2z M58.3,77.7c0-2.4,2-4.3,4.4-4.3c2.4,0,4.4,1.9,4.4,4.3s-2,4.3-4.4,4.3 C60.3,82,58.3,80.1,58.3,77.7L58.3,77.7z" class="st0"/></g><path d="M358,69.9C358,69.9,358,69.9,358,69.9C357.9,69.8,357.9,69.8,358,69.9C357.9,69.8,357.9,69.8,358,69.9	C357.9,69.8,357.9,69.8,358,69.9l-23.1-8c0,0,0,0,0,0c0,0,0,0,0,0c0,0,0,0,0,0c0,0,0,0,0,0l-14.6,5.1c0,0,0,0,0,0c0,0,0,0,0,0	c0,0,0,0,0,0c0,0,0,0,0,0c0,0,0,0.1,0,0.1v21c0,0.1,0,0.1,0.1,0.2l23,8c0,0,0,0,0.1,0c0,0,0,0,0.1,0l14.6-5.1c0.1,0,0.1-0.1,0.1-0.2	L358,69.9C358,69.9,358,69.9,358,69.9L358,69.9z M335,81.9v-8.6l7.3,2.5v8.6L335,81.9L335,81.9z M342.3,74.9v0.6l-21.9-7.6v-0.6	L342.3,74.9L342.3,74.9z M343,75.1v0.6l-0.4-0.1V75L343,75.1L343,75.1z M320.3,68.3l14.3,4.9v8.7l-2.5,0.9l-11.8,4.1V68.3	L320.3,68.3z M342.6,94.6V76l0.4,0.1v18.7l0,0L342.6,94.6L342.6,94.6z M343.8,94.6l-0.4,0.1V76.1l0.4-0.1V94.6L343.8,94.6z M343.4,75.8v-0.6l0.4-0.1v0.6L343.4,75.8L343.4,75.8z M344.1,74.9l13.5-4.7v0.6l-13.5,4.7V74.9L344.1,74.9z M357.3,70l-14.1,4.9	L335,72v-9.8L357.3,70L357.3,70z M334.6,71.9l-14-4.8l14-4.8V71.9L334.6,71.9z M343,95.8l-22.7-7.8v-0.6l22.1,7.6c0,0,0,0,0,0	l0.4,0.1l0.2,0.1V95.8L343,95.8z M357.7,90.8l-14.3,4.9v-0.6l0.6-0.2c0,0,0,0,0,0l13.6-4.7V90.8L357.7,90.8z M344.1,85v-9.2	l13.5-4.7v18.5L344.1,85L344.1,85z" class="st0"/><g><polygon points="85.8 139.7 86.4 140.2 88.6 140.2 88.1 139.7 85.8 139.7" class="st0"/><polygon points="93 145.8 93.6 146.3 95.9 146.3 95.3 145.8 93 145.8" class="st0"/><g><path d="M88.4,116.7v1.9l11.4,9.5V146l1.4,1.2v-19.9L88.4,116.7L88.4,116.7z M85.7,138l12.8,10.6v-19.9l-12.8-10.6 V138L85.7,138z" class="st0"/><path d="M79.1,126c0-4.6-5.7-5.2-11.7-5.2c-6,0-10.2-0.8-11.4-4.2v16.5c0,8.3,8.9,5.6,15.1,7.1v-10.7 C71,129.5,79.1,130.5,79.1,126L79.1,126z M61.1,118.9v-6.3c-1.9,0-4.9,0.8-4.9,2.7C56.1,117.3,59.1,118.9,61.1,118.9L61.1,118.9z M72.4,131v17.1c0,0,6.1,0,7.6-3.7v-17.9C79.7,131,72.4,131,72.4,131L72.4,131z" class="st0"/></g></g><path d="M204,113.3l-0.5-0.7h-34.5v16.2l6,4.5h-12.3l-0.5,0.7c-3.2,4.4-3.2,9.9,0,14.6l0.5,0.8h34.1v-16.2l-5.9-4.5	h12.8l0.5-0.8C207.2,123.1,207.2,117.7,204,113.3L204,113.3z M193,145.8h-3.8v-5.9H187v5.9h-4.3V143h-2.2v2.7h-4.3v-5.9H174v5.9	h-4.3V143h-2.2v2.7h-2.9c-1.7-3-1.7-6.2,0-8.9H193V145.8L193,145.8z M201.5,125.1h-3.7v-5.9h-2.2v5.9h-4.3v-2.7h-2.2v2.7h-4.3v-5.9	h-2.2v5.9h-4.3v-2.7h-2.2v2.7h-3.6v-8.9h29.1C203.2,118.9,203.2,122.1,201.5,125.1L201.5,125.1z" class="st0"/><path d="M194.5,75.2c0-4.1-2.2-7.7-5.4-9.8v-3.1c0-1-0.8-1.8-1.8-1.8h-8.5c-1,0-1.8,0.8-1.8,1.8v3.1	c-3.3,2-5.4,5.7-5.4,9.8c0,5.9,4.4,10.7,10.1,11.4c0.2,1.5,2,2.7,2.5,3.1c0.6,0.5,1,1.3,1,2.2c0,1.6-1.3,2.8-2.8,2.8	c-1.4,0-2.9-1.1-2.9-2.5c0-0.7-0.5-0.9-1-0.9c-0.5,0-1,0.3-1,1c0,2.9,2.4,5.3,5.3,5.3c2.9,0,5.3-2.4,5.3-5.3c0-1.5-0.7-2.9-1.7-3.9	c-0.6-0.5-1.8-1.2-2.2-1.7C190,86,194.5,81.1,194.5,75.2L194.5,75.2z M178.3,62.3c0-0.3,0.2-0.5,0.5-0.5h8.5c0.3,0,0.5,0.2,0.5,0.5	v2.4c0,0-0.1,0-0.1,0c-0.1-0.1-0.2-0.1-0.4-0.1c-0.1,0-0.1,0-0.2-0.1c-0.1-0.1-0.3-0.1-0.4-0.1c0,0-0.1,0-0.1,0	c-0.2-0.1-0.3-0.1-0.5-0.1c0,0-0.1,0-0.1,0c-0.2,0-0.3-0.1-0.5-0.1c0,0,0,0-0.1,0c-0.2,0-0.4-0.1-0.5-0.1c0,0,0,0,0,0	c-0.2,0-0.4-0.1-0.6-0.1c0,0,0,0,0,0c-0.2,0-0.4,0-0.5,0c0,0,0,0-0.1,0c-0.2,0-0.4,0-0.6,0c-0.2,0-0.4,0-0.6,0c0,0,0,0-0.1,0	c-0.2,0-0.4,0-0.5,0c0,0,0,0,0,0c-0.2,0-0.4,0-0.6,0.1c0,0,0,0,0,0c-0.2,0-0.4,0.1-0.6,0.1c0,0,0,0-0.1,0c-0.2,0-0.4,0.1-0.5,0.1	c0,0-0.1,0-0.1,0c-0.2,0-0.3,0.1-0.5,0.1c0,0-0.1,0-0.1,0c-0.1,0-0.3,0.1-0.4,0.2c-0.1,0-0.1,0-0.2,0.1c-0.1,0-0.2,0.1-0.4,0.2	c0,0-0.1,0-0.1,0V62.3L178.3,62.3z M188.1,81.3l1.5,1.5c-1.6,1.4-3.7,2.3-5.9,2.5v-2.2c0-0.1-0.1-0.2-0.2-0.2l-1,0	c-0.1,0-0.2,0.1-0.2,0.2v2.2c-2.3-0.2-4.3-1.1-5.9-2.5l1.5-1.5c0.1-0.1,0.1-0.2,0-0.3l-0.7-0.7c-0.1-0.1-0.2-0.1-0.3,0l-1.5,1.5	c-1.4-1.6-2.3-3.7-2.5-5.9h2.2c0.1,0,0.2-0.1,0.2-0.2v-1c0-0.1-0.1-0.2-0.2-0.2h-2.2c0.2-3.5,2.3-6.5,5.2-8.1	c0.1-0.1,0.3-0.1,0.4-0.2c0,0,0.1,0,0.1-0.1c0.2-0.1,0.4-0.2,0.6-0.3c0,0,0,0,0.1,0c0.2-0.1,0.4-0.1,0.5-0.2c0,0,0.1,0,0.1,0	c0.2-0.1,0.4-0.1,0.6-0.2c0,0,0,0,0,0c0.4-0.1,0.8-0.2,1.2-0.2c0,0,0.1,0,0.1,0c0.2,0,0.3,0,0.5,0c0,0,0,0,0.1,0v2.2	c0,0.1,0.1,0.2,0.2,0.2h1c0.1,0,0.2-0.1,0.2-0.2V65c0,0,0,0,0.1,0c0.2,0,0.3,0,0.5,0c0,0,0.1,0,0.1,0c0.4,0.1,0.8,0.1,1.2,0.2	c0,0,0,0,0,0c0.2,0.1,0.4,0.1,0.6,0.2c0,0,0.1,0,0.1,0c0.2,0.1,0.4,0.1,0.5,0.2c0,0,0,0,0.1,0c0.2,0.1,0.4,0.2,0.6,0.3	c0,0,0.1,0,0.1,0.1c0.1,0.1,0.3,0.1,0.4,0.2c0.6,0.3,1.2,0.7,1.7,1.2l-1.5,1.5c-0.1,0.1-0.1,0.2,0,0.3l0.7,0.7	c0.1,0.1,0.2,0.1,0.3,0l1.5-1.5c1.4,1.6,2.3,3.7,2.5,5.9h-2.2c-0.1,0-0.2,0.1-0.2,0.2v1c0,0.1,0.1,0.2,0.2,0.2h2.2	c-0.2,2.3-1.1,4.3-2.5,5.9l-1.5-1.5c-0.1-0.1-0.2-0.1-0.3,0l-0.7,0.7C188,81,188,81.2,188.1,81.3L188.1,81.3z M183,73.5	c-0.9,0-1.6,0.7-1.6,1.6s0.7,1.6,1.6,1.6c0.9,0,1.6-0.7,1.6-1.6S183.9,73.5,183,73.5L183,73.5z M176.7,68.8l4.1,5.7	c0.2-0.8,0.8-1.4,1.5-1.6L176.7,68.8L176.7,68.8z" class="st0"/><g><polygon points="124.9 168.1 115.6 172.6 115.6 203 124.9 198.5 124.9 168.1" class="st0"/><polygon points="146.4 162.9 137.1 167.4 137.1 197.8 146.4 193.2 146.4 162.9" class="st0"/><path d="M136.5,198.1c-3.7,1.8-7.3-1.8-11,0c0-10.1,0-20.3,0-30.4c3.7-1.8,7.3,1.8,11,0 C136.5,177.8,136.5,188,136.5,198.1L136.5,198.1z" class="st0"/></g><g><path d="M27,274c-15.1,0-23,11.1-23,12.9s7.9,12.9,23,12.9c15.1,0,23-11.1,23-12.9S42.1,274,27,274L27,274z M27,296.7 c-5.6,0-10.2-4.4-10.2-9.9c0-5.5,4.6-9.9,10.2-9.9c5.6,0,10.2,4.4,10.2,9.9C37.2,292.3,32.6,296.7,27,296.7L27,296.7z M27,286.8 c-0.9-1,1.5-4.9,0-4.9c-2.8,0-5.1,2.2-5.1,4.9c0,2.7,2.3,4.9,5.1,4.9c2.8,0,5.1-2.2,5.1-4.9C32.1,285.6,27.8,287.7,27,286.8 L27,286.8z" class="st0"/></g><g><path d="M88.2,295.4l0.9,3.5h2.4l-0.9-3.5H88.2L88.2,295.4z M59.6,283.9v6.9c0,1.3,0.5,2.5,1.2,3.4v1.9 c0,0.3,0.2,0.5,0.5,0.5h5.2l0.4-1.3h-2.7c-1,0-2-0.4-2.7-1.1c-0.9-0.8-1.4-2.1-1.4-3.4c0,0,0-5.9,0-6.4c0.5,0,37,0,37,0 s0.4,0,0.7,0c0,0.5,0,6.4,0,6.4c0,1.4-0.5,2.6-1.4,3.4c-0.7,0.7-1.7,1.1-2.7,1.1h-2.7l0.4,1.3h5.2c0.3,0,0.5-0.2,0.5-0.5v-1.9 c0.8-0.9,1.2-2.1,1.2-3.4v-6.9H59.6L59.6,283.9z M60.8,291.3c0,1.3,0.7,2.4,1.7,2.9c0.5,0.3,1,0.4,1.6,0.4h4.5V291 c0-0.3,0.2-0.5,0.5-0.5h19.6c0.3,0,0.5,0.2,0.5,0.5v3.7h4.5c0.6,0,1.1-0.2,1.6-0.4c1-0.6,1.7-1.7,1.7-2.9v-5H60.8V291.3L60.8,291.3 z M71.8,274.4h14.3v9.1h3.1v-8.3h-2.6v-1.2H71.4v1.2h-2.6v8.3h3.1V274.4L71.8,274.4z M60.8,284.9v1h5.7v-1H60.8L60.8,284.9z M97.2,284.9h-5.7v1h5.7V284.9L97.2,284.9z M67,284.9v1h24v-1H67L67,284.9z M67.4,295.4l-0.9,3.5h2.4l0.9-3.5H67.4L67.4,295.4z M86.2,291.2c0,0,1.9,7.6,2.1,8.1H69.7c0.1-0.5,2.1-8.1,2.1-8.1h-0.5l-2.2,8.6h19.7l-2.2-8.6H86.2L86.2,291.2z" class="st0"/></g><g><path d="M175.5,295.9c-1.5-2.1-3.8-4.8-6.2-6.2c-0.9,2.1-1.2,3.4-1.2,6c3.1,2.1,7.6,6.5,9.2,10.6 c0.6-3.4,1.4-6.6,2.5-9.8c3.7-11.3,9.9-21.2,17.9-28.6C188.5,273.2,180.6,285.3,175.5,295.9L175.5,295.9z" class="st0"/><path d="M175.5,295.9c-1.5-2.1-3.8-4.8-6.2-6.2c-0.9,2.1-1.2,3.4-1.2,6c3.1,2.1,7.6,6.5,9.2,10.6 c0.6-3.4,1.4-6.6,2.5-9.8c3.7-11.3,9.9-21.2,17.9-28.6C188.5,273.2,180.6,285.3,175.5,295.9L175.5,295.9z" class="st6"/><path d="M191.2,290.3c-2-1.1-5,0.2-6.6,3.1c-1.6,2.8-1.2,6.1,0.8,7.2c2,1.1,5-0.2,6.6-3.1 C193.6,294.7,193.2,291.5,191.2,290.3L191.2,290.3z M191.2,296.3c-0.8,1.5-2.4,2.2-3.5,1.6c-1.1-0.6-1.3-2.3-0.4-3.8 c0.8-1.5,2.4-2.2,3.5-1.6C191.8,293.1,192,294.8,191.2,296.3L191.2,296.3z" class="st0"/><path d="M191.2,290.3c-2-1.1-5,0.2-6.6,3.1c-1.6,2.8-1.2,6.1,0.8,7.2c2,1.1,5-0.2,6.6-3.1 C193.6,294.7,193.2,291.5,191.2,290.3L191.2,290.3z M191.2,296.3c-0.8,1.5-2.4,2.2-3.5,1.6c-1.1-0.6-1.3-2.3-0.4-3.8 c0.8-1.5,2.4-2.2,3.5-1.6C191.8,293.1,192,294.8,191.2,296.3L191.2,296.3z" class="st7"/><path d="M184.2,267.7c-2-1.1-5,0.2-6.6,3.1c-1.6,2.8-1.2,6.1,0.8,7.2c2,1.1,5-0.2,6.6-3.1 C186.6,272.1,186.2,268.9,184.2,267.7L184.2,267.7z M184.2,273.7c-0.8,1.5-2.4,2.2-3.5,1.6c-1.1-0.6-1.3-2.3-0.4-3.8 c0.8-1.5,2.4-2.2,3.5-1.6C184.8,270.5,185,272.2,184.2,273.7L184.2,273.7z" class="st0"/><path d="M184.2,267.7c-2-1.1-5,0.2-6.6,3.1c-1.6,2.8-1.2,6.1,0.8,7.2c2,1.1,5-0.2,6.6-3.1 C186.6,272.1,186.2,268.9,184.2,267.7L184.2,267.7z M184.2,273.7c-0.8,1.5-2.4,2.2-3.5,1.6c-1.1-0.6-1.3-2.3-0.4-3.8 c0.8-1.5,2.4-2.2,3.5-1.6C184.8,270.5,185,272.2,184.2,273.7L184.2,273.7z" class="st7"/></g><g><polygon points="144.2 283.4 150.3 281.1 144.2 279.1 138 281.1 144.2 283.4" class="st0"/><polygon points="144.2 283.4 150.3 281.1 144.2 279.1 138 281.1 144.2 283.4" class="st8"/><polygon points="138 282.1 138 289.6 143.6 293.7 143.6 284.2 138 282.1" class="st0"/><polygon points="138 282.1 138 289.6 143.6 293.7 143.6 284.2 138 282.1" class="st8"/><polygon points="144.7 284.2 144.7 293.7 150.3 289.6 150.3 282.1 144.7 284.2" class="st0"/><polygon points="144.7 284.2 144.7 293.7 150.3 289.6 150.3 282.1 144.7 284.2" class="st8"/><path d="M144,295.2l-3.8-2.7c-0.8,5-5.1,8.9-10.4,8.9c-1.8,0-3.6-0.5-5.1-1.3l2.8-2.6l-9.2-2.1l1.6,9.1l2.4-2.2 c2.7,2.6,6.4,4.1,10.5,4.1c8.1,0,14.8-6.3,15.3-14.2L144,295.2L144,295.2z" class="st0"/><path d="M144,295.2l-3.8-2.7c-0.8,5-5.1,8.9-10.4,8.9c-1.8,0-3.6-0.5-5.1-1.3l2.8-2.6l-9.2-2.1l1.6,9.1l2.4-2.2 c2.7,2.6,6.4,4.1,10.5,4.1c8.1,0,14.8-6.3,15.3-14.2L144,295.2L144,295.2z" class="st8"/><polygon points="117.9 283.8 124 281.6 117.9 279.6 111.7 281.6 117.9 283.8" class="st0"/><polygon points="117.9 283.8 124 281.6 117.9 279.6 111.7 281.6 117.9 283.8" class="st8"/><path d="M143.9,278.2l-1.2-9.1l-2.4,2.2c-2.7-2.6-6.4-4.1-10.5-4.1c-7.4,0-13.5,5.4-15,12.2l3.2-1l4.8,1.6 c1.3-4.3,5.3-7.7,10.1-7.7c1.8,0,3.6,0.5,5.1,1.3l-2.8,2.6L143.9,278.2L143.9,278.2z" class="st0"/><path d="M143.9,278.2l-1.2-9.1l-2.4,2.2c-2.7-2.6-6.4-4.1-10.5-4.1c-7.4,0-13.5,5.4-15,12.2l3.2-1l4.8,1.6 c1.3-4.3,5.3-7.7,10.1-7.7c1.8,0,3.6,0.5,5.1,1.3l-2.8,2.6L143.9,278.2L143.9,278.2z" class="st8"/><polygon points="111.7 282.5 111.7 290 117.3 294.1 117.3 284.7 111.7 282.5" class="st0"/><polygon points="111.7 282.5 111.7 290 117.3 294.1 117.3 284.7 111.7 282.5" class="st8"/><polygon points="118.4 284.7 118.4 294.1 124 290 124 282.5 118.4 284.7" class="st0"/><polygon points="118.4 284.7 118.4 294.1 124 290 124 282.5 118.4 284.7" class="st8"/></g><g><path d="M336.7,244.1c0,2.1-1.7,3.7-3.7,3.7c-2.1,0-3.7-1.7-3.7-3.7c0-2.1,1.7-3.7,3.7-3.7 C335,240.4,336.7,242.1,336.7,244.1L336.7,244.1z" class="st0"/><path d="M336.7,244.1c0,2.1-1.7,3.7-3.7,3.7c-2.1,0-3.7-1.7-3.7-3.7c0-2.1,1.7-3.7,3.7-3.7 C335,240.4,336.7,242.1,336.7,244.1L336.7,244.1z" class="st9"/><polygon points="334 243.7 332 243.7 332 230.9 334 230.9 334 243.7" class="st0"/><polygon points="334 243.7 332 243.7 332 230.9 334 230.9 334 243.7" class="st10"/><path d="M341,244.3c-1.1-0.7-2.3-1.2-3.6-1.5c0.1,0.4,0.2,0.8,0.2,1.3c0,1.1-0.4,2.1-1,2.9c0.8,0.3,1.5,0.7,2.2,1.2 c1.7,1.2,3,2.8,3.8,4.8c0.4-1.9,0.9-3.7,1.6-5.5c2.4-6.3,6.4-11.8,11.6-16C349.6,234.4,344.6,238.9,341,244.3L341,244.3z" class="st0"/><path d="M341,244.3c-1.1-0.7-2.3-1.2-3.6-1.5c0.1,0.4,0.2,0.8,0.2,1.3c0,1.1-0.4,2.1-1,2.9c0.8,0.3,1.5,0.7,2.2,1.2 c1.7,1.2,3,2.8,3.8,4.8c0.4-1.9,0.9-3.7,1.6-5.5c2.4-6.3,6.4-11.8,11.6-16C349.6,234.4,344.6,238.9,341,244.3L341,244.3z" class="st10"/><path d="M338.2,248.9C338.2,248.9,338.2,248.9,338.2,248.9c-1.3,1.4-3.2,2.3-5.3,2.3c-3.9,0-7.1-3.2-7.1-7.1 c0-2.4,1.2-4.6,3.2-5.9l0.5-0.3V222c0-1.9,1.5-3.4,3.4-3.4c1.9,0,3.4,1.5,3.4,3.4v15.9l0.5,0.3c1.6,1.1,2.7,2.8,3.1,4.7 c0.3,0.1,0.5,0.2,0.8,0.4c0.3-0.5,0.7-1,1.1-1.4c-0.5-2-1.7-3.7-3.3-5V222c0-3-2.5-5.5-5.5-5.5c-3,0-5.5,2.5-5.5,5.5v14.8 c-2.3,1.7-3.6,4.4-3.6,7.3c0,5,4.1,9.1,9.1,9.1c2.7,0,5.1-1.2,6.8-3C339.3,249.7,338.8,249.3,338.2,248.9L338.2,248.9z" class="st0"/><path d="M338.2,248.9C338.2,248.9,338.2,248.9,338.2,248.9c-1.3,1.4-3.2,2.3-5.3,2.3c-3.9,0-7.1-3.2-7.1-7.1 c0-2.4,1.2-4.6,3.2-5.9l0.5-0.3V222c0-1.9,1.5-3.4,3.4-3.4c1.9,0,3.4,1.5,3.4,3.4v15.9l0.5,0.3c1.6,1.1,2.7,2.8,3.1,4.7 c0.3,0.1,0.5,0.2,0.8,0.4c0.3-0.5,0.7-1,1.1-1.4c-0.5-2-1.7-3.7-3.3-5V222c0-3-2.5-5.5-5.5-5.5c-3,0-5.5,2.5-5.5,5.5v14.8 c-2.3,1.7-3.6,4.4-3.6,7.3c0,5,4.1,9.1,9.1,9.1c2.7,0,5.1-1.2,6.8-3C339.3,249.7,338.8,249.3,338.2,248.9L338.2,248.9z" class="st10"/><path d="M322.9,222.5c-0.3,0-0.6-0.2-0.6-0.5s0.3-0.5,0.6-0.5h2.7c0.3,0,0.6,0.2,0.6,0.5s-0.3,0.5-0.6,0.5H322.9 L322.9,222.5z" class="st0"/><path d="M322.9,222.5c-0.3,0-0.6-0.2-0.6-0.5s0.3-0.5,0.6-0.5h2.7c0.3,0,0.6,0.2,0.6,0.5s-0.3,0.5-0.6,0.5H322.9 L322.9,222.5z" class="st9"/><path d="M322.9,225.2c-0.3,0-0.6-0.2-0.6-0.5c0-0.3,0.3-0.5,0.6-0.5h2.7c0.3,0,0.6,0.2,0.6,0.5c0,0.3-0.3,0.5-0.6,0.5 H322.9L322.9,225.2z" class="st0"/><path d="M322.9,225.2c-0.3,0-0.6-0.2-0.6-0.5c0-0.3,0.3-0.5,0.6-0.5h2.7c0.3,0,0.6,0.2,0.6,0.5c0,0.3-0.3,0.5-0.6,0.5 H322.9L322.9,225.2z" class="st9"/><path d="M322.9,227.9c-0.3,0-0.6-0.2-0.6-0.5c0-0.3,0.3-0.5,0.6-0.5h2.7c0.3,0,0.6,0.2,0.6,0.5c0,0.3-0.3,0.5-0.6,0.5 H322.9L322.9,227.9z" class="st0"/><path d="M322.9,227.9c-0.3,0-0.6-0.2-0.6-0.5c0-0.3,0.3-0.5,0.6-0.5h2.7c0.3,0,0.6,0.2,0.6,0.5c0,0.3-0.3,0.5-0.6,0.5 H322.9L322.9,227.9z" class="st9"/><path d="M322.9,230.6c-0.3,0-0.6-0.2-0.6-0.5s0.3-0.5,0.6-0.5h2.7c0.3,0,0.6,0.2,0.6,0.5s-0.3,0.5-0.6,0.5H322.9 L322.9,230.6z" class="st0"/><path d="M322.9,230.6c-0.3,0-0.6-0.2-0.6-0.5s0.3-0.5,0.6-0.5h2.7c0.3,0,0.6,0.2,0.6,0.5s-0.3,0.5-0.6,0.5H322.9 L322.9,230.6z" class="st9"/><path d="M322.9,233.3c-0.3,0-0.6-0.2-0.6-0.5c0-0.3,0.3-0.5,0.6-0.5h2.7c0.3,0,0.6,0.2,0.6,0.5c0,0.3-0.3,0.5-0.6,0.5 H322.9L322.9,233.3z" class="st0"/><path d="M322.9,233.3c-0.3,0-0.6-0.2-0.6-0.5c0-0.3,0.3-0.5,0.6-0.5h2.7c0.3,0,0.6,0.2,0.6,0.5c0,0.3-0.3,0.5-0.6,0.5 H322.9L322.9,233.3z" class="st9"/><path d="M322.9,236c-0.3,0-0.6-0.2-0.6-0.5c0-0.3,0.3-0.5,0.6-0.5h2.7c0.3,0,0.6,0.2,0.6,0.5c0,0.3-0.3,0.5-0.6,0.5 H322.9L322.9,236z" class="st0"/><path d="M322.9,236c-0.3,0-0.6-0.2-0.6-0.5c0-0.3,0.3-0.5,0.6-0.5h2.7c0.3,0,0.6,0.2,0.6,0.5c0,0.3-0.3,0.5-0.6,0.5 H322.9L322.9,236z" class="st9"/></g><g><path d="M273.9,234.5c-1.4,0-2.9-0.3-4.3-0.8c-0.6-0.2-1.1-0.4-1.7-0.7v17c0.5,0.3,1.1,0.5,1.7,0.7 c1.4,0.5,2.9,0.8,4.3,0.8V234.5L273.9,234.5z" class="st0"/><path d="M273.9,234.5c-1.4,0-2.9-0.3-4.3-0.8c-0.6-0.2-1.1-0.4-1.7-0.7v17c0.5,0.3,1.1,0.5,1.7,0.7 c1.4,0.5,2.9,0.8,4.3,0.8V234.5L273.9,234.5z" class="st3"/><path d="M302.8,220.6c0,0-4-1.2-9.9,2.2c-6.8,3.9-5,5-11,8.5c-2.5,1.4-8.7,3.2-13.9,0.3l23.7-13.7L302.8,220.6 L302.8,220.6z" class="st0"/><path d="M302.8,220.6c0,0-4-1.2-9.9,2.2c-6.8,3.9-5,5-11,8.5c-2.5,1.4-8.7,3.2-13.9,0.3l23.7-13.7L302.8,220.6 L302.8,220.6z" class="st11"/><polygon points="306.1 242.9 304.1 244 297.9 242.6 299.9 241.4 306.1 242.9" class="st0"/><polygon points="306.1 242.9 304.1 244 297.9 242.6 299.9 241.4 306.1 242.9" class="st4"/><polygon points="297.2 243.3 295.4 241.1 301.4 240.9 297.2 243.3" class="st0"/><polygon points="297.2 243.3 295.4 241.1 301.4 240.9 297.2 243.3" class="st5"/><polygon points="284.6 249.9 286.6 248.9 292.8 250.3 290.8 251.4 284.6 249.9" class="st0"/><polygon points="284.6 249.9 286.6 248.9 292.8 250.3 290.8 251.4 284.6 249.9" class="st4"/><polygon points="293.4 249.5 295.3 251.8 289.2 251.9 293.4 249.5" class="st0"/><polygon points="293.4 249.5 295.3 251.8 289.2 251.9 293.4 249.5" class="st5"/><path d="M296.5,222.6c-0.9,0.3-2,0.8-3.1,1.4c-1.2,0.7-2.2,1.3-2.9,1.9v17c0.7-0.5,1.7-1.2,2.9-1.9 c1.1-0.6,2.1-1.1,3.1-1.4c3.9-1.3,6.3-1,6.3-1V222C302.8,222,300.3,221.3,296.5,222.6L296.5,222.6z" class="st0"/><path d="M296.5,222.6c-0.9,0.3-2,0.8-3.1,1.4c-1.2,0.7-2.2,1.3-2.9,1.9v17c0.7-0.5,1.7-1.2,2.9-1.9 c1.1-0.6,2.1-1.1,3.1-1.4c3.9-1.3,6.3-1,6.3-1V222C302.8,222,300.3,221.3,296.5,222.6L296.5,222.6z" class="st3"/><path d="M289,227c-0.5,0.4-0.9,0.9-1.3,1.3c-1.1,1.2-2.3,2.4-5.4,4.2c-0.6,0.4-1.5,0.7-2.4,1.1c-1.3,0.5-2.9,0.9-4.7,1 v17c1.7-0.1,3.4-0.5,4.7-1c1-0.3,1.8-0.7,2.4-1.1c3.1-1.8,4.2-3,5.4-4.2c0.4-0.4,0.8-0.8,1.3-1.3V227L289,227z" class="st0"/><path d="M289,227c-0.5,0.4-0.9,0.9-1.3,1.3c-1.1,1.2-2.3,2.4-5.4,4.2c-0.6,0.4-1.5,0.7-2.4,1.1c-1.3,0.5-2.9,0.9-4.7,1 v17c1.7-0.1,3.4-0.5,4.7-1c1-0.3,1.8-0.7,2.4-1.1c3.1-1.8,4.2-3,5.4-4.2c0.4-0.4,0.8-0.8,1.3-1.3V227L289,227z" class="st3"/></g><g><path d="M61.6,230.5c0-7.1,5.8-12.9,13.1-12.9c7.2,0,13.1,5.8,13.1,12.9c0,7.1-5.8,12.9-13.1,12.9 C67.5,243.4,61.6,237.6,61.6,230.5L61.6,230.5z M84.4,230.5c0-5.3-4.4-9.7-9.8-9.7c-5.4,0-9.8,4.3-9.8,9.7c0,5.3,4.4,9.7,9.8,9.7 C80.1,240.1,84.4,235.8,84.4,230.5L84.4,230.5z" class="st0"/><path d="M92.4,252.2l4-4l-8.8-8.8c0,0-0.2,1.7-1.3,2.7c-1,1.1-2.7,1.2-2.7,1.2L92.4,252.2L92.4,252.2z" class="st0"/><path d="M68.6,229.7c0,1.2-1,0.8-1-1c0-3,2.4-5.4,5.4-5.4c1.7,0,2.2,1,1,1C71,224.3,68.6,226.7,68.6,229.7L68.6,229.7z" class="st0"/></g><path d="M13.4,235c0-7.5,3-14.2,7.6-18.5c-7.7,2.5-13.4,9.8-13.4,18.3c0,1.2,0.1,2.3,0.3,3.5	c1.3,6.9,6.4,12.5,12.9,14.7c-4.3-4.2-7.3-10.5-7.4-17.6C13.4,235.3,13.4,235.2,13.4,235L13.4,235z M45.5,228.9	c-0.2-0.5-0.4-1.1-0.6-1.6c-1-2.3-2.4-4.4-4.3-6.3c-3.7-3.7-8.7-5.7-13.9-5.7l-0.2,0l-0.3,0c-0.1,0-0.2,0-0.3,0.1	c-0.2,0.1-3.3,1.4-6,5.1c-2.1,2.9-3.9,7.3-4,13.8v0c0,0.1,0,0.2,0,0.3c0,11.9,6.2,17.2,8.6,18.8c0.6,0.4,1,0.7,1.1,0.7	c0.1,0.1,0.3,0.1,0.5,0.1l1,0h0c10.6,0,19.2-8.7,19.2-19.5C46.4,232.8,46.1,230.8,45.5,228.9L45.5,228.9z M25.7,251.4	c-1.4-0.9-3.9-3.1-5.6-7.4h5.6V251.4L25.7,251.4z M25.7,242.8h-6c-0.4-1.5-0.7-3-0.9-4.2c-0.1-0.9-0.2-1.9-0.3-2.8c0,0,0,0,0,0	c0,0,0,0,0,0h7.2V242.8L25.7,242.8z M25.7,234.5h-7.2c0,0,0,0,0,0c0-0.3,0-0.6,0-0.8v0c0.1-2.3,0.4-4.3,0.9-6h6.3V234.5L25.7,234.5z M25.7,226.4h-5.9c0.6-1.6,1.3-3,2-4.1l0,0c0.5-0.7,1-1.3,1.4-1.8c0.4-0.4,0.7-0.7,1.1-1c0,0,0,0,0,0c0.5-0.4,0.9-0.8,1.3-1V226.4	L25.7,226.4z M38.9,222.9c1.1,1.1,2,2.2,2.7,3.5h-5.4c-1.1-3.5-2.7-6-4.3-7.7C34.5,219.5,36.9,220.9,38.9,222.9L38.9,222.9z M28.1,218.6c1.5,1.1,4,3.4,5.5,7.8h-5.5V218.6L28.1,218.6z M28.1,227.6H34c0.3,1.3,0.6,2.8,0.8,4.4c0,0.4,0.1,0.7,0.1,1.1	c0,0.5,0,1,0,1.5h-6.7V227.6L28.1,227.6z M28.1,235.8h6.7c-0.1,2.8-0.5,5.1-1.1,7h-5.6V235.8L28.1,235.8z M28.1,250.9V244h5.2	C31.8,247.8,29.6,249.9,28.1,250.9L28.1,250.9z M31.5,251.3c1.6-1.6,3.3-3.9,4.5-7.3h5.4C39.1,247.6,35.6,250.2,31.5,251.3	L31.5,251.3z M42,242.8c-0.1,0-0.2-0.1-0.3-0.1h-5.4c0.6-2,0.9-4.3,1-7h6.6C43.8,238.3,43.1,240.7,42,242.8L42,242.8z M37.4,234.5	c0-0.8,0-1.7-0.1-2.4c0-0.2,0-0.3-0.1-0.5c-0.1-1.4-0.4-2.8-0.6-4h5.5l0.2,0c0.2,0.4,0.4,0.9,0.6,1.4c0.1,0.3,0.2,0.6,0.3,1	c0.5,1.5,0.7,3,0.8,4.6H37.4L37.4,234.5z" class="st0"/><path d="M13.4,235c0-7.5,3-14.2,7.6-18.5c-7.7,2.5-13.4,9.8-13.4,18.3c0,1.2,0.1,2.3,0.3,3.5	c1.3,6.9,6.4,12.5,12.9,14.7c-4.3-4.2-7.3-10.5-7.4-17.6C13.4,235.3,13.4,235.2,13.4,235L13.4,235z M45.5,228.9	c-0.2-0.5-0.4-1.1-0.6-1.6c-1-2.3-2.4-4.4-4.3-6.3c-3.7-3.7-8.7-5.7-13.9-5.7l-0.2,0l-0.3,0c-0.1,0-0.2,0-0.3,0.1	c-0.2,0.1-3.3,1.4-6,5.1c-2.1,2.9-3.9,7.3-4,13.8v0c0,0.1,0,0.2,0,0.3c0,11.9,6.2,17.2,8.6,18.8c0.6,0.4,1,0.7,1.1,0.7	c0.1,0.1,0.3,0.1,0.5,0.1l1,0h0c10.6,0,19.2-8.7,19.2-19.5C46.4,232.8,46.1,230.8,45.5,228.9L45.5,228.9z M25.7,251.4	c-1.4-0.9-3.9-3.1-5.6-7.4h5.6V251.4L25.7,251.4z M25.7,242.8h-6c-0.4-1.5-0.7-3-0.9-4.2c-0.1-0.9-0.2-1.9-0.3-2.8c0,0,0,0,0,0	c0,0,0,0,0,0h7.2V242.8L25.7,242.8z M25.7,234.5h-7.2c0,0,0,0,0,0c0-0.3,0-0.6,0-0.8v0c0.1-2.3,0.4-4.3,0.9-6h6.3V234.5L25.7,234.5z M25.7,226.4h-5.9c0.6-1.6,1.3-3,2-4.1l0,0c0.5-0.7,1-1.3,1.4-1.8c0.4-0.4,0.7-0.7,1.1-1c0,0,0,0,0,0c0.5-0.4,0.9-0.8,1.3-1V226.4	L25.7,226.4z M38.9,222.9c1.1,1.1,2,2.2,2.7,3.5h-5.4c-1.1-3.5-2.7-6-4.3-7.7C34.5,219.5,36.9,220.9,38.9,222.9L38.9,222.9z M28.1,218.6c1.5,1.1,4,3.4,5.5,7.8h-5.5V218.6L28.1,218.6z M28.1,227.6H34c0.3,1.3,0.6,2.8,0.8,4.4c0,0.4,0.1,0.7,0.1,1.1	c0,0.5,0,1,0,1.5h-6.7V227.6L28.1,227.6z M28.1,235.8h6.7c-0.1,2.8-0.5,5.1-1.1,7h-5.6V235.8L28.1,235.8z M28.1,250.9V244h5.2	C31.8,247.8,29.6,249.9,28.1,250.9L28.1,250.9z M31.5,251.3c1.6-1.6,3.3-3.9,4.5-7.3h5.4C39.1,247.6,35.6,250.2,31.5,251.3	L31.5,251.3z M42,242.8c-0.1,0-0.2-0.1-0.3-0.1h-5.4c0.6-2,0.9-4.3,1-7h6.6C43.8,238.3,43.1,240.7,42,242.8L42,242.8z M37.4,234.5	c0-0.8,0-1.7-0.1-2.4c0-0.2,0-0.3-0.1-0.5c-0.1-1.4-0.4-2.8-0.6-4h5.5l0.2,0c0.2,0.4,0.4,0.9,0.6,1.4c0.1,0.3,0.2,0.6,0.3,1	c0.5,1.5,0.7,3,0.8,4.6H37.4L37.4,234.5z" class="st12"/><g><polygon points="231.1 234.3 231.1 221.6 221.9 226.9 220 232.1 220 240.7 231.1 234.3" class="st0"/><path d="M232.1,237.6c-2.9,1.7-5.9,3.4-8.8,5.1c4.9,2.9,9.8,5.9,14.7,8.8c2.9-1.7,5.9-3.4,8.8-5.1 C241.9,243.5,237,240.6,232.1,237.6L232.1,237.6z" class="st13"/><polygon points="250 235.8 247.8 231.3 242.2 227.9 239.9 222.3 233.1 218.2 233.1 234.4 250 244.6 250 235.8" class="st0"/></g><g><polyline points="204.4 232.7 185.1 232.7 185.1 224.2 180.9 224.2 180.9 232.7 161.6 232.7 161.6 237 180.9 237 180.9 245.6 185.1 245.6 185.1 237 204.4 237" class="st0"/><path d="M190.1,238.4h3.2l11.1,5.5v1.6 M175.9,231.3h-3.2l-11.1-5.5v-1.6L175.9,231.3L175.9,231.3z M175.9,238.4h3.2 l-14.2,7.1h-3.2L175.9,238.4L175.9,238.4z M190.1,231.3h-3.2l14.2-7.1h3.2L190.1,231.3L190.1,231.3z" class="st0"/><path d="M161.6,238.4v4.7l9.5-4.7 M204.4,238.4v4.7l-9.5-4.7H204.4L204.4,238.4z M161.6,231.3v-4.7l9.5,4.7H161.6 L161.6,231.3z M204.4,231.3v-4.7l-9.5,4.7H204.4L204.4,231.3z M179.4,245.6v-6.5l-13,6.5H179.4L179.4,245.6z M186.6,245.6v-6.5 l13,6.5H186.6L186.6,245.6z M179.4,224.2v6.5l-13-6.5H179.4L179.4,224.2z M186.6,224.2v6.5l13-6.5H186.6L186.6,224.2z" class="st0"/></g><g><path d="M150.7,242l0-3.6l0-6.2c0-0.8-0.2-1.5-0.7-2.1c-0.1-0.1-0.2-0.3-0.3-0.4l0,0l-0.1,0l-0.1-0.1l-1.1-0.7l0.1,0 l-14-8.9c-0.8-0.6-2.1-1-3.4-1c-1.5,0-2.8,0.4-3.6,1.1l-0.6,0.4c0,0,0,0,0,0l-14.3,9.1l-0.1,0.1l-0.1,0l0,0c-0.7,0.7-1,1.5-1,2.5 l0,6.2l0,2.9l0,0.7c0,0,0,0,0,0c0,2.9,0,5.2,0,5.2c0,2,1.6,3.5,3.5,3.5h32.4c1.9,0,3.5-1.6,3.5-3.5 C150.7,247.3,150.7,244.9,150.7,242C150.7,242,150.7,242,150.7,242L150.7,242z M148.7,236.9l0,3.9c0,0,0,0,0,0c0,0.2,0,0.4,0,0.6 l0,5.8c0,0.3-0.1,0.6-0.2,0.8l-6.1-4.6l-1.9-1.4c-0.1-0.1-0.2-0.1-0.3-0.1c0,0,0,0,0,0c0,0,0,0,0,0c-0.2,0-0.3,0.1-0.4,0.2 c-0.2,0.2-0.1,0.5,0.1,0.7l1.1,0.8l6.8,5.1c-0.1,0-0.3,0.1-0.5,0.1h-32.3c-0.2,0-0.3,0-0.5-0.1l6.8-5.1l1.1-0.8 c0.2-0.2,0.3-0.5,0.1-0.7c-0.1-0.1-0.3-0.2-0.4-0.2c0,0,0,0,0,0c0,0,0,0,0,0c-0.1,0-0.2,0-0.3,0.1l-1.9,1.4l-6.1,4.6 c-0.1-0.2-0.2-0.5-0.2-0.8l0-5.8c0-0.2,0-0.4,0-0.6c0,0,0,0,0,0l0-0.8l0-3.1l0-4.7c0-0.1,0-0.2,0-0.3l3.7,2.8l1,0.8l2.1,1.6 l7.9,5.9l0,0c0.3,0.3,0.7,0.5,1.1,0.6c0.6,0.2,1.1,0.3,1.7,0.3c0,0,0,0,0,0c0,0,0,0,0,0c0.6,0,1.2-0.1,1.7-0.3 c0.4-0.1,0.8-0.4,1.1-0.6l0,0l10-7.5l1-0.8l3.7-2.8c0,0.1,0,0.2,0,0.3L148.7,236.9L148.7,236.9z" class="st0"/><path d="M150.7,242l0-3.6l0-6.2c0-0.8-0.2-1.5-0.7-2.1c-0.1-0.1-0.2-0.3-0.3-0.4l0,0l-0.1,0l-0.1-0.1l-1.1-0.7l0.1,0 l-14-8.9c-0.8-0.6-2.1-1-3.4-1c-1.5,0-2.8,0.4-3.6,1.1l-0.6,0.4c0,0,0,0,0,0l-14.3,9.1l-0.1,0.1l-0.1,0l0,0c-0.7,0.7-1,1.5-1,2.5 l0,6.2l0,2.9l0,0.7c0,0,0,0,0,0c0,2.9,0,5.2,0,5.2c0,2,1.6,3.5,3.5,3.5h32.4c1.9,0,3.5-1.6,3.5-3.5 C150.7,247.3,150.7,244.9,150.7,242C150.7,242,150.7,242,150.7,242L150.7,242z M148.7,236.9l0,3.9c0,0,0,0,0,0c0,0.2,0,0.4,0,0.6 l0,5.8c0,0.3-0.1,0.6-0.2,0.8l-6.1-4.6l-1.9-1.4c-0.1-0.1-0.2-0.1-0.3-0.1c0,0,0,0,0,0c0,0,0,0,0,0c-0.2,0-0.3,0.1-0.4,0.2 c-0.2,0.2-0.1,0.5,0.1,0.7l1.1,0.8l6.8,5.1c-0.1,0-0.3,0.1-0.5,0.1h-32.3c-0.2,0-0.3,0-0.5-0.1l6.8-5.1l1.1-0.8 c0.2-0.2,0.3-0.5,0.1-0.7c-0.1-0.1-0.3-0.2-0.4-0.2c0,0,0,0,0,0c0,0,0,0,0,0c-0.1,0-0.2,0-0.3,0.1l-1.9,1.4l-6.1,4.6 c-0.1-0.2-0.2-0.5-0.2-0.8l0-5.8c0-0.2,0-0.4,0-0.6c0,0,0,0,0,0l0-0.8l0-3.1l0-4.7c0-0.1,0-0.2,0-0.3l3.7,2.8l1,0.8l2.1,1.6 l7.9,5.9l0,0c0.3,0.3,0.7,0.5,1.1,0.6c0.6,0.2,1.1,0.3,1.7,0.3c0,0,0,0,0,0c0,0,0,0,0,0c0.6,0,1.2-0.1,1.7-0.3 c0.4-0.1,0.8-0.4,1.1-0.6l0,0l10-7.5l1-0.8l3.7-2.8c0,0.1,0,0.2,0,0.3L148.7,236.9L148.7,236.9z" class="st12"/></g><g><polygon points="241.7 287.1 229.3 292.6 229.3 281.6 241.7 287.1" class="st0"/><path d="M250.8,275.5h-31.5c-0.5,0-1,0.4-1,1v20.7c0,0.5,0.4,1,1,1h31.5c0.5,0,1-0.4,1-1v-20.7 C251.7,276,251.3,275.5,250.8,275.5L250.8,275.5z M249.4,295.8h-28.8v-18h28.8V295.8L249.4,295.8z" class="st0"/></g><g><path d="M320.1,188.8c-1.2-3.3-1.2-7,0.1-10.3c-0.8,0.8-2.4,2.4-3.5,3.5c-1.9,1.9,0.2,3.7,0.2,3.7L320.1,188.8 L320.1,188.8z" class="st0"/><path d="M320.1,188.8c-1.2-3.3-1.2-7,0.1-10.3c-0.8,0.8-2.4,2.4-3.5,3.5c-1.9,1.9,0.2,3.7,0.2,3.7L320.1,188.8 L320.1,188.8z" class="st14"/><path d="M342.7,169.8l-1.3-1.3c-2,1.3-5.1-0.2-5.1-0.2l-1.2,1.2c2.7,0.3,5.3,1.3,7.5,3.1 C342.1,170.9,342.7,169.8,342.7,169.8L342.7,169.8z" class="st0"/><path d="M342.7,169.8l-1.3-1.3c-2,1.3-5.1-0.2-5.1-0.2l-1.2,1.2c2.7,0.3,5.3,1.3,7.5,3.1 C342.1,170.9,342.7,169.8,342.7,169.8L342.7,169.8z" class="st14"/><path d="M327.3,190.3c-3.5-3.5-3.5-9.3,0-12.9c0.1-0.1,0.3-0.2,0.4-0.4l-3.2-3.2c-0.1,0.1-0.3,0.3-0.4,0.4 c-5.3,5.3-5.3,14,0,19.3c0.4,0.4,0.9,0.8,1.3,1.2l3.3-3.3C328.2,191.1,327.7,190.7,327.3,190.3L327.3,190.3z" class="st0"/><path d="M327.3,190.3c-3.5-3.5-3.5-9.3,0-12.9c0.1-0.1,0.3-0.2,0.4-0.4l-3.2-3.2c-0.1,0.1-0.3,0.3-0.4,0.4 c-5.3,5.3-5.3,14,0,19.3c0.4,0.4,0.9,0.8,1.3,1.2l3.3-3.3C328.2,191.1,327.7,190.7,327.3,190.3L327.3,190.3z" class="st14"/><path d="M343.4,174.2c-5-5-12.9-5.3-18.3-0.9l3.2,3.2c3.6-2.6,8.6-2.3,11.8,0.9c3.5,3.5,3.5,9.3,0,12.9 c-2.9,2.9-7.3,3.4-10.8,1.6l-3.3,3.3c5.3,3.6,12.6,3,17.3-1.7l7.4-7.4c2.8-2.8-0.7-5.3-0.7-5.3L343.4,174.2L343.4,174.2z" class="st0"/><path d="M343.4,174.2c-5-5-12.9-5.3-18.3-0.9l3.2,3.2c3.6-2.6,8.6-2.3,11.8,0.9c3.5,3.5,3.5,9.3,0,12.9 c-2.9,2.9-7.3,3.4-10.8,1.6l-3.3,3.3c5.3,3.6,12.6,3,17.3-1.7l7.4-7.4c2.8-2.8-0.7-5.3-0.7-5.3L343.4,174.2L343.4,174.2z" class="st14"/><polygon points="351.6 181.1 359.3 173.5 361 175.2 362 174.2 359.3 171.6 350.7 180.2 351.6 181.1" class="st0"/><polygon points="351.6 181.1 359.3 173.5 361 175.2 362 174.2 359.3 171.6 350.7 180.2 351.6 181.1" class="st14"/><g><path d="M328.1,185.4c0.1-0.1,0.3-0.2,0.4-0.3c-0.1-0.5-0.3-1-0.7-1.4c-0.3-0.3-0.8-0.5-1.1-0.2 c-0.3,0.3-0.2,0.7,0.1,1.1c0.1,0.1,0.3,0.2,0.4,0.3l-0.4,0.8c-0.2-0.1-0.4-0.2-0.6-0.4c-0.6-0.6-0.8-1.5,0-2.3 c0.8-0.8,1.6-0.6,2.2,0c0.4,0.4,0.7,1.1,0.7,1.8c0.5,0,1,0.2,1.4,0.6c0.8,0.8,1.1,2.2,0.1,3.1c-0.7,0.7-1.5,0.5-2,0 c-0.3-0.3-0.6-0.9-0.5-1.4h1c0,0.3,0.1,0.7,0.3,0.9c0.2,0.2,0.5,0.3,0.8,0c0.4-0.4,0.1-1.4-0.5-1.9c-0.2-0.2-0.5-0.4-0.7-0.4 c-0.1,0.2-0.2,0.3-0.3,0.5c0,0-0.1,0.1-0.1,0.1L328.1,185.4z" class="st0"/><path d="M330.4,184.3c-1.3-1.3-2-3.2-1-4.2c0.7-0.7,1.6-0.3,2.4,0.5c1.4,1.4,2,3.3,1.1,4.2 C332.1,185.4,331.2,185,330.4,184.3z M330.7,181c-0.4-0.4-0.7-0.5-0.9-0.3c-0.4,0.4,0.7,2.1,1.6,3.1c0.5,0.5,0.7,0.6,0.9,0.4 C332.6,183.8,331.9,182.2,330.7,181z" class="st0"/><path d="M333.2,181.4c-1.3-1.3-2-3.2-1-4.2c0.7-0.7,1.6-0.3,2.4,0.5c1.4,1.4,2,3.3,1.1,4.2 C334.9,182.5,334,182.2,333.2,181.4z M333.5,178.1c-0.4-0.4-0.7-0.5-0.9-0.3c-0.4,0.4,0.7,2.1,1.6,3.1c0.5,0.5,0.7,0.6,0.9,0.4 C335.5,181,334.7,179.3,333.5,178.1z" class="st0"/></g><g><path d="M336.5,191.2c0,0-0.8-1-1.2-2c-0.9-1.3-1.7-2.4-2.3-3.3l0.8-0.8l0.6,0.8c-0.2-0.8-0.2-1.5,0.2-1.9 c0.4-0.4,0.8-0.2,1.2,0.1c0.1,0.1,0.1,0.2,0.2,0.3c-0.2-0.9-0.2-1.7,0.3-2.1c0.3-0.3,0.8-0.3,1.2,0.1c0.9,0.9,1.4,2.7,2.2,3.5 c0.3,0.3,0.4,0.2,0.5,0.1c0.3-0.3,0-1.1-0.7-2.6c0.1-0.1,0.3-0.2,0.4-0.1c0.7,1.5,1.4,3.1,0.6,3.9c-0.3,0.3-0.9,0.4-1.5-0.2 c-1-1-1.5-2.7-2.2-3.4c-0.1-0.1-0.2-0.1-0.3,0c-0.2,0.2-0.2,1.1,0.9,2.9c0.6,0.9,1.3,1.9,1.5,2.3l-0.9,0.9 c-0.8-1.3-2.5-3.8-2.9-4.2c-0.2-0.2-0.3-0.2-0.3-0.1c-0.3,0.3,0,1.5,1.2,3.1l1.3,1.9L336.5,191.2z" class="st0"/></g><g><path d="M337.4,180c0.1,0.1,0.2,0.1,0.3,0.2l-0.2,0.6c-0.2-0.1-0.3-0.1-0.4-0.3c-0.4-0.4-0.5-1.1,0-1.6 c0.5-0.5,0.9-0.4,1.3,0c0.7,0.7,0.3,1.7,0.4,2.8c0,0,0.1-0.1,0.1-0.1c0.1-0.1,0.1-0.1,0.2-0.2c0.3-0.3,0.4-0.6,0.4-0.8l0.6,0.1 c0,0.3-0.1,0.5-0.2,0.7c-0.3,0.3-0.6,0.4-0.8,0.6c-0.1,0.1-0.2,0.3-0.1,0.3l-0.5,0.2c-0.4-1.4,0-2.6-0.6-3.2 c-0.2-0.2-0.4-0.2-0.5-0.1C337.2,179.6,337.2,179.8,337.4,180z" class="st0"/></g></g><g><path d="M284.9,185.9c-0.3-0.3-0.7-0.5-1.2-0.5c-0.4,0-0.8,0.2-1.2,0.4l-2.7,2.7l-2.1,2.1c-0.3,0.3-0.4,0.7-0.4,1.1 c0,0.5,0.2,0.9,0.5,1.2l0.9,0.9l7-7L284.9,185.9L284.9,185.9z M296.8,175.9l7-7l-0.9-0.9c-0.3-0.3-0.7-0.5-1.2-0.5 c-0.4,0-0.8,0.2-1.1,0.4l-2.4,2.4l-2.4,2.4c-0.3,0.3-0.4,0.7-0.4,1.1c0,0.5,0.2,0.9,0.5,1.2L296.8,175.9L296.8,175.9z M308.3,174.3 c-0.2-0.9-0.6-1.7-1.3-2.4l-1.9-1.9l-12.5,12.5L280,195.1l1.9,1.9c1,1,2.2,1.4,3.5,1.4c1.3,0,2.5-0.5,3.5-1.4l18.1-18.1 C308.2,177.6,308.7,175.9,308.3,174.3L308.3,174.3z M277.6,195.3c-0.2,0-0.5,0.1-0.6,0.3c-0.7,0.7-1.6,1.1-2.6,1.1 c-1,0-1.9-0.4-2.6-1.1c-0.7-0.7-1.1-1.6-1.1-2.6c0-1,0.4-1.9,1.1-2.6l4.6-4.6c0.2-0.2,0.4-0.5,0.6-0.7c1.5-2.1,1.3-5.1-0.6-7 c-1-1-2.4-1.6-3.9-1.6c-1.5,0-2.8,0.6-3.9,1.6l-2.9,2.8c-0.3,0.3-0.3,0.9,0,1.2c0.2,0.2,0.4,0.3,0.6,0.3c0.2,0,0.5-0.1,0.6-0.3 l2.8-2.8c0.7-0.7,1.6-1.1,2.6-1.1c1,0,1.9,0.4,2.6,1.1c1.4,1.4,1.4,3.8,0,5.2l-4.1,4.1l-0.5,0.5c-1,1-1.6,2.4-1.6,3.9 c0,1.5,0.6,2.8,1.6,3.9c1,1,2.4,1.6,3.8,1.6h0c1.5,0,2.8-0.6,3.9-1.6c0.3-0.3,0.3-0.9,0-1.2C278.1,195.4,277.8,195.3,277.6,195.3 L277.6,195.3z" class="st0"/><path d="M284.9,185.9c-0.3-0.3-0.7-0.5-1.2-0.5c-0.4,0-0.8,0.2-1.2,0.4l-2.7,2.7l-2.1,2.1c-0.3,0.3-0.4,0.7-0.4,1.1 c0,0.5,0.2,0.9,0.5,1.2l0.9,0.9l7-7L284.9,185.9L284.9,185.9z M296.8,175.9l7-7l-0.9-0.9c-0.3-0.3-0.7-0.5-1.2-0.5 c-0.4,0-0.8,0.2-1.1,0.4l-2.4,2.4l-2.4,2.4c-0.3,0.3-0.4,0.7-0.4,1.1c0,0.5,0.2,0.9,0.5,1.2L296.8,175.9L296.8,175.9z M308.3,174.3 c-0.2-0.9-0.6-1.7-1.3-2.4l-1.9-1.9l-12.5,12.5L280,195.1l1.9,1.9c1,1,2.2,1.4,3.5,1.4c1.3,0,2.5-0.5,3.5-1.4l18.1-18.1 C308.2,177.6,308.7,175.9,308.3,174.3L308.3,174.3z M277.6,195.3c-0.2,0-0.5,0.1-0.6,0.3c-0.7,0.7-1.6,1.1-2.6,1.1 c-1,0-1.9-0.4-2.6-1.1c-0.7-0.7-1.1-1.6-1.1-2.6c0-1,0.4-1.9,1.1-2.6l4.6-4.6c0.2-0.2,0.4-0.5,0.6-0.7c1.5-2.1,1.3-5.1-0.6-7 c-1-1-2.4-1.6-3.9-1.6c-1.5,0-2.8,0.6-3.9,1.6l-2.9,2.8c-0.3,0.3-0.3,0.9,0,1.2c0.2,0.2,0.4,0.3,0.6,0.3c0.2,0,0.5-0.1,0.6-0.3 l2.8-2.8c0.7-0.7,1.6-1.1,2.6-1.1c1,0,1.9,0.4,2.6,1.1c1.4,1.4,1.4,3.8,0,5.2l-4.1,4.1l-0.5,0.5c-1,1-1.6,2.4-1.6,3.9 c0,1.5,0.6,2.8,1.6,3.9c1,1,2.4,1.6,3.8,1.6h0c1.5,0,2.8-0.6,3.9-1.6c0.3-0.3,0.3-0.9,0-1.2C278.1,195.4,277.8,195.3,277.6,195.3 L277.6,195.3z" class="st12"/></g><g><path d="M342.9,270.2h-15.8v33.3h2.2v-27.4h-1.4l1.8-4.9l1.8,4.9H330v27.4h4.3v-29.6h8.6V270.2L342.9,270.2z M335.1,274.6v28.9h12.8v-23.2h-1.4l1.8-4.9l1.8,4.9h-1.4v23.2h2.2v-28.9H335.1L335.1,274.6z" class="st0"/></g><g><path d="M279.9,264v2.8l16.3,13.5v25.6l2,1.7v-28.4L279.9,264L279.9,264z M275.9,294.5l18.3,15.2v-28.4l-18.3-15.2 V294.5L275.9,294.5z" class="st0"/><polygon points="276 296.9 276.9 297.7 280.2 297.7 279.3 296.9 276 296.9" class="st0"/><polygon points="286.4 305.7 287.2 306.4 290.5 306.4 289.6 305.7 286.4 305.7" class="st0"/></g><g><path d="M40,326.2c0-5,0-5.5,0-5.5c0-1.8-5.8-5.2-13-5.2c-7.2,0-13,3.3-13,5.2c0,0,0,0.5,0,5.5s9,9.1,9,12.6 s-9,7.6-9,12.6s0,5.5,0,5.5c0,1.8,5.8,5.2,13,5.2c7.2,0,13-3.3,13-5.2c0,0,0-0.5,0-5.5s-9-9.1-9-12.6S40,331.2,40,326.2L40,326.2z M17.6,321c1.6-1,4.6-2.5,9.5-2.5c4.9,0,9.3,2.5,9.3,2.5c0.3,0.2,1.6,0.9,0.7,1.4c-1.9,1.2-5.8,2.4-10.2,2.4c-4.4,0-8.1-1.3-10-2.5 C16.1,321.8,17.6,321,17.6,321L17.6,321z M28.2,338.8c0,2.8,2.3,4.6,4.8,6.9c1.8,1.7,4.2,4.1,4.2,5.7v3.1c-2.2-1.1-9-2.2-9-5.8 c0-1.8-2.4-1.8-2.4,0c0,3.6-6.7,4.7-9,5.8v-3.1c0-1.5,2.4-3.9,4.2-5.7c2.4-2.4,4.8-4.2,4.8-6.9c0-2.8-2.3-4.6-4.8-6.9 c-1.8-1.7-4.2-4.1-4.2-5.7l-0.1-2.3c2.4,1.3,6.2,2.5,10.3,2.5c4.1,0,7.9-1.2,10.3-2.5l-0.1,2.3c0,1.5-2.4,3.9-4.2,5.7 C30.5,334.3,28.2,336,28.2,338.8L28.2,338.8z" class="st0"/></g><g><path d="M94.1,343.3L94.1,343.3l-0.4,0.3l-8.7,4.6c-0.5,0.3-1.1,0.4-1.6,0.4l-0.1,0c-0.4,0-0.9-0.1-1.3-0.2l-0.6-0.3 c-1-0.4-1.6-1.3-1.6-2.4v-0.2l-0.6,0.3c-0.5,0.3-1.1,0.4-1.6,0.4l-0.1,0c-0.4,0-0.9-0.1-1.3-0.2l-0.6-0.3c-1-0.4-1.6-1.3-1.6-2.4 v-0.2l-0.6,0.3c-0.5,0.3-1.1,0.4-1.6,0.4l-0.1,0c-0.4,0-0.9-0.1-1.3-0.2l-0.6-0.3c-1-0.4-1.6-1.3-1.6-2.4v-7.9l-13.4,7.1v1.1 l34.7,13.9l13.6-7.3v-1.1L94.1,343.3L94.1,343.3z M90.4,327l-9.3,4.9c-0.4,0.2-0.6,0.6-0.6,1v12.9c0,0.7,0.4,1.3,1.1,1.6l0.6,0.3 c0.3,0.1,0.6,0.2,1,0.2c0,0,0,0,0,0c0.4,0,0.8-0.1,1.2-0.3l8.7-4.6v-14.7l-9.1,4.8c-0.3,0.1-0.6,0.2-0.8,0.2c-0.2,0-0.4,0-0.6-0.1 l-1.2-0.5l8.9-4.7V327L90.4,327z M86.3,333.9l5.8-3.1v2.3l-5.8,3.1V333.9L86.3,333.9z M84.6,324.7l-9.3,4.9c-0.4,0.2-0.6,0.6-0.6,1 v12.9c0,0.7,0.4,1.3,1.1,1.6l0.6,0.3c0.3,0.1,0.6,0.2,1,0.2c0,0,0,0,0.1,0c0.4,0,0.9-0.1,1.2-0.3l0.7-0.4c0,0,0,0,0-0.1l0,0 c0-0.1,0-0.1,0-0.2v-12.8c0-0.4,0.2-0.8,0.6-1l7.5-4v-0.9l-9.1,4.8c-0.3,0.1-0.6,0.2-0.8,0.2c-0.2,0-0.4,0-0.6-0.1l-1.2-0.5 l8.9-4.7V324.7L84.6,324.7z M70.1,342.7l0.6,0.3c0.3,0.1,0.6,0.2,1,0.2c0,0,0,0,0.1,0c0.4,0,0.8-0.1,1.2-0.3l0.7-0.4c0,0,0,0,0-0.1 l0,0c0-0.1,0-0.1,0-0.2v-12.8c0-0.4,0.2-0.8,0.6-1l7.5-4v-0.9l-9.1,4.8c-0.3,0.1-0.6,0.2-0.8,0.2c-0.2,0-0.4,0-0.6-0.1l-1.2-0.5 l8.9-4.7v-0.9l-9.3,4.9c-0.4,0.2-0.6,0.6-0.6,1v12.9C69,341.8,69.4,342.4,70.1,342.7L70.1,342.7z" class="st0"/></g><g><path d="M134.4,329.9l0.1-0.1c0.3-0.2,0.8-0.4,1.5-0.4c2.7,0,5.9,2.3,6,8.6l1.8-0.8c0-8-4.8-8.8-6.8-8.8 c-1.5,0-2.6,0.4-2.9,0.7l-0.2,0.2l-0.7-1l-0.1,2.5l2.1,0.2L134.4,329.9L134.4,329.9z M126,329.4c0.6,0,1.2,0.1,1.5,0.4l0.1,0.1 l-0.7,1l2.1-0.2l-0.1-2.5l-0.7,1l-0.2-0.2c-0.3-0.3-1.4-0.7-2.9-0.7c-1.2,0-3,0.3-4.5,1.7c-1.5,1.5-2.3,3.9-2.3,7.1l1.8,0.8 C120.1,331.6,123.2,329.4,126,329.4L126,329.4z M118.3,343.5l12.7,5.9l12.7-5.8l-12.7-4.2L118.3,343.5L118.3,343.5z" class="st0"/><path d="M144.7,335.8c0,0.5,0.1,1,0.1,1.5v0.5l-3.8,1.8v-1.3c0-0.8-0.1-1.6-0.2-2.4l-8.5,2.8l12.9,4.1l9.9-4.6 L144.7,335.8L144.7,335.8z" class="st0"/><path d="M121.2,335.9c-0.1,0.8-0.2,1.5-0.2,2.4v1.3l-3.8-1.8v-0.5c0-0.5,0-0.9,0.1-1.5l-10.4,2.4l9.9,4.6l12.9-4.1 L121.2,335.9L121.2,335.9z" class="st0"/></g><g><path d="M200.6,351.6c-0.1-0.4-0.4-0.7-0.8-0.7h-9.8l-21.5,4.6l-0.6,3c-0.1,0.5,0.3,1,0.8,1h32.4c0.5,0,1-0.5,0.8-1 L200.6,351.6L200.6,351.6z" class="st0"/><path d="M198.3,345.1l-0.5-2.5l0,0c0-0.1,0-0.2-0.1-0.3l-2.9-6.4c-0.3-0.7-0.9-1.1-1.6-1.1c-0.1,0-0.2,0-0.4,0 l-11.1,2.4c-0.1-0.1-0.1-0.2-0.1-0.4c-0.3-2,0.1-4.7,1.2-6.3c1.3-1.7,1.9-4,1.4-6.2c-0.9-4.3-5.2-7-9.4-5.9 c-3.8,0.9-6.5,5.1-5.8,8.9c0.4,2.4,1.9,4.3,3.8,5.4c1.8,1,3.2,3.3,3.8,5.4c0,0.1,0,0.2,0,0.3l-11.1,2.4c-0.8,0.2-1.4,0.9-1.4,1.8 v7.1c0,0.1,0,0.2,0,0.3l0,0l0.6,2.5c0.2,0.9,1.1,1.5,2,1.3l30.3-6.4C197.9,347,198.5,346.1,198.3,345.1L198.3,345.1z M196.2,343 C196.2,343,196.2,343,196.2,343l-30.4,6.5c0,0-0.1,0-0.1-0.1v-7l0,0c0,0,0-0.1,0.1-0.1l10-2.1c-0.1,0.1-0.2,0.3-0.3,0.4 c-0.5,0.6-0.7,1.3-0.6,2c0.4,1.7,2.9,2.6,5.7,2c2.8-0.6,4.8-2.4,4.4-4.1c-0.1-0.7-0.6-1.2-1.4-1.6c-0.2-0.1-0.3-0.2-0.4-0.2l10-2.1 c0,0,0,0,0,0c0,0,0.1,0,0.1,0.1l0,0l0,0L196.2,343C196.2,343,196.2,343,196.2,343L196.2,343z" class="st0"/></g><g><path d="M249.1,330v9.4h1.9V330c2.9-0.5,5.1-3,5.1-6c0-3.4-2.7-6.1-6.1-6.1c-3.4,0-6.1,2.7-6.1,6.1 C243.9,327,246.2,329.6,249.1,330L249.1,330z M245,323.6c0-2.5,2-4.6,4.5-4.6c1.5,0,1.9,1,1,1c-2.5,0-4.5,2.1-4.5,4.6 C246,325.6,245,325.1,245,323.6L245,323.6z M252.1,335.3l0,0.9c3.9,0.3,6.1,1.7,6.1,2.7c0,1.1-3.1,2.7-8.2,2.7 c-5.1,0-8.2-1.6-8.2-2.7c0-1,2.3-2.3,6.1-2.6l0-0.9c-3.4,0.3-6.4,1.3-7,2.9c-0.3,0-0.6,0-0.9,0l0.1,1.1c0.3,0,0.6,0,0.9,0 c0.7,2,5,3,9.1,3c4.5,0,9.2-1.3,9.2-3.6C259.3,336.9,255.9,335.6,252.1,335.3L252.1,335.3z M233,344.5c0,0.4,0.1,0.7,0.2,1.1 l1.1-0.2c-0.1-0.4-0.1-0.7-0.1-1.1L233,344.5L233,344.5z M234.2,342.4l-1.1-0.3c-0.1,0.4-0.2,0.8-0.2,1.2l1.1,0 C234.1,343.1,234.1,342.7,234.2,342.4L234.2,342.4z M235.2,340.9l-0.7-0.8c-0.3,0.3-0.6,0.6-0.8,1l0.9,0.6 C234.7,341.3,234.9,341.1,235.2,340.9L235.2,340.9z M234,350l1.1-0.2c-0.1-0.3-0.1-0.7-0.2-1.1l-1.1,0.2 C233.9,349.4,234,349.7,234,350L234,350z M235.5,339.3l0.5,1c0.3-0.1,0.6-0.3,0.9-0.4l-0.3-1.1C236.2,339,235.8,339.2,235.5,339.3 L235.5,339.3z M234.1,351.1c0,0.2,0,0.3,0,0.5c0,0.2,0,0.4,0,0.5l1.1,0.1c0-0.2,0-0.4,0-0.7c0-0.2,0-0.4,0-0.5L234.1,351.1 L234.1,351.1z M233.5,353.8l0.8,0.7c0.3-0.3,0.5-0.7,0.7-1.1l-1-0.4C233.8,353.3,233.6,353.6,233.5,353.8L233.5,353.8z M237.7,338.6l0.2,1.1c0.3-0.1,0.7-0.1,1-0.2l-0.1-1.1C238.4,338.5,238.1,338.5,237.7,338.6L237.7,338.6z M233.6,347.9l1.1-0.2 l0-0.1c-0.1-0.3-0.1-0.6-0.2-1l-1.1,0.2c0.1,0.3,0.1,0.6,0.2,1L233.6,347.9L233.6,347.9z M229.8,355.2l0.1,1.1 c0.4,0,0.8-0.1,1.1-0.2l-0.2-1.1C230.5,355.1,230.2,355.1,229.8,355.2L229.8,355.2z M231.8,354.8l0.4,1.1c0.4-0.1,0.8-0.3,1.1-0.5 l-0.6-0.9C232.5,354.5,232.2,354.7,231.8,354.8L231.8,354.8z" class="st0"/><path d="M227.8,355.8c-0.7-1.6-4.2-2.9-8.5-2.9c-4.8,0-8.6,1.5-8.6,3.5c0,1.9,3.9,3.5,8.6,3.5c4.3,0,7.8-1.3,8.5-2.9 c0.1,0,0.2,0,0.4,0l0-1.1C228,355.8,227.9,355.8,227.8,355.8L227.8,355.8z" class="st0"/></g><g><path d="M305.6,322.9c-0.1-0.6-0.6-1-1.2-0.9c-16.6,2.1-27.1,13.8-28.3,21.6l-4-3.4c-0.3-0.2-0.6-0.3-0.9-0.2 c-0.3,0.1-0.6,0.3-0.8,0.6c-1.2,2.4-1.8,4-2,7.3c0,0.3,0.1,0.7,0.4,0.9l11.2,10.3c0.2,0.2,0.5,0.3,0.7,0.3c0.1,0,0.3,0,0.4-0.1 c0.4-0.2,0.7-0.5,0.7-0.9c0.9-12.1,1.9-27.4,23-34.1C305.3,323.9,305.7,323.4,305.6,322.9L305.6,322.9z" class="st0"/><path d="M279.9,328.6c0.5,0.3,1.1,0.4,1.7,0.4l0,0c1.8,0,3.7-1.3,4.8-3.3c1.5-2.7,1.1-5.8-1-7 c-0.5-0.3-1.1-0.4-1.7-0.4c-1.8,0-3.7,1.3-4.8,3.3c-0.7,1.3-1,2.7-0.9,4C278.2,327,278.8,328.1,279.9,328.6L279.9,328.6z" class="st0"/></g></svg>