<?xml version="1.0" encoding="UTF-8"?>
<svg width="95px" height="29px" viewBox="0 0 95 29" version="1.1" xmlns="http://www.w3.org/2000/svg" xmlns:xlink="http://www.w3.org/1999/xlink">
    <!-- Generator: Sketch 44 (41411) - http://www.bohemiancoding.com/sketch -->
    <title>Katapult logo_REV_white</title>
    <desc>Created with Sketch.</desc>
    <defs>
        <polygon id="path-1" points="0 28.9919816 94.8779337 28.9919816 94.8779337 0.0916774194 0 0.0916774194"></polygon>
    </defs>
    <g id="Symbols" stroke="none" stroke-width="1" fill="none" fill-rule="evenodd">
        <g id="element-/-footer-copy" transform="translate(-1210.000000, -423.000000)">
            <g id="Katapult-logo_REV_white" transform="translate(1210.000000, 423.000000)">
                <g id="Group-3">
                    <mask id="mask-2" fill="white">
                        <use xlink:href="#path-1"></use>
                    </mask>
                    <g id="Clip-2"></g>
                    <path d="M51.4280959,22.6963088 L51.3544006,23.0158433 C51.0448801,24.3579954 50.8170945,25.3454654 50.7906982,25.4609309 C50.54067,26.5871198 50.9754725,27.3424562 51.2569887,27.6924608 C51.8481594,28.426682 52.819732,28.7546359 53.8189069,28.5246406 L55.9442807,28.0345806 C56.4730113,27.9135023 57.7392313,27.452576 58.123519,25.7874147 L58.123519,25.7788618 L58.1307546,25.752 C58.1381241,25.7254055 58.1445557,25.6982765 58.1511213,25.6708802 L58.7857052,22.9359263 L59.0329196,22.9384654 C60.5924471,22.9384654 62.1634979,22.3821198 63.4562482,21.3717972 C63.5623695,21.2884055 63.6640691,21.2046129 63.7577292,21.1232258 L63.9151693,20.9866452 L64.046347,21.1486175 C64.9659309,22.2858986 66.342158,22.9381982 67.8220945,22.9381982 C68.7774542,22.9381982 69.6611283,22.7436175 70.4485966,22.3599355 L70.5493583,22.3108894 L70.6442243,22.3704931 C71.2316432,22.7409447 71.9448801,22.9364608 72.70689,22.9364608 C73.9566291,22.9364608 75.1332087,22.5509078 76.2040691,21.7900922 L76.3335049,21.6982811 L76.4530254,21.8025207 C77.3045416,22.5455622 78.4133216,22.9381982 79.6599788,22.9381982 C80.5776869,22.9381982 81.4519817,22.7095392 82.2586107,22.2586359 L82.36567,22.198765 L82.4679055,22.2665207 C83.141347,22.712212 83.9836178,22.9381982 84.9712694,22.9381982 C86.8529126,22.9381982 88.6482652,21.9274747 90.3076164,19.9339585 L90.3935049,19.830788 L90.5217348,19.8704793 C90.7996333,19.9562765 91.0984344,19.9998433 91.4099647,19.9998433 C93.1292102,19.9998433 94.4759591,18.6444608 94.4759591,16.9143502 C94.4759591,15.1453502 92.9958886,13.7596313 91.1066079,13.7596313 C90.6242384,13.7596313 90.1594217,13.8522442 89.6854937,14.0425484 L89.3274683,14.1863456 L89.4146968,13.8112166 C89.4653456,13.5933825 89.5159944,13.3719401 89.5667772,13.1483594 L89.5946474,13.0254101 L91.628103,12.5576682 C92.1599154,12.4356544 93.4367207,11.9707189 93.812969,10.2905899 L93.844055,10.1462581 C93.8671016,10.0364055 93.9023413,9.87617051 93.9164104,9.81523041 C94.1269111,8.90580645 93.9856841,8.13363134 93.4968829,7.51982028 C93.0486812,6.95786175 92.3693441,6.63552074 91.6329267,6.63552074 C91.421622,6.63552074 91.2065656,6.661447 90.9751622,6.71476959 L90.6688575,6.7853318 L90.6050776,6.6254977 C90.518385,6.40859908 90.4030183,6.20907373 90.2619252,6.0326682 C90.0212764,5.73023963 89.7061283,5.49062212 89.3499788,5.33947465 L89.2695839,5.30686636 C88.7990056,5.12591705 88.2972073,5.0990553 87.7392666,5.22748387 L87.4608322,5.29163134 C86.9716291,5.40429032 86.0687941,5.6125023 85.5301481,5.73558525 C85.4170592,5.7617788 85.2385825,5.81162673 85.0330395,5.89969585 L84.7182934,6.03427189 L84.7538011,5.69469124 C84.851347,4.75987558 84.4744288,4.12949309 84.2411495,3.83708756 C83.7863822,3.26617512 83.093244,2.9388894 82.3394076,2.9388894 C82.1394922,2.9388894 81.937165,2.96214286 81.7380536,3.00798157 L79.530677,3.51675115 C79.0184274,3.63448848 77.8092877,4.0734977 77.3865444,5.62760369 L77.3912341,5.63000922 L77.346079,5.79478802 C77.3407193,5.81496774 77.3354937,5.83581567 77.3308039,5.85626267 L76.6361918,8.8924424 L76.4085402,8.7820553 C76.0777151,8.62182028 75.7212976,8.54056682 75.3489351,8.54056682 C75.1397743,8.54056682 74.92378,8.56676037 74.6887588,8.62061751 C74.3994711,8.68743779 73.1545557,8.97409677 72.4832581,9.12858525 C72.2033498,9.19313364 71.66189,9.36740092 71.1819323,9.8062765 L71.0243583,9.95060829 L70.8898307,9.78462673 C70.442299,9.23269124 69.7676516,8.91623041 69.0386037,8.91623041 C68.827835,8.91623041 68.6122426,8.94215668 68.3789633,8.99547926 L66.1715867,9.50411521 C65.9849365,9.54754839 65.6961848,9.63628571 65.3833145,9.81202304 L65.2589704,9.88178341 L65.1519111,9.78770046 C64.3141961,9.05174194 63.2683921,8.66271429 62.1274542,8.66271429 C61.2634767,8.66271429 60.466897,8.7975576 59.7599577,9.06336866 L59.6898801,9.08969585 L59.6196685,9.06390323 C59.1515021,8.89230876 58.6637729,8.87039171 58.1193653,8.99547926 L56.0118124,9.48086175 C55.5260931,9.59271889 55.0971862,9.81576498 54.7370169,10.1435853 L54.5531805,10.3109032 L54.4278984,10.0965438 C54.3669323,9.99230415 54.2992666,9.8932765 54.2267772,9.80240092 C53.7773695,9.23923963 53.0964245,8.91623041 52.3583992,8.91623041 C52.1483004,8.91623041 51.93311,8.94215668 51.7007687,8.99547926 L50.2970733,9.31942396 L50.2272638,9.27719355 C49.5514104,8.86945622 48.7695698,8.66271429 47.9034485,8.66271429 C47.5133992,8.66271429 47.1016432,8.70975576 46.6794358,8.8025023 L46.4696051,8.84860829 L46.4375811,8.63665438 C46.3744711,8.21849309 46.2119394,7.84269585 45.9545416,7.519553 C45.5067419,6.95772811 44.8271368,6.63552074 44.0903173,6.63552074 C43.890536,6.63552074 43.6829831,6.6601106 43.4558674,6.71076037 L43.2911918,6.74751152 L43.2263399,6.5922212 C43.1392454,6.38294009 43.0315162,6.19958525 42.8972567,6.0313318 C42.449055,5.46990783 41.7698519,5.1478341 41.0339704,5.1478341 C40.8221298,5.1478341 40.6072073,5.17376037 40.3767419,5.22694931 L38.1677574,5.73558525 C37.6417066,5.85693088 36.3836601,6.31625346 35.9932087,7.96310599 L35.9932087,8.04609677 L35.9712341,8.06854839 C35.9591749,8.11278341 35.9475176,8.15835484 35.9373343,8.20499539 L35.8759661,8.46626267 L35.7757405,8.50394931 C35.5598801,8.58547005 35.2365585,8.73848848 34.9222144,9.00496774 L34.8359238,9.07833641 L34.7284626,9.04252074 C34.4769605,8.95872811 34.215409,8.91623041 33.9510437,8.91623041 C33.741079,8.91623041 33.5260226,8.94215668 33.2938152,8.99547926 L31.888646,9.31942396 L31.8188364,9.27719355 C31.1432511,8.86945622 30.3616784,8.66271429 29.4956911,8.66271429 C26.948646,8.66271429 24.2428209,10.463788 22.7626164,13.1446175 L22.5568054,13.5172074 L22.3996333,13.121765 C22.3019535,12.8758664 22.1940903,12.6422627 22.0788575,12.4273687 L22.0117278,12.3021475 L22.1079337,12.1975069 C22.6448378,11.6128295 23.1077786,10.9101475 23.4834908,10.1089724 C23.8072144,9.41778341 24.0860508,8.69612442 24.3607334,7.83761751 L24.414598,7.66896313 L24.589055,7.70143779 C24.7838787,7.73778802 24.9902257,7.75623041 25.2022003,7.75623041 C27.2083216,7.75623041 28.9031805,6.10764055 28.9031805,4.15635484 C28.9031805,3.20804147 28.4979901,2.27977419 27.7915867,1.60943318 C27.2549506,1.09986175 26.2855219,0.492599078 24.7140691,0.492599078 C24.1819887,0.492599078 23.606897,0.56316129 23.0048731,0.702414747 C20.6920451,1.23417051 18.7880254,2.56429493 17.3457405,4.65590323 L17.1962059,4.87253456 L17.0264386,4.67140553 C16.5625599,4.1222765 15.8675458,3.80741935 15.1196051,3.80741935 C14.8896756,3.80741935 14.6551904,3.83561751 14.4027504,3.89388479 L12.5614386,4.31632258 C11.6039351,4.53602765 10.5187377,4.78526728 9.93748237,4.91917512 C9.34108604,5.05615668 7.94489422,5.37702765 6.64866008,6.05431797 C3.96454161,7.4572765 3.56390691,9.44731797 3.56390691,10.5086912 C3.56390691,12.3886129 4.96572638,13.8611982 6.75518336,13.8611982 C7.05599436,13.8611982 7.35358956,13.8236452 7.63992948,13.7496083 L7.96150917,13.6664839 L7.88607193,13.9892258 C7.84131876,14.1808664 7.79562764,14.3778525 7.74926657,14.5799171 C7.41120592,16.0386037 7.09203808,17.4160369 6.80020451,18.5367465 L6.72825106,18.812447 L6.49242595,18.6519447 C5.88611425,18.2393963 5.12718618,18.0301152 4.23654443,18.0301152 C2.12215797,18.0301152 0.401974612,19.7695806 0.401974612,21.9076959 C0.401974612,24.4178664 2.72766573,26.1710968 6.0577574,26.1710968 C6.73200282,26.1710968 7.42406911,26.0975945 8.11479549,25.9521935 C11.288385,25.2854608 13.7290409,22.4405207 14.9874894,17.9416452 L15.2246544,17.0940968 L15.3788787,17.9604885 C15.9697814,21.2763779 17.5262271,22.957576 20.0052045,22.957576 C20.3227645,22.957576 20.6491678,22.9297788 21.0031735,22.8725806 C21.8733145,22.7321244 22.6777997,22.406977 23.3941185,21.9063594 L23.5172567,21.8204286 L23.6347673,21.9138433 C24.3931594,22.5170968 25.2907687,22.8695069 26.2301834,22.9333871 C26.3684626,22.9427419 26.5129055,22.947553 26.6596262,22.947553 C27.5678209,22.947553 28.4123695,22.7535069 29.1708956,22.3707604 L29.2720592,22.319576 L29.3682652,22.3795806 C29.9515303,22.7440184 30.6592736,22.9364608 31.4151199,22.9364608 C32.0198237,22.9364608 33.2366008,22.8195253 34.5903173,22.0367926 L34.7110437,21.9670323 L34.8187729,22.0555023 C35.5329478,22.6411152 36.4712906,22.9381982 37.6078068,22.9381982 C38.9772003,22.9381982 40.264055,22.4737972 41.4325952,21.5580922 L41.5700705,21.4502442 L41.6961566,21.5713226 C42.4794711,22.3235853 43.4881594,22.8038894 44.5362412,22.923765 C45.6854866,23.0552673 46.7304866,22.8788618 47.6468547,22.4135253 L47.7456065,22.3634101 L47.8406065,22.4198065 C48.4115444,22.7577834 49.0975811,22.9364608 49.8248872,22.9364608 C50.2566079,22.9364608 50.6885966,22.8827373 51.1091961,22.7766267 L51.4280959,22.6963088 Z M53.1809732,29 C52.2995769,29 51.4841044,28.6149816 50.9434485,27.9434378 C50.6169111,27.5374378 50.112031,26.6636959 50.3985049,25.3729954 C50.4231594,25.2652811 50.618519,24.4182673 50.8911918,23.235682 C50.539464,23.3033041 50.1821086,23.3373825 49.8248872,23.3373825 C49.0654231,23.3373825 48.3441467,23.1585714 47.7311354,22.8193917 C46.7677362,23.2841935 45.6781171,23.4584608 44.4904161,23.3220138 C43.4111142,23.19853 42.3714739,22.7233041 41.5442102,21.9781244 C40.3394922,22.8814009 39.0160578,23.3391198 37.6078068,23.3391198 C36.431897,23.3391198 35.4451834,23.0405668 34.6725882,22.4513456 C33.3573272,23.181424 32.1800776,23.3373825 31.4151199,23.3373825 C30.6248378,23.3373825 29.8795769,23.1442719 29.2518265,22.7779631 C28.4628843,23.1567005 27.5916714,23.3484747 26.6602962,23.3484747 C26.5037941,23.3484747 26.3501058,23.3433963 26.2028491,23.3332396 C25.2299365,23.2673548 24.2992313,22.9170829 23.5019817,22.3183733 C22.7669041,22.8068295 21.9486178,23.1260968 21.0673554,23.2682903 C20.6920451,23.3289631 20.3444711,23.3584977 20.0052045,23.3584977 C17.5090762,23.3584977 15.8769252,21.8291152 15.1460014,18.8099078 C13.7878632,23.0202535 11.3399718,25.6842442 8.19773625,26.3444286 C7.47980959,26.4954424 6.75973907,26.5720184 6.0577574,26.5720184 C2.49103667,26.5720184 0,24.6540092 0,21.9076959 C0,19.5485392 1.90053597,17.6291935 4.23654443,17.6291935 C5.09730606,17.6291935 5.8503385,17.8113456 6.47929478,18.171106 C6.7512976,17.1061244 7.04648096,15.8323963 7.35747532,14.489977 C7.37944993,14.3941567 7.40129055,14.2994055 7.42299718,14.2057235 C7.20378702,14.2432765 6.98015515,14.2621198 6.75518336,14.2621198 C4.74021862,14.2621198 3.1619323,12.6133963 3.1619323,10.5086912 C3.1619323,9.35684332 3.59057123,7.20015207 6.46200987,5.69923502 C7.8042031,4.9978894 9.23576869,4.66886636 9.84717207,4.52841014 C10.4282934,4.3945023 11.5136248,4.14539631 12.4713963,3.9255576 L14.3124401,3.50311982 C14.5947602,3.43817051 14.8588575,3.4064977 15.1196051,3.4064977 C15.897158,3.4064977 16.6266079,3.70170968 17.1585543,4.22424424 C18.6417066,2.1651106 20.5770804,0.849152074 22.9144288,0.31178341 C23.5457969,0.165714286 24.1514386,0.0916774194 24.7140691,0.0916774194 C26.4184415,0.0916774194 27.4791185,0.759211982 28.0686812,1.31903226 C28.8544076,2.0646129 29.3051551,3.09885714 29.3051551,4.15635484 C29.3051551,6.32494009 27.4261918,8.15715207 25.2022003,8.15715207 C25.0277433,8.15715207 24.8563681,8.14592627 24.6906206,8.12360829 C24.4274612,8.92758986 24.1580042,9.61623963 23.8476798,10.2786959 C23.4765233,11.0698479 23.0232299,11.7705253 22.498653,12.3634885 C22.5379126,12.4407327 22.5762341,12.5199816 22.6136178,12.6008341 C24.1994076,9.99056682 26.9202398,8.26179263 29.4956911,8.26179263 C30.4061636,8.26179263 31.2334274,8.47388018 31.9560437,8.8924424 L33.2035049,8.60484793 C33.7605078,8.47695392 34.2578843,8.48630876 34.7484274,8.62876959 C34.9863963,8.44033641 35.2495557,8.28611521 35.5329478,8.1687788 L35.545275,8.11639171 C35.5551904,8.07162212 35.5664457,8.02658525 35.578237,7.98208295 L35.5911001,7.91820276 C36.0197391,6.01435945 37.4726093,5.48447465 38.0773131,5.34495392 L40.2862976,4.83631797 C40.5466432,4.77617972 40.7913117,4.74691244 41.0339704,4.74691244 C41.8929901,4.74691244 42.68689,5.12404608 43.2117348,5.7815576 C43.3342031,5.93497696 43.4407264,6.10443318 43.5294288,6.28698618 C43.7247884,6.25183871 43.9095628,6.23459908 44.0903173,6.23459908 C44.950409,6.23459908 45.7445769,6.612 46.2692877,7.27004608 C46.5276234,7.59452535 46.7043583,7.96350691 46.7961425,8.36950691 C48.1478491,8.1150553 49.3591326,8.31030415 50.3643371,8.8924424 L51.6104584,8.60484793 C51.8730818,8.54457604 52.1176164,8.51530876 52.3583992,8.51530876 C53.2195628,8.51530876 54.0152045,8.89351152 54.5412553,9.55276037 C54.577701,9.59846544 54.6128068,9.64564055 54.6469746,9.69441935 C55.0189351,9.40241475 55.4465021,9.19954839 55.9212341,9.09036406 L58.029055,8.60484793 C58.6180818,8.46920276 59.169591,8.48831336 59.6873343,8.66271429 C60.4222779,8.39663594 61.242842,8.26179263 62.1274542,8.26179263 C63.3198449,8.26179263 64.4175035,8.65335945 65.3109591,9.39586636 C65.6165938,9.24057604 65.8934203,9.15718433 66.0806065,9.11361751 L68.288787,8.60484793 C68.5522144,8.54457604 68.7974189,8.51530876 69.0386037,8.51530876 C69.8188364,8.51530876 70.5468124,8.82709217 71.0664316,9.37729032 C71.5713117,8.97356221 72.1041961,8.80464055 72.3926798,8.73795392 C73.0641114,8.58359908 74.3090268,8.29680645 74.5984485,8.22998618 C74.8636178,8.16917972 75.1090903,8.13964516 75.3489351,8.13964516 C75.6977151,8.13964516 76.0347038,8.20098618 76.3540056,8.32219816 L76.9390127,5.76725806 C76.9422285,5.75282488 76.9455783,5.73812442 76.94933,5.72369124 L76.9565656,5.69068203 C77.3901622,3.79151613 78.8379408,3.26457143 79.4402327,3.12611982 L81.6476093,2.61735023 C81.8764669,2.56469585 82.1090762,2.53796774 82.3394076,2.53796774 C83.2166502,2.53796774 84.0243512,2.92058065 84.5557616,3.58758065 C84.7997602,3.89335023 85.1788223,4.515447 85.1715867,5.41979263 C85.277976,5.38531336 85.3696262,5.36125806 85.4398378,5.34495392 C85.9786178,5.22173733 86.8813188,5.01365899 87.3703879,4.901 L87.6488223,4.83685253 C88.2804584,4.69118433 88.8700212,4.72365899 89.4175106,4.93414286 L89.5043371,4.96942396 C89.9249365,5.1478341 90.2946192,5.42874654 90.5765374,5.78302765 C90.7067772,5.94606912 90.8183921,6.12568203 90.9095063,6.31852535 C91.1610085,6.26212903 91.3981735,6.23459908 91.6329267,6.23459908 C92.4926164,6.23459908 93.2865162,6.61213364 93.8114951,7.27031336 C94.3804231,7.98462212 94.5475106,8.87105991 94.3080677,9.90517051 C94.2944006,9.96464055 94.2599647,10.1212673 94.2371862,10.2295161 L94.2056982,10.3762535 C93.7792031,12.280765 92.324323,12.8093134 91.7184133,12.9482995 L89.9308322,13.3596452 C89.916763,13.421788 89.9026939,13.4836636 89.8884908,13.5454055 C90.2907334,13.4213871 90.6991396,13.3587097 91.1066079,13.3587097 C93.2213963,13.3587097 94.8779337,14.9205668 94.8779337,16.9143502 C94.8779337,18.8693779 93.3545839,20.400765 91.4099647,20.400765 C91.10567,20.400765 90.8112906,20.3636129 90.5325882,20.2905115 C88.8162906,22.3134286 86.9456347,23.3391198 84.9712694,23.3391198 C83.9519958,23.3391198 83.0704654,23.1128664 82.348787,22.6665069 C81.5110719,23.1128664 80.607031,23.3391198 79.6599788,23.3391198 C78.3723202,23.3391198 77.2173131,22.9478203 76.3087165,22.2059816 C75.2027504,22.9569078 73.9918688,23.3373825 72.70689,23.3373825 C71.9092384,23.3373825 71.1575458,23.1407972 70.5248378,22.7678065 C69.7077574,23.1470783 68.7990268,23.3391198 67.8220945,23.3391198 C66.2893653,23.3391198 64.8590056,22.6924332 63.8657264,21.5575576 C63.8134697,21.6005899 63.7596051,21.644023 63.7045346,21.6871889 C62.3608674,22.7372028 60.7300564,23.3222811 59.1047391,23.3391198 L58.5425106,25.7618894 C58.5368829,25.7859447 58.5313893,25.8091982 58.5253597,25.8324516 L58.5213399,25.8502258 C58.0941749,27.7580783 56.6398307,28.2867604 56.034591,28.4253456 L53.9092172,28.9154055 C53.6644147,28.9716682 53.4194781,29 53.1809732,29 L53.1809732,29 Z" id="Fill-1" fill="#FFFFFF" mask="url(#mask-2)"></path>
                </g>
                <path d="M90.693914,15.1715438 C89.7669605,15.1715438 88.8111989,16.1735806 87.8800917,17.0546728 C87.3469394,17.5591659 86.8625599,17.7868894 86.3807264,17.7868894 C85.7288575,17.7868894 85.9232793,16.7096129 86.2972496,15.0428479 C86.5330748,13.9909631 86.9973554,11.9721889 87.3990621,10.2312535 C88.9372849,9.87737327 90.4119958,9.53805991 90.7164245,9.46803226 C91.089859,9.38223502 91.1741396,9.10372811 91.2233145,8.88054839 C91.232158,8.84473272 91.3083992,8.48617512 91.3284979,8.39823963 C91.4295275,7.96457604 91.3481946,7.89882488 91.0594429,7.96484332 C90.9199577,7.99705069 89.3757052,8.3526682 87.7463681,8.72739631 C87.9844711,7.69809677 88.1453949,7.00436866 88.1239563,7.09617972 C88.2247179,6.66291705 88.143921,6.59689862 87.8551693,6.66318433 C87.5686953,6.72920276 86.3334274,7.01399078 85.6668195,7.16687558 C85.293385,7.25280645 85.2088364,7.53131336 85.1591255,7.75449309 C85.1824401,7.64931797 85.0201763,8.34692166 84.7733639,9.41136866 C84.311763,9.5176129 83.9738364,9.59552535 83.8453385,9.62519355 C83.4713681,9.71112442 83.3872214,9.98963134 83.3373766,10.2125438 C83.3337588,10.2279124 83.2461283,10.6360507 83.2324612,10.6948525 C83.1322355,11.1283825 83.2126305,11.194 83.5015162,11.1283825 C83.5643583,11.1138157 83.9126023,11.0338986 84.4253879,10.9156267 C84.0704443,12.4472811 83.6564104,14.2376636 83.3439422,15.5891705 C82.5497743,17.0777926 81.4795839,18.1978341 80.6018054,18.1978341 C79.3576939,18.1978341 79.2563963,17.4114931 79.9828984,14.3872074 C80.3356982,12.9197005 82.1226093,5.16293548 82.1870592,4.88482949 C82.2571368,4.58186636 82.1995205,4.3987788 81.9103667,4.46466359 C81.6230889,4.53121659 80.3888928,4.81600461 79.7225529,4.9688894 C79.3496544,5.05482028 79.2656417,5.33332719 79.2151269,5.55677419 C79.2409873,5.43957143 77.2695698,14.0637972 76.9718406,15.3351198 C76.9167701,15.5695253 76.8771086,15.7916359 76.8442807,16.0075991 C75.96811,17.2210553 74.9164104,17.8474286 74.2964316,17.8474286 C73.6448307,17.8474286 73.9142877,16.7056037 74.2989774,15.0407097 C74.6284626,13.6174378 75.3524189,10.5482488 75.3741255,10.4565714 C75.4743512,10.0234424 75.3939563,9.95742396 75.1048025,10.0238433 C74.8179267,10.0902627 73.5833286,10.3747834 72.9167207,10.5280691 C72.5432863,10.6138664 72.4590056,10.8925069 72.4087588,11.115553 C72.4346192,10.9983502 72.120677,12.2925253 71.8261636,13.5645161 C70.9662059,17.278788 70.0960649,18.459235 69.0893865,18.5519816 C67.8503667,18.6661106 67.5567913,17.4114931 68.2830254,14.3872074 C68.6355571,12.9197005 69.1492807,10.7134286 69.1230183,10.8290276 C69.223512,10.3954977 69.1421791,10.3294793 68.8538293,10.3958986 C68.5661495,10.4620507 67.3316855,10.7465714 66.6654795,10.8999908 C66.2927151,10.9856544 66.2077645,11.2646959 66.1584556,11.4874747 C66.1841819,11.3701382 65.5699647,14.0637972 65.2718336,15.3351198 C64.5626164,18.3619447 66.1394288,19.8656682 67.8044076,19.8656682 C69.7704654,19.8656682 70.6542736,18.6300276 71.1772426,17.7844839 C71.1772426,17.7844839 70.7997884,19.8640645 72.642708,19.8640645 C74.4502539,19.8640645 75.8006206,18.5217788 76.7671016,17.0004147 C76.7780889,18.9112074 77.8277786,19.8656682 79.3554161,19.8656682 C80.8549154,19.8656682 82.0424824,18.7581889 82.9595205,17.248318 C82.935,17.3565668 82.9128914,17.451318 82.8974824,17.5170691 C82.6700987,18.4991935 82.617976,19.8656682 84.6168618,19.8656682 C85.9246192,19.8656682 87.1321509,19.001682 88.2801904,17.5937788 C89.1788717,16.490977 89.4152327,16.2699355 89.8119817,16.2699355 C90.3715303,16.2699355 90.3257052,16.9553779 90.994323,16.9553779 C91.4413188,16.9553779 91.8268124,16.6349078 91.8268124,16.0974055 C91.8268124,15.5933134 91.3924118,15.1715438 90.693914,15.1715438 M62.1274542,10.081977 C59.8473202,10.081977 59.1012553,11.3301797 58.5735966,12.1834747 L58.5735966,12.1821382 C58.7429619,11.4539309 58.9538646,10.5306083 58.8926305,10.7949493 C58.9941961,10.3571429 58.9116573,10.2904562 58.6207616,10.3572765 C58.330536,10.4243641 57.3242595,10.6564977 56.5124048,10.8430599 C56.1356206,10.9299263 55.9722849,11.3272396 55.8739351,11.5660553 C55.5208674,12.4245622 55.542574,13.2840046 54.6460367,14.8681797 C53.6494076,16.6284931 52.2940832,17.8173594 51.5176023,17.8173594 C50.8588999,17.8173594 51.1043724,16.7269862 51.4953597,15.0467235 C51.6653949,14.3186498 52.4050282,11.1195622 52.4793935,10.7973548 C52.5804231,10.3599493 52.4942666,10.2904562 52.202701,10.3572765 C51.9122073,10.4243641 51.1551551,10.598765 50.4833216,10.7535207 C49.9942525,10.8660461 49.9020663,11.3609171 49.9020663,11.3609171 C49.9020663,11.3609171 49.4885684,10.081977 47.9037165,10.081977 C46.1114457,10.081977 43.2933357,11.7965853 42.4304302,15.1696728 C41.4222779,16.8078387 40.1288575,17.787023 39.3794429,17.787023 C38.7270381,17.787023 39.0068124,16.7094793 39.3809168,15.0428479 C39.6186178,13.9822765 40.0886601,11.9387788 40.4926446,10.1884885 C41.9618618,9.85051152 43.3316573,9.53511982 43.6240268,9.46803226 C43.9973272,9.38223502 44.0810719,9.10372811 44.1309168,8.88068203 C44.1394922,8.84473272 44.2151975,8.48617512 44.2352962,8.39837327 C44.3361918,7.96457604 44.2553949,7.89882488 43.9669111,7.96484332 C43.8323836,7.99584793 42.3992102,8.32553917 40.8402186,8.6844977 C41.0496474,7.78001843 41.1967701,7.14669585 41.2092313,7.09350691 C41.3081171,6.66278341 41.2274542,6.59689862 40.9392384,6.66318433 C40.6510226,6.72920276 39.4178984,7.01385714 38.7507546,7.16687558 C38.3770522,7.25280645 38.2934415,7.531447 38.2427927,7.75435945 C38.2659732,7.65052074 38.1088011,8.32807834 37.8676164,9.36847005 C37.3096756,9.49689862 36.8977856,9.59164977 36.7524048,9.62505991 C36.3787024,9.71112442 36.2946897,9.98963134 36.2441749,10.2126774 C36.2409591,10.2277788 36.1530606,10.6360507 36.1396615,10.6948525 C36.0399718,11.1285161 36.1206347,11.1941336 36.4088505,11.1285161 C36.4791961,11.112212 36.9062271,11.0138525 37.5193724,10.8727281 C37.2047602,12.2318525 36.8413752,13.8013272 36.543244,15.0896221 C35.5238364,16.7775023 34.0061142,17.7852857 33.2459803,17.7852857 C32.5930395,17.7852857 32.8369041,16.7046682 33.2233357,15.0407097 C33.3913611,14.3195853 34.1244288,11.1505668 34.1981241,10.8312995 C34.2986178,10.3983041 34.2125952,10.3293456 33.9242454,10.395765 C33.6356276,10.4620507 32.886615,10.6348479 32.220275,10.788 C31.7364316,10.8994562 31.6441114,11.3897834 31.6441114,11.3897834 C31.6441114,11.3897834 31.2347673,10.1227373 29.6653244,10.1227373 C27.8588505,10.1227373 24.9965233,11.8769032 24.1963258,15.3351198 C24.1349577,15.6002627 24.098646,15.8560507 24.0761354,16.1048894 C23.385811,17.3528249 22.8809309,17.8137512 22.2235684,17.6924055 C21.470536,17.5532857 21.4505712,16.8711843 20.948103,14.3936221 C20.5496121,12.4344516 19.7709873,11.3422074 18.2839492,11.4950922 C18.1278491,11.5109954 18.1112341,11.3995392 18.2653244,11.3546359 C19.0979478,11.1108756 20.6671227,10.6554286 21.7125247,8.4255023 C22.8850846,5.92428571 22.9073272,3.89054378 23.7750564,3.63823041 C24.431079,3.44712442 24.3798942,4.82776498 25.412031,4.82776498 C26.2701128,4.82776498 26.8737447,4.09661751 26.8737447,3.4602212 C26.8737447,2.75366359 26.172165,1.6183871 23.7292313,2.18088018 C20.7981664,2.85603226 19.1255501,5.04693548 17.8713893,8.32941475 C16.9618547,10.7079493 16.3488434,11.3880461 15.4394429,11.5971935 C14.7398731,11.7584977 14.2785402,11.8647419 14.4495134,11.0793364 C14.5974401,10.4040507 15.5344429,6.35407373 15.6549013,5.83541475 C15.7745557,5.31715668 15.5513258,5.2638341 15.2117913,5.34214747 C14.9337588,5.40616129 11.9118477,6.09882028 10.7876587,6.35808295 C9.64645275,6.620553 6.18303949,7.44337788 6.18303949,9.752553 C6.18303949,10.4311797 6.58648801,10.8745991 7.14000705,10.8745991 C7.73399154,10.8745991 8.15633286,10.5026774 8.15633286,9.99911982 C8.15633286,9.43635945 7.584189,9.22373733 7.584189,8.84473272 C7.584189,7.58971429 9.76061354,7.06998618 11.2633286,7.64143318 C11.7025529,7.80875115 11.7021509,8.04676498 11.589598,8.53121198 C11.5015656,8.91302304 11.0619394,10.8701889 10.2729972,14.2805622 C9.00007757,19.7723871 8.50591678,21.8633272 7.26086742,21.8633272 C5.82166432,21.8633272 6.9461213,19.4014009 4.64481664,19.4014009 C3.70955571,19.4014009 3.05031735,20.1722396 3.05031735,21.0441106 C3.05031735,22.5662765 5.35403385,23.4615346 8.03185472,22.8986406 C10.5275811,22.3738341 12.5937306,19.5586959 13.4869182,15.2132396 C13.6018829,14.6538203 13.6978209,14.3139724 13.7575811,14.0535069 C14.0220804,12.9032627 14.4144076,12.6015023 15.3476587,12.4861705 C17.0332722,12.2779585 17.3914316,14.0934654 17.8195346,16.5648802 C18.2933286,19.2967604 19.0864245,20.1222581 20.90067,19.8287834 C22.4095487,19.5856912 23.338914,18.5275253 24.0861848,17.1208249 C24.2870381,18.7233088 25.3365938,19.7817419 26.5799013,19.8656682 C28.6492666,20.0058571 29.623385,18.5582627 30.1007969,17.7843502 C30.1007969,17.7843502 29.7241467,19.8641982 31.5666643,19.8641982 C33.597574,19.8641982 35.2037306,18.1703041 36.2326516,16.4313733 C36.1150071,16.9385392 36.0255007,17.3251613 35.9810155,17.5169355 C35.7543018,18.4993272 35.7017772,19.8656682 37.7005289,19.8656682 C39.772976,19.8656682 41.2596121,18.0990737 42.2441819,16.3228571 C42.1420804,18.3778479 43.3383568,19.7514055 44.7908251,19.917788 C46.9009238,20.1594101 47.78567,18.7480323 48.3433427,17.816424 C48.3433427,17.816424 47.9633427,19.9164516 49.8251551,19.9164516 C51.6373907,19.9164516 53.168378,18.2479493 54.1780042,16.7595945 C54.8726164,15.7371106 55.4533357,14.3361567 55.4533357,14.3361567 C55.0906206,15.929553 53.0438999,24.7832396 52.963237,25.1432673 C52.882574,25.5030276 53.026615,25.6287834 53.3163047,25.5616959 C53.6070663,25.4947419 54.7715867,25.2263917 55.4442243,25.0719032 C55.8218124,24.9849032 55.9066291,24.7042581 55.9574118,24.4782719 C55.876481,24.8403041 57.2032652,19.099106 57.2180042,19.0372304 C57.2180042,19.0372304 57.2344852,19.0534009 57.269591,19.0975023 C57.5472214,19.4596682 58.0541114,19.917788 59.0132228,19.917788 C60.8365797,19.917788 63.5367772,18.7548479 64.5340762,14.6559585 C65.1630324,12.0724194 64.0076234,10.081977 62.1274542,10.081977 M30.9686601,13.5643825 C30.2926728,17.1277742 29.0484274,18.5519816 28.0138787,18.5519816 C26.7693653,18.5519816 26.4811495,17.4113594 27.2068477,14.387341 C27.867158,11.6386221 29.1438293,10.9629355 29.8676516,10.9629355 C30.415677,10.9629355 31.3994429,11.2940968 30.9686601,13.5643825 M49.2193794,13.5563641 C48.5179337,17.4074839 47.2798519,18.5912719 46.2361918,18.5912719 C44.9800212,18.5912719 44.6883216,17.4399585 45.4217913,14.387341 C46.0886671,11.6126959 47.3761918,10.9299263 48.1076516,10.9299263 C48.6603667,10.9299263 49.637567,11.2617558 49.2193794,13.5563641 M61.4942102,15.6129585 C60.8286742,18.3872028 59.5395416,18.9134793 58.8086178,18.9134793 C58.2559027,18.9134793 57.4373484,18.5570599 57.8649154,16.263788 C58.5908815,12.3715069 59.6358815,11.4087604 60.6800776,11.4087604 C61.9367842,11.4087604 62.2272779,12.5599401 61.4942102,15.6129585" id="Fill-4" fill="#FFFFFF"></path>
            </g>
        </g>
    </g>
</svg>