<?xml version="1.0" encoding="UTF-8"?>
<svg width="279px" height="55px" viewBox="0 0 279 55" version="1.1" xmlns="http://www.w3.org/2000/svg" xmlns:xlink="http://www.w3.org/1999/xlink">
    <!-- Generator: Sketch 44 (41411) - http://www.bohemiancoding.com/sketch -->
    <title>logo</title>
    <desc>Created with Sketch.</desc>
    <defs>
        <polygon id="path-1" points="0 55.2727273 278.557055 55.2727273 278.557055 1.05881818 0 1.05881818"></polygon>
    </defs>
    <g id="Symbols" stroke="none" stroke-width="1" fill="none" fill-rule="evenodd">
        <g id="element-/-header" transform="translate(-135.000000, -21.000000)">
            <g id="logo" transform="translate(135.000000, 20.000000)">
                <g id="Page-1">
                    <polygon id="Fill-1" fill="#FA0032" points="9.51879755 1.96598182 0.000515337423 31.8374364 11.9426012 31.8374364 21.4660368 1.96598182"></polygon>
                    <g id="Group-46" transform="translate(0.000000, 0.668627)">
                        <path d="M43.467681,13.0125818 C56.5246135,13.6482182 59.4534479,14.7588545 57.2684172,21.6057636 C55.6914847,26.5492182 54.4426503,31.4045818 34.7361472,31.4045818 C23.537865,31.4045818 16.0706258,31.2905818 18.745227,22.0254909 L30.2183558,22.0254909 C29.6205644,24.5887636 31.3520982,24.8789455 36.8181104,24.8789455 C42.430135,24.8789455 44.3574969,24.6354 45.1562699,22.1308545 C45.9842454,19.5434 45.3108712,19.5796727 39.7761472,19.3413091 L37.1857178,19.2221273 C26.305227,18.7004909 19.8377423,18.7454 22.5655951,10.1781273 C25.2986012,1.62121818 32.7022822,1.05985455 44.4107485,1.05985455 C54.2038773,1.05985455 63.7633865,1.17730909 61.1386012,9.42330909 L60.8792147,10.2524 L49.3700123,10.2524 C49.9643681,7.56821818 46.8929571,7.58721818 42.3270675,7.58721818 C35.8784785,7.58721818 35.0625276,8.4664 34.5265767,10.1418545 C33.7621595,12.5306727 35.471362,12.6101273 38.5822822,12.7707636 L43.467681,13.0125818 Z" id="Fill-2" fill="#FA0032"></path>
                        <path d="M91.0357301,19.5801909 L93.1812515,12.8472818 C94.5898405,8.42719091 92.5164663,7.99019091 86.3066503,7.99019091 C80.0951166,7.99019091 77.9238282,8.42719091 76.3383067,12.8472818 L74.1910675,19.5801909 C72.9508221,24.0451909 74.8403926,24.4804636 81.0519264,24.4804636 C87.2617423,24.4804636 89.6099632,24.0451909 91.0357301,19.5801909 M61.6099632,20.4576455 L64.3000245,12.0147364 C67.2322945,2.8101 76.3932761,1.05864545 88.5140123,1.05864545 C100.636466,1.05864545 108.682601,2.8101 105.750331,12.0147364 L103.056834,20.4576455 C100.122847,29.6519182 90.970454,31.4085545 78.839411,31.4085545 C66.7186748,31.4085545 58.6759755,29.6519182 61.6099632,20.4576455" id="Fill-4" fill="#FA0032"></path>
                        <path d="M127.948147,15.2796273 L123.023239,15.2796273 L117.95919,31.1688091 L107.686798,31.1688091 L112.745693,15.2796273 L108.628147,15.2796273 L110.229129,10.2584455 L114.351828,10.2584455 L115.001153,8.22544545 C116.316982,4.09208182 119.158209,1.06071818 129.904712,1.06071818 L132.426429,1.06071818 L130.713791,6.43599091 C125.816368,6.43599091 125.702994,6.87126364 124.861276,9.50362727 L124.619067,10.2584455 L129.547411,10.2584455 L127.948147,15.2796273 Z" id="Fill-7" fill="#4B324B"></path>
                        <path d="M152.869521,9.92335455 C145.306086,9.92335455 142.427067,13.3260818 142.427067,13.3260818 L143.404491,10.2567182 L133.430994,10.2567182 L126.767681,31.1670818 L137.040074,31.1670818 C137.040074,31.1670818 139.207926,24.3719909 140.096025,21.5738091 C140.98584,18.7756273 142.849644,16.4697182 150.756638,16.4697182 L152.869521,9.92335455 Z" id="Fill-9" fill="#4B324B"></path>
                        <path d="M199.464613,10.2572364 L198.530135,13.2074182 C201.46584,10.6458727 205.047436,10.0188727 208.560319,10.0188727 C212.983632,10.0188727 217.310748,10.5387818 216.750748,14.1246 C218.839583,11.1761455 223.316147,10.0188727 227.258479,10.0188727 C234.485227,10.0188727 237.556638,12.0121455 236.000319,16.8709636 L231.446454,31.1676 L221.179215,31.1676 L225.030503,19.0576909 C225.554429,16.8709636 226.116147,15.2801455 222.118847,15.2801455 C218.11811,15.2801455 216.771362,17.0678727 216.056761,19.3046909 L212.275902,31.1710545 L202.003509,31.1710545 L206.038601,18.5066909 C206.526454,16.5963273 206.768663,15.2801455 203.181914,15.2801455 C198.947558,15.2801455 197.684982,16.7949636 196.887926,19.3046909 L193.103632,31.1710545 L182.831239,31.1710545 L189.487681,10.2589636 L199.462896,10.2589636 L199.462896,10.2572364 L199.464613,10.2572364 Z" id="Fill-11" fill="#4B324B"></path>
                        <path d="M259.919362,18.1083818 C260.903656,15.0010182 259.240834,14.7954727 255.779485,14.7954727 C252.134331,14.7954727 250.820221,15.3585636 249.832491,18.1083818 L259.919362,18.1083818 Z M268.247215,24.1970182 C267.252613,27.3423818 265.122552,29.1335636 262.102675,30.1733818 C259.098258,31.1682909 255.198871,31.4049273 250.658748,31.4049273 C238.299239,31.4049273 236.232736,28.5445636 238.708074,20.7321091 C241.271018,12.6864727 244.876663,10.0212909 257.481816,10.0212909 C269.241816,10.0212909 272.069301,12.2114727 269.356908,20.7321091 L268.937767,22.0137455 L248.569914,22.0137455 C247.401816,25.6824727 247.944638,26.6290182 252.185865,26.6290182 C255.350037,26.6290182 257.461202,26.3923818 258.153472,24.2004727 L268.247215,24.2004727 L268.247215,24.1970182 Z" id="Fill-13" fill="#4B324B"></path>
                        <path d="M170.812368,24.3124 C170.059975,26.4801273 166.026601,26.9931273 164.360344,26.9931273 C162.802307,26.9931273 159.85973,27.0812182 160.588074,24.8115818 C161.196172,22.8994909 163.377767,22.2189455 165.88746,22.2189455 L171.513227,22.2189455 C171.511509,22.2189455 171.07519,23.5575818 170.812368,24.3124 M170.71789,10.0192182 C163.370896,10.0192182 156.279853,9.98121818 154.211632,16.4740364 L164.484025,16.4740364 C165.076663,14.5999455 166.821939,14.2061273 169.384883,14.2061273 C173.864883,14.2061273 173.648442,15.4394 173.026601,17.3912182 L172.722552,18.3464 L163.705865,18.3464 C156.302184,18.3464 151.859975,19.8974909 150.267583,24.9100364 C148.561816,30.2507636 152.377031,31.4045818 159.541939,31.4045818 C167.471264,31.4045818 169.06881,29.8776727 169.06881,29.8776727 L168.630773,31.1679455 L178.89973,31.1679455 L183.073963,18.1097636 C185.367215,10.8949455 181.229055,10.0192182 170.71789,10.0192182" id="Fill-15" fill="#4B324B"></path>
                        <path d="M110.444712,41.0386182 C110.444712,41.2631636 110.365693,41.4479818 110.204221,41.5913455 C110.046184,41.7364364 109.870969,41.8089818 109.680294,41.8089818 C109.486184,41.8089818 109.312687,41.7364364 109.152933,41.5913455 C108.993178,41.4479818 108.912442,41.2631636 108.912442,41.0386182 C108.912442,40.8140727 108.993178,40.6292545 109.152933,40.4858909 C109.312687,40.3408 109.486184,40.2699818 109.680294,40.2699818 C109.870969,40.2699818 110.046184,40.3408 110.204221,40.4858909 C110.365693,40.6292545 110.444712,40.8140727 110.444712,41.0386182 L110.444712,41.0386182 Z M109.135755,51.4247091 L110.221399,51.4247091 L110.221399,43.9231636 L109.135755,43.9231636 L109.135755,51.4247091 Z" id="Fill-17" fill="#4B324B"></path>
                        <path d="M114.715656,43.9238545 C114.737988,44.1276727 114.753448,44.3522182 114.763755,44.5974909 C114.774061,44.8427636 114.779215,45.0465818 114.779215,45.2054909 L114.813571,45.2054909 C115.026577,44.7684909 115.370135,44.4126727 115.847681,44.1397636 C116.325227,43.8685818 116.830258,43.7321273 117.362773,43.7321273 C118.309276,43.7321273 119.017006,44.0154 119.489399,44.5802182 C119.965227,45.1467636 120.198847,45.8946727 120.198847,46.8256727 L120.198847,51.4254 L119.116638,51.4254 L119.116638,47.2730364 C119.116638,46.8792182 119.084,46.5199455 119.02216,46.2004 C118.956883,45.8791273 118.846945,45.6044909 118.692344,45.3747636 C118.541178,45.1450364 118.331607,44.9654 118.070503,44.8375818 C117.812834,44.7097636 117.484736,44.6458545 117.09308,44.6458545 C116.806209,44.6458545 116.526209,44.7045818 116.254798,44.8220364 C115.983387,44.9394909 115.742896,45.1174 115.52989,45.3592182 C115.318601,45.5993091 115.146822,45.9033091 115.019706,46.2712182 C114.892589,46.6408545 114.827313,47.0761273 114.827313,47.5787636 L114.827313,51.4254 L113.745104,51.4254 L113.745104,45.5751273 C113.745104,45.3713091 113.739951,45.1104909 113.729644,44.7892182 C113.71762,44.4696727 113.700442,44.1812182 113.679828,43.9238545 L114.715656,43.9238545 Z" id="Fill-19" fill="#4B324B"></path>
                        <path d="M127.006969,44.8372364 L124.902675,44.8372364 L124.902675,49.2124182 C124.902675,49.4905091 124.928442,49.7202364 124.981693,49.9016 C125.036663,50.0846909 125.112245,50.2263273 125.213595,50.3265091 C125.314945,50.4284182 125.433472,50.4975091 125.572613,50.5355091 C125.710037,50.5735091 125.859485,50.5925091 126.019239,50.5925091 C126.166969,50.5925091 126.325006,50.5700545 126.488196,50.5268727 C126.653104,50.4854182 126.809423,50.4266909 126.958871,50.3506909 L127.006969,51.2972364 C126.816294,51.3715091 126.617031,51.4285091 126.409178,51.4647818 C126.201325,51.5027818 125.976294,51.5217818 125.732368,51.5217818 C125.529669,51.5217818 125.316663,51.4941455 125.09335,51.4406 C124.870037,51.3870545 124.663902,51.2868727 124.473227,51.1366 C124.280834,50.9863273 124.124515,50.7842364 124.002552,50.5268727 C123.880589,50.2712364 123.818748,49.9344182 123.818748,49.5181455 L123.818748,44.8372364 L122.272736,44.8372364 L122.272736,43.9235091 L123.818748,43.9235091 L123.818748,41.8076 L124.902675,41.8076 L124.902675,43.9235091 L127.006969,43.9235091 L127.006969,44.8372364 Z" id="Fill-21" fill="#4B324B"></path>
                        <path d="M136.124319,47.4500818 L136.124319,47.6901727 C136.124319,47.7765364 136.119166,47.8663545 136.108859,47.9630818 L129.92481,47.9630818 C129.933399,48.3379 130.007264,48.6902636 130.148123,49.0201727 C130.285546,49.3518091 130.477939,49.6402636 130.720147,49.8872636 C130.964074,50.1325364 131.250945,50.3277182 131.580761,50.4710818 C131.912294,50.6161727 132.26616,50.6887182 132.650945,50.6887182 C133.21438,50.6887182 133.698798,50.5574455 134.107632,50.2949 C134.516466,50.0340818 134.827387,49.7318091 135.040393,49.3898091 L135.854626,50.0306273 C135.406282,50.5971727 134.916712,51.0030818 134.379043,51.2483545 C133.843092,51.4953545 133.265914,51.6179909 132.650945,51.6179909 C132.096098,51.6179909 131.584196,51.5195364 131.110086,51.3209 C130.639411,51.1239909 130.230577,50.8476273 129.892172,50.4952636 C129.552049,50.1429 129.284074,49.7266273 129.086528,49.2447182 C128.888982,48.7645364 128.791067,48.2411727 128.791067,47.6746273 C128.791067,47.1080818 128.887264,46.5847182 129.077939,46.1028091 C129.272049,45.6226273 129.534871,45.2063545 129.874994,44.8539909 C130.216834,44.4999 130.613644,44.2252636 131.072294,44.0283545 C131.527509,43.8297182 132.022233,43.7312636 132.554748,43.7312636 C133.138798,43.7312636 133.655853,43.8297182 134.099043,44.0283545 C134.545669,44.2252636 134.920147,44.4929909 135.217325,44.8298091 C135.514503,45.1666273 135.739534,45.5587182 135.892417,46.0078091 C136.047018,46.4569 136.124319,46.9370818 136.124319,47.4500818 L136.124319,47.4500818 Z M135.024933,47.0977182 C134.994012,46.3912636 134.767264,45.8074455 134.348123,45.3428091 C133.928982,44.8781727 133.329472,44.6449909 132.554748,44.6449909 C132.192294,44.6449909 131.859043,44.7123545 131.551558,44.8453545 C131.240638,44.9783545 130.969227,45.1614455 130.735607,45.3894455 C130.503706,45.6209 130.316466,45.8817182 130.179043,46.1753545 C130.039902,46.4689909 129.960883,46.7764455 129.938552,47.0977182 L135.024933,47.0977182 Z" id="Fill-23" fill="#4B324B"></path>
                        <mask id="mask-2" fill="white">
                            <use xlink:href="#path-1"></use>
                        </mask>
                        <g id="Clip-26"></g>
                        <polygon id="Fill-25" fill="#4B324B" mask="url(#mask-2)" points="139.122209 51.4260909 140.206135 51.4260909 140.206135 39.3075455 139.122209 39.3075455"></polygon>
                        <polygon id="Fill-27" fill="#4B324B" mask="url(#mask-2)" points="143.777423 51.4260909 144.86135 51.4260909 144.86135 39.3075455 143.777423 39.3075455"></polygon>
                        <path d="M149.722528,41.0386182 C149.722528,41.2631636 149.643509,41.4479818 149.483755,41.5913455 C149.324,41.7364364 149.148785,41.8089818 148.95811,41.8089818 C148.765718,41.8089818 148.590503,41.7364364 148.430748,41.5913455 C148.272712,41.4479818 148.191975,41.2631636 148.191975,41.0386182 C148.191975,40.8140727 148.272712,40.6292545 148.430748,40.4858909 C148.590503,40.3408 148.765718,40.2699818 148.95811,40.2699818 C149.148785,40.2699818 149.324,40.3408 149.483755,40.4858909 C149.643509,40.6292545 149.722528,40.8140727 149.722528,41.0386182 L149.722528,41.0386182 Z M148.415288,51.4247091 L149.499215,51.4247091 L149.499215,43.9231636 L148.415288,43.9231636 L148.415288,51.4247091 Z" id="Fill-28" fill="#4B324B" mask="url(#mask-2)"></path>
                        <path d="M153.421448,52.9322727 C153.718626,53.3174545 154.124025,53.6421818 154.64108,53.9099091 C155.156417,54.1776364 155.700957,54.3106364 156.274699,54.3106364 C156.805497,54.3106364 157.255558,54.2329091 157.628319,54.0774545 C158.002798,53.9237273 158.301693,53.7112727 158.53016,53.4452727 C158.756908,53.1775455 158.926969,52.8649091 159.033472,52.5073636 C159.13654,52.1498182 159.189791,51.7663636 159.189791,51.3604545 L159.189791,49.951 L159.160589,49.951 C158.873718,50.4208182 158.466601,50.7835455 157.940957,51.0409091 C157.413595,51.2965455 156.88108,51.4260909 156.33654,51.4260909 C155.752491,51.4260909 155.225129,51.3293636 154.751018,51.1376364 C154.280344,50.9441818 153.876663,50.6799091 153.539975,50.3430909 C153.206724,50.0062727 152.94562,49.6038182 152.75838,49.134 C152.574577,48.6624545 152.480098,48.1546364 152.480098,47.6105455 C152.480098,47.0768182 152.574577,46.5741818 152.75838,46.1043636 C152.94562,45.6328182 153.206724,45.2217273 153.539975,44.8693636 C153.876663,44.517 154.280344,44.2389091 154.751018,44.0350909 C155.225129,43.833 155.752491,43.7310909 156.33654,43.7310909 C156.88108,43.7310909 157.41016,43.8589091 157.932368,44.1162727 C158.452859,44.3719091 158.863411,44.7415455 159.160589,45.2217273 L159.189791,45.2217273 L159.189791,43.9245455 L160.273718,43.9245455 L160.273718,51.3604545 C160.273718,51.7663636 160.220466,52.1999091 160.10881,52.6593636 C159.995436,53.1188182 159.789301,53.542 159.485252,53.9254545 C159.18292,54.3106364 158.77065,54.6319091 158.251877,54.8875455 C157.731387,55.1449091 157.054577,55.2727273 156.226601,55.2727273 C155.534331,55.2727273 154.878135,55.138 154.249423,54.872 C153.620712,54.6042727 153.086479,54.2363636 152.639853,53.7665455 L153.421448,52.9322727 Z M153.629301,47.5777273 C153.629301,47.9732727 153.691141,48.3480909 153.818258,48.7004545 C153.947092,49.0528182 154.130896,49.3637273 154.369669,49.6297273 C154.606724,49.8974545 154.902184,50.1081818 155.252613,50.2636364 C155.604761,50.4190909 156.003288,50.4950909 156.449914,50.4950909 C156.86562,50.4950909 157.246969,50.426 157.599117,50.2878182 C157.949546,50.1479091 158.251877,49.951 158.50611,49.6936364 C158.760344,49.438 158.961325,49.1305455 159.103902,48.773 C159.248196,48.4154545 159.320344,48.0164545 159.320344,47.5777273 C159.320344,47.1839091 159.248196,46.8090909 159.103902,46.4567273 C158.961325,46.1043636 158.760344,45.7934545 158.50611,45.5274545 C158.251877,45.2597273 157.949546,45.0455455 157.599117,44.8849091 C157.246969,44.726 156.86562,44.6448182 156.449914,44.6448182 C156.003288,44.6448182 155.604761,44.726 155.252613,44.8849091 C154.902184,45.0455455 154.606724,45.2597273 154.369669,45.5274545 C154.130896,45.7934545 153.947092,46.1043636 153.818258,46.4567273 C153.691141,46.8090909 153.629301,47.1839091 153.629301,47.5777273 L153.629301,47.5777273 Z" id="Fill-29" fill="#4B324B" mask="url(#mask-2)"></path>
                        <path d="M170.525497,47.4500818 L170.525497,47.6901727 C170.525497,47.7765364 170.520344,47.8663545 170.510037,47.9630818 L164.32427,47.9630818 C164.334577,48.3379 164.408442,48.6902636 164.549301,49.0201727 C164.685006,49.3518091 164.877399,49.6402636 165.121325,49.8872636 C165.365252,50.1325364 165.652123,50.3277182 165.981939,50.4710818 C166.311755,50.6161727 166.667337,50.6887182 167.052123,50.6887182 C167.61384,50.6887182 168.099975,50.5574455 168.50881,50.2949 C168.917644,50.0340818 169.228564,49.7318091 169.441571,49.3898091 L170.254086,50.0306273 C169.80746,50.5971727 169.316172,51.0030818 168.780221,51.2483545 C168.242552,51.4953545 167.667092,51.6179909 167.052123,51.6179909 C166.497276,51.6179909 165.985374,51.5195364 165.511264,51.3209 C165.038871,51.1239909 164.631755,50.8476273 164.291632,50.4952636 C163.951509,50.1429 163.683534,49.7266273 163.487706,49.2447182 C163.29016,48.7645364 163.192245,48.2411727 163.192245,47.6746273 C163.192245,47.1080818 163.288442,46.5847182 163.479117,46.1028091 C163.671509,45.6226273 163.936049,45.2063545 164.276172,44.8539909 C164.616294,44.4999 165.014822,44.2252636 165.471755,44.0283545 C165.928687,43.8297182 166.423411,43.7312636 166.954209,43.7312636 C167.538258,43.7312636 168.055313,43.8297182 168.500221,44.0283545 C168.946847,44.2252636 169.319607,44.4929909 169.616785,44.8298091 C169.913963,45.1666273 170.140712,45.5587182 170.293595,46.0078091 C170.448196,46.4569 170.525497,46.9370818 170.525497,47.4500818 L170.525497,47.4500818 Z M169.42611,47.0977182 C169.393472,46.3912636 169.168442,45.8074455 168.747583,45.3428091 C168.328442,44.8781727 167.73065,44.6449909 166.954209,44.6449909 C166.593472,44.6449909 166.258503,44.7123545 165.951018,44.8453545 C165.641816,44.9783545 165.370405,45.1614455 165.136785,45.3894455 C164.904883,45.6209 164.717644,45.8817182 164.578503,46.1753545 C164.44108,46.4689909 164.362061,46.7764455 164.33973,47.0977182 L169.42611,47.0977182 Z" id="Fill-30" fill="#4B324B" mask="url(#mask-2)"></path>
                        <path d="M174.462675,43.9238545 C174.483288,44.1276727 174.500466,44.3522182 174.510773,44.5974909 C174.52108,44.8427636 174.526233,45.0465818 174.526233,45.2054909 L174.560589,45.2054909 C174.77016,44.7684909 175.115436,44.4126727 175.594699,44.1397636 C176.072245,43.8685818 176.577276,43.7321273 177.108074,43.7321273 C178.054577,43.7321273 178.764025,44.0154 179.236417,44.5802182 C179.710528,45.1467636 179.945865,45.8946727 179.945865,46.8256727 L179.945865,51.4254 L178.863656,51.4254 L178.863656,47.2730364 C178.863656,46.8792182 178.831018,46.5199455 178.76746,46.2004 C178.703902,45.8791273 178.593963,45.6044909 178.439362,45.3747636 C178.288196,45.1450364 178.078626,44.9654 177.817521,44.8375818 C177.558135,44.7097636 177.230037,44.6458545 176.83838,44.6458545 C176.551509,44.6458545 176.271509,44.7045818 176.001816,44.8220364 C175.730405,44.9394909 175.489914,45.1174 175.27519,45.3592182 C175.063902,45.5993091 174.89384,45.9033091 174.765006,46.2712182 C174.639607,46.6408545 174.574331,47.0761273 174.574331,47.5787636 L174.574331,51.4254 L173.492123,51.4254 L173.492123,45.5751273 C173.492123,45.3713091 173.486969,45.1104909 173.474945,44.7892182 C173.46292,44.4696727 173.44746,44.1812182 173.426847,43.9238545 L174.462675,43.9238545 Z" id="Fill-31" fill="#4B324B" mask="url(#mask-2)"></path>
                        <path d="M186.753988,44.8372364 L184.647975,44.8372364 L184.647975,49.2124182 C184.647975,49.4905091 184.67546,49.7202364 184.728712,49.9016 C184.781963,50.0846909 184.857546,50.2263273 184.960613,50.3265091 C185.061963,50.4284182 185.180491,50.4975091 185.319632,50.5355091 C185.457055,50.5735091 185.606503,50.5925091 185.766258,50.5925091 C185.913988,50.5925091 186.070307,50.5700545 186.233497,50.5268727 C186.400123,50.4854182 186.55816,50.4266909 186.70589,50.3506909 L186.753988,51.2972364 C186.563313,51.3715091 186.362331,51.4285091 186.154479,51.4647818 C185.946626,51.5027818 185.721595,51.5217818 185.479387,51.5217818 C185.276687,51.5217818 185.063681,51.4941455 184.842086,51.4406 C184.618773,51.3870545 184.41092,51.2868727 184.218528,51.1366 C184.027853,50.9863273 183.869816,50.7842364 183.749571,50.5268727 C183.627607,50.2712364 183.565767,49.9344182 183.565767,49.5181455 L183.565767,44.8372364 L182.018037,44.8372364 L182.018037,43.9235091 L183.565767,43.9235091 L183.565767,41.8076 L184.647975,41.8076 L184.647975,43.9235091 L186.753988,43.9235091 L186.753988,44.8372364 Z" id="Fill-32" fill="#4B324B" mask="url(#mask-2)"></path>
                        <path d="M200.494601,47.4500818 L200.494601,47.6901727 C200.494601,47.7765364 200.489448,47.8663545 200.479141,47.9630818 L194.293374,47.9630818 C194.303681,48.3379 194.375828,48.6902636 194.516687,49.0201727 C194.65411,49.3518091 194.846503,49.6402636 195.090429,49.8872636 C195.334356,50.1325364 195.621227,50.3277182 195.949325,50.4710818 C196.280859,50.6161727 196.636442,50.6887182 197.019509,50.6887182 C197.582945,50.6887182 198.06908,50.5574455 198.477914,50.2949 C198.885031,50.0340818 199.197669,49.7318091 199.410675,49.3898091 L200.22319,50.0306273 C199.776564,50.5971727 199.285276,51.0030818 198.747607,51.2483545 C198.211656,51.4953545 197.636196,51.6179909 197.019509,51.6179909 C196.46638,51.6179909 195.952761,51.5195364 195.480368,51.3209 C195.007975,51.1239909 194.599141,50.8476273 194.260736,50.4952636 C193.920613,50.1429 193.652638,49.7266273 193.455092,49.2447182 C193.259264,48.7645364 193.159632,48.2411727 193.159632,47.6746273 C193.159632,47.1080818 193.257546,46.5847182 193.446503,46.1028091 C193.640613,45.6226273 193.905153,45.2063545 194.245276,44.8539909 C194.585399,44.4999 194.983926,44.2252636 195.440859,44.0283545 C195.897791,43.8297182 196.392515,43.7312636 196.923313,43.7312636 C197.507362,43.7312636 198.024417,43.8297182 198.469325,44.0283545 C198.915951,44.2252636 199.288712,44.4929909 199.58589,44.8298091 C199.883067,45.1666273 200.108098,45.5587182 200.262699,46.0078091 C200.417301,46.4569 200.494601,46.9370818 200.494601,47.4500818 L200.494601,47.4500818 Z M199.393497,47.0977182 C199.362577,46.3912636 199.137546,45.8074455 198.716687,45.3428091 C198.297546,44.8781727 197.699755,44.6449909 196.923313,44.6449909 C196.562577,44.6449909 196.227607,44.7123545 195.920123,44.8453545 C195.61092,44.9783545 195.339509,45.1614455 195.10589,45.3894455 C194.87227,45.6209 194.686748,45.8817182 194.547607,46.1753545 C194.410184,46.4689909 194.331166,46.7764455 194.307117,47.0977182 L199.393497,47.0977182 Z" id="Fill-33" fill="#4B324B" mask="url(#mask-2)"></path>
                        <polygon id="Fill-34" fill="#4B324B" mask="url(#mask-2)" points="205.117865 47.5462909 202.36081 43.9242 203.74535 43.9242 205.787804 46.7776545 207.826822 43.9242 209.135779 43.9242 206.425104 47.4979273 209.388294 51.4257455 207.986577 51.4257455 205.770626 48.2993818 203.491117 51.4257455 202.183877 51.4257455"></polygon>
                        <path d="M212.864761,45.1578182 C213.065742,44.7190909 213.400712,44.3719091 213.869669,44.1162727 C214.33519,43.8589091 214.835067,43.7310909 215.367583,43.7310909 C216.314086,43.7310909 217.021816,44.0143636 217.494209,44.5809091 C217.968319,45.1474545 218.203656,45.8953636 218.203656,46.8246364 L218.203656,51.4243636 L217.121448,51.4243636 L217.121448,47.2737273 C217.121448,46.8781818 217.08881,46.5206364 217.025252,46.1993636 C216.961693,45.8798182 216.850037,45.6034545 216.697153,45.3737273 C216.54427,45.144 216.336417,44.9660909 216.077031,44.8365455 C215.815926,44.7087273 215.487828,44.6448182 215.096172,44.6448182 C214.809301,44.6448182 214.531018,44.7035455 214.259607,44.821 C213.988196,44.9384545 213.745988,45.1180909 213.534699,45.3581818 C213.321693,45.5982727 213.151632,45.9022727 213.024515,46.2719091 C212.895681,46.6398182 212.832123,47.0768182 212.832123,47.5777273 L212.832123,51.4243636 L211.748196,51.4243636 L211.748196,39.3075455 L212.832123,39.3075455 L212.832123,45.1578182 L212.864761,45.1578182 Z" id="Fill-35" fill="#4B324B" mask="url(#mask-2)"></path>
                        <path d="M222.970184,41.0386182 C222.970184,41.2631636 222.891166,41.4479818 222.731411,41.5913455 C222.573374,41.7364364 222.396442,41.8089818 222.207485,41.8089818 C222.013374,41.8089818 221.839877,41.7364364 221.678405,41.5913455 C221.520368,41.4479818 221.439632,41.2631636 221.439632,41.0386182 C221.439632,40.8140727 221.520368,40.6292545 221.678405,40.4858909 C221.839877,40.3408 222.013374,40.2699818 222.207485,40.2699818 C222.396442,40.2699818 222.573374,40.3408 222.731411,40.4858909 C222.891166,40.6292545 222.970184,40.8140727 222.970184,41.0386182 L222.970184,41.0386182 Z M221.662945,51.4247091 L222.746871,51.4247091 L222.746871,43.9231636 L221.662945,43.9231636 L221.662945,51.4247091 Z" id="Fill-36" fill="#4B324B" mask="url(#mask-2)"></path>
                        <path d="M227.387141,50.1591364 L227.387141,51.4252273 L226.301497,51.4252273 L226.301497,39.3084091 L227.387141,39.3084091 L227.387141,45.2225909 L227.418061,45.2225909 C227.737571,44.7303182 228.14984,44.3589545 228.660025,44.1085 C229.171926,43.8580455 229.699288,43.7319545 230.240393,43.7319545 C230.824442,43.7319545 231.353521,43.8338636 231.825914,44.0359545 C232.298307,44.2397727 232.703706,44.5178636 233.038675,44.8702273 C233.371926,45.2225909 233.633031,45.6388636 233.816834,46.1190455 C234.005791,46.6009545 234.096834,47.1191364 234.096834,47.6753182 C234.096834,48.2297727 234.005791,48.7479545 233.816834,49.2298636 C233.633031,49.7100455 233.371926,50.1263182 233.038675,50.4804091 C232.703706,50.8327727 232.298307,51.1108636 231.825914,51.3129545 C231.353521,51.5167727 230.824442,51.6186818 230.240393,51.6186818 C229.699288,51.6186818 229.171926,51.4943182 228.660025,51.2490455 C228.14984,51.0037727 227.737571,50.6393182 227.418061,50.1591364 L227.387141,50.1591364 Z M232.94935,47.6753182 C232.94935,47.2573182 232.887509,46.8652273 232.758675,46.4973182 C232.631558,46.1276818 232.446037,45.8064091 232.208982,45.5352273 C231.970209,45.2623182 231.674748,45.0464091 231.324319,44.8857727 C230.97389,44.7251364 230.573644,44.6456818 230.128736,44.6456818 C229.713031,44.6456818 229.331681,44.7234091 228.981252,44.8771364 C228.630822,45.0325909 228.326773,45.2467727 228.070822,45.5179545 C227.818307,45.7908636 227.619043,46.1121364 227.474748,46.4800455 C227.330454,46.8496818 227.260025,47.2469545 227.260025,47.6753182 C227.260025,48.1019545 227.330454,48.5009545 227.474748,48.8688636 C227.619043,49.2367727 227.818307,49.5563182 228.070822,49.8223182 C228.326773,50.0900455 228.630822,50.3007727 228.981252,50.4562273 C229.331681,50.6099545 229.713031,50.6876818 230.128736,50.6876818 C230.573644,50.6876818 230.97389,50.6099545 231.324319,50.4562273 C231.674748,50.3007727 231.970209,50.0865909 232.208982,49.8154091 C232.446037,49.5425 232.631558,49.2212273 232.758675,48.8533182 C232.887509,48.4836818 232.94935,48.0915909 232.94935,47.6753182 L232.94935,47.6753182 Z" id="Fill-37" fill="#4B324B" mask="url(#mask-2)"></path>
                        <path d="M238.386675,41.0386182 C238.386675,41.2631636 238.305939,41.4479818 238.146184,41.5913455 C237.988147,41.7364364 237.811215,41.8089818 237.622258,41.8089818 C237.428147,41.8089818 237.25465,41.7364364 237.093178,41.5913455 C236.935141,41.4479818 236.854405,41.2631636 236.854405,41.0386182 C236.854405,40.8140727 236.935141,40.6292545 237.093178,40.4858909 C237.25465,40.3408 237.428147,40.2699818 237.622258,40.2699818 C237.811215,40.2699818 237.988147,40.3408 238.146184,40.4858909 C238.305939,40.6292545 238.386675,40.8140727 238.386675,41.0386182 L238.386675,41.0386182 Z M237.077718,51.4247091 L238.161644,51.4247091 L238.161644,43.9231636 L237.077718,43.9231636 L237.077718,51.4247091 Z" id="Fill-38" fill="#4B324B" mask="url(#mask-2)"></path>
                        <path d="M245.049816,44.8372364 L242.943804,44.8372364 L242.943804,49.2124182 C242.943804,49.4905091 242.969571,49.7202364 243.022822,49.9016 C243.077791,50.0846909 243.153374,50.2263273 243.254724,50.3265091 C243.357791,50.4284182 243.476319,50.4975091 243.613742,50.5355091 C243.751166,50.5735091 243.902331,50.5925091 244.062086,50.5925091 C244.209816,50.5925091 244.366135,50.5700545 244.529325,50.5268727 C244.695951,50.4854182 244.85227,50.4266909 245.001718,50.3506909 L245.049816,51.2972364 C244.859141,51.3715091 244.65816,51.4285091 244.450307,51.4647818 C244.242454,51.5027818 244.017423,51.5217818 243.775215,51.5217818 C243.572515,51.5217818 243.359509,51.4941455 243.136196,51.4406 C242.914601,51.3870545 242.706748,51.2868727 242.512638,51.1366 C242.321963,50.9863273 242.165644,50.7842364 242.045399,50.5268727 C241.923436,50.2712364 241.861595,49.9344182 241.861595,49.5181455 L241.861595,44.8372364 L240.313865,44.8372364 L240.313865,43.9235091 L241.861595,43.9235091 L241.861595,41.8076 L242.943804,41.8076 L242.943804,43.9235091 L245.049816,43.9235091 L245.049816,44.8372364 Z" id="Fill-39" fill="#4B324B" mask="url(#mask-2)"></path>
                        <path d="M248.700123,41.0386182 C248.700123,41.2631636 248.619387,41.4479818 248.459632,41.5913455 C248.301595,41.7364364 248.12638,41.8089818 247.935706,41.8089818 C247.741595,41.8089818 247.568098,41.7364364 247.408344,41.5913455 C247.248589,41.4479818 247.167853,41.2631636 247.167853,41.0386182 C247.167853,40.8140727 247.248589,40.6292545 247.408344,40.4858909 C247.568098,40.3408 247.741595,40.2699818 247.935706,40.2699818 C248.12638,40.2699818 248.301595,40.3408 248.459632,40.4858909 C248.619387,40.6292545 248.700123,40.8140727 248.700123,41.0386182 L248.700123,41.0386182 Z M247.391166,51.4247091 L248.475092,51.4247091 L248.475092,43.9231636 L247.391166,43.9231636 L247.391166,51.4247091 Z" id="Fill-40" fill="#4B324B" mask="url(#mask-2)"></path>
                        <path d="M252.971067,43.9238545 C252.991681,44.1276727 253.008859,44.3522182 253.019166,44.5974909 C253.029472,44.8427636 253.034626,45.0465818 253.034626,45.2054909 L253.068982,45.2054909 C253.28027,44.7684909 253.623828,44.4126727 254.103092,44.1397636 C254.580638,43.8685818 255.085669,43.7321273 255.618184,43.7321273 C256.562969,43.7321273 257.272417,44.0154 257.74481,44.5802182 C258.220638,45.1467636 258.454258,45.8946727 258.454258,46.8256727 L258.454258,51.4254 L257.372049,51.4254 L257.372049,47.2730364 C257.372049,46.8792182 257.339411,46.5199455 257.275853,46.2004 C257.210577,45.8791273 257.102356,45.6044909 256.947755,45.3747636 C256.796589,45.1450364 256.587018,44.9654 256.325914,44.8375818 C256.066528,44.7097636 255.740147,44.6458545 255.346773,44.6458545 C255.059902,44.6458545 254.779902,44.7045818 254.510209,44.8220364 C254.238798,44.9394909 253.998307,45.1174 253.785301,45.3592182 C253.572294,45.5993091 253.402233,45.9033091 253.273399,46.2712182 C253.148,46.6408545 253.082724,47.0761273 253.082724,47.5787636 L253.082724,51.4254 L252.000515,51.4254 L252.000515,45.5751273 C252.000515,45.3713091 251.995362,45.1104909 251.983337,44.7892182 C251.971313,44.4696727 251.955853,44.1812182 251.935239,43.9238545 L252.971067,43.9238545 Z" id="Fill-41" fill="#4B324B" mask="url(#mask-2)"></path>
                        <path d="M262.296442,52.9322727 C262.59362,53.3174545 263.000736,53.6421818 263.516074,53.9099091 C264.033129,54.1776364 264.575951,54.3106364 265.149693,54.3106364 C265.682209,54.3106364 266.13227,54.2329091 266.505031,54.0774545 C266.876074,53.9237273 267.176687,53.7112727 267.406871,53.4452727 C267.63362,53.1775455 267.801963,52.8649091 267.910184,52.5073636 C268.013252,52.1498182 268.066503,51.7663636 268.066503,51.3604545 L268.066503,49.951 L268.035583,49.951 C267.750429,50.4208182 267.343313,50.7835455 266.817669,51.0409091 C266.290307,51.2965455 265.757791,51.4260909 265.213252,51.4260909 C264.629202,51.4260909 264.10184,51.3293636 263.62773,51.1376364 C263.155337,50.9441818 262.751656,50.6799091 262.416687,50.3430909 C262.081718,50.0062727 261.822331,49.6038182 261.635092,49.134 C261.449571,48.6624545 261.35681,48.1546364 261.35681,47.6105455 C261.35681,47.0768182 261.449571,46.5741818 261.635092,46.1043636 C261.822331,45.6328182 262.081718,45.2217273 262.416687,44.8693636 C262.751656,44.517 263.155337,44.2389091 263.62773,44.0350909 C264.10184,43.833 264.629202,43.7310909 265.213252,43.7310909 C265.757791,43.7310909 266.286871,43.8589091 266.807362,44.1162727 C267.329571,44.3719091 267.738405,44.7415455 268.035583,45.2217273 L268.066503,45.2217273 L268.066503,43.9245455 L269.150429,43.9245455 L269.150429,51.3604545 C269.150429,51.7663636 269.09546,52.1999091 268.985521,52.6593636 C268.872147,53.1188182 268.664294,53.542 268.361963,53.9254545 C268.059632,54.3106364 267.647362,54.6319091 267.128589,54.8875455 C266.608098,55.1449091 265.931288,55.2727273 265.103313,55.2727273 C264.411043,55.2727273 263.754847,55.138 263.126135,54.872 C262.497423,54.6042727 261.96319,54.2363636 261.514847,53.7665455 L262.296442,52.9322727 Z M262.504294,47.5777273 C262.504294,47.9732727 262.567853,48.3480909 262.694969,48.7004545 C262.823804,49.0528182 263.00589,49.3637273 263.24638,49.6297273 C263.483436,49.8974545 263.778896,50.1081818 264.129325,50.2636364 C264.479755,50.4190909 264.878282,50.4950909 265.326626,50.4950909 C265.738896,50.4950909 266.123681,50.426 266.47411,50.2878182 C266.826258,50.1479091 267.128589,49.951 267.381104,49.6936364 C267.637055,49.438 267.838037,49.1305455 267.980613,48.773 C268.124908,48.4154545 268.197055,48.0164545 268.197055,47.5777273 C268.197055,47.1839091 268.124908,46.8090909 267.980613,46.4567273 C267.838037,46.1043636 267.637055,45.7934545 267.381104,45.5274545 C267.128589,45.2597273 266.826258,45.0455455 266.47411,44.8849091 C266.123681,44.726 265.738896,44.6448182 265.326626,44.6448182 C264.878282,44.6448182 264.479755,44.726 264.129325,44.8849091 C263.778896,45.0455455 263.483436,45.2597273 263.24638,45.5274545 C263.00589,45.7934545 262.823804,46.1043636 262.694969,46.4567273 C262.567853,46.8090909 262.504294,47.1839091 262.504294,47.5777273 L262.504294,47.5777273 Z" id="Fill-42" fill="#4B324B" mask="url(#mask-2)"></path>
                        <path d="M271.432344,8.48954545 C271.432344,7.99727273 271.52854,7.53436364 271.714061,7.09909091 C271.901301,6.66554545 272.155534,6.28727273 272.478479,5.96945455 C272.803141,5.64990909 273.181055,5.39427273 273.613939,5.206 C274.045104,5.01772727 274.503755,4.92445455 274.993325,4.92445455 C275.482896,4.92445455 275.944982,5.01772727 276.376147,5.206 C276.809031,5.39427273 277.188663,5.64990909 277.508172,5.96945455 C277.832834,6.28727273 278.087067,6.66554545 278.274307,7.09909091 C278.463264,7.53436364 278.556025,7.99727273 278.556025,8.48954545 C278.556025,8.98181818 278.463264,9.443 278.274307,9.87136364 C278.087067,10.3014545 277.832834,10.6762727 277.508172,10.9940909 C277.188663,11.3136364 276.809031,11.5658182 276.376147,11.7489091 C275.944982,11.932 275.482896,12.0235455 274.993325,12.0235455 C274.503755,12.0235455 274.045104,11.932 273.613939,11.7489091 C273.181055,11.5658182 272.803141,11.3136364 272.478479,10.9940909 C272.155534,10.6762727 271.901301,10.3014545 271.714061,9.87136364 C271.52854,9.443 271.432344,8.98181818 271.432344,8.48954545 L271.432344,8.48954545 Z M271.994061,8.48954545 C271.994061,8.89718182 272.07308,9.28581818 272.229399,9.652 C272.387436,10.0181818 272.600442,10.3411818 272.870135,10.6175455 C273.139828,10.8956364 273.459337,11.1132727 273.825227,11.2704545 C274.187681,11.4259091 274.57762,11.5053636 274.993325,11.5053636 C275.410748,11.5053636 275.800687,11.4259091 276.168294,11.2704545 C276.532466,11.1132727 276.84854,10.8956364 277.119951,10.6175455 C277.391362,10.3411818 277.604368,10.0181818 277.760687,9.652 C277.915288,9.28581818 277.992589,8.89718182 277.992589,8.48954545 C277.992589,8.07154545 277.915288,7.67772727 277.760687,7.31154545 C277.604368,6.94536364 277.391362,6.62581818 277.119951,6.35290909 C276.84854,6.08172727 276.532466,5.86581818 276.168294,5.70863636 C275.800687,5.55318182 275.410748,5.47372727 274.993325,5.47372727 C274.57762,5.47372727 274.187681,5.55318182 273.825227,5.70863636 C273.459337,5.86581818 273.139828,6.08172727 272.870135,6.35290909 C272.600442,6.62581818 272.387436,6.94536364 272.229399,7.31154545 C272.07308,7.67772727 271.994061,8.07154545 271.994061,8.48954545 L271.994061,8.48954545 Z M273.60535,6.46345455 L275.008785,6.46345455 C275.197742,6.46345455 275.379828,6.48418182 275.556761,6.52563636 C275.733693,6.56881818 275.893448,6.63618182 276.034307,6.73118182 C276.175166,6.82445455 276.285104,6.94536364 276.369276,7.09218182 C276.453448,7.239 276.494675,7.42209091 276.494675,7.64145455 C276.494675,7.93509091 276.410503,8.17345455 276.245595,8.35654545 C276.077252,8.53963636 275.853939,8.66227273 275.572221,8.72445455 L276.649276,10.4845455 L275.77492,10.4845455 L274.837006,8.80390909 L274.323387,8.80390909 L274.323387,10.4845455 L273.60535,10.4845455 L273.60535,6.46345455 Z M274.902282,8.22181818 C275.110135,8.22181818 275.305963,8.18381818 275.493202,8.10436364 C275.683877,8.02663636 275.77492,7.866 275.77492,7.62590909 C275.77492,7.40481818 275.690748,7.25972727 275.517252,7.18545455 C275.345472,7.11290909 275.165104,7.07663636 274.977865,7.07663636 L274.323387,7.07663636 L274.323387,8.22181818 L274.902282,8.22181818 Z" id="Fill-43" fill="#4B324B" mask="url(#mask-2)"></path>
                        <polygon id="Fill-44" fill="#4B324B" mask="url(#mask-2)" points="271.749448 43.9577091 271.505521 43.9577091 271.505521 41.7744364 270.708466 41.7744364 270.708466 41.5568 272.548221 41.5568 272.548221 41.7744364 271.749448 41.7744364"></polygon>
                        <polygon id="Fill-45" fill="#4B324B" mask="url(#mask-2)" points="274.08616 43.5443727 274.089595 43.5443727 274.888368 41.5580091 275.259411 41.5580091 275.259411 43.9571909 275.017202 43.9571909 275.017202 41.8723727 275.010331 41.8723727 274.144564 43.9571909 274.019166 43.9571909 273.155117 41.8723727 273.148245 41.8723727 273.148245 43.9571909 272.906037 43.9571909 272.906037 41.5580091 273.275362 41.5580091"></polygon>
                    </g>
                </g>
            </g>
        </g>
    </g>
</svg>