<svg xmlns="http://www.w3.org/2000/svg" width="133.333" height="133.333" preserveAspectRatio="xMidYMid meet" version="1.0" viewBox="0 0 100 100"><metadata>Created by potrace 1.11, written by Peter Selinger 2001-2013</metadata><g fill="#000" stroke="none"><path d="M132 588 c-6 -24 -23 -78 -36 -120 l-24 -78 47 0 48 0 33 108 c18 59 35 113 37 120 4 8 -9 12 -44 12 l-49 0 -12 -42z" transform="translate(0.000000,100.000000) scale(0.100000,-0.100000)"/><path d="M313 623 c-51 -10 -85 -101 -45 -122 9 -5 52 -12 95 -16 78 -7 86 -12 65 -33 -14 -14 -104 -16 -113 -2 -3 6 -26 10 -51 10 -40 0 -44 -2 -44 -24 0 -42 24 -51 129 -50 113 2 144 12 171 56 40 66 21 86 -91 93 -80 6 -84 7 -76 30 7 17 102 22 112 5 3 -5 26 -10 50 -10 51 0 65 20 35 50 -17 17 -33 20 -117 19 -54 -1 -108 -4 -120 -6z" transform="translate(0.000000,100.000000) scale(0.100000,-0.100000)"/><path d="M650 608 c-40 -21 -47 -30 -68 -88 -26 -73 -23 -102 12 -118 68 -31 214 -22 266 16 15 12 34 45 49 86 39 109 20 126 -138 126 -60 0 -87 -5 -121 -22z m160 -38 c17 -9 17 -13 4 -57 -18 -60 -30 -69 -91 -68 -41 0 -48 3 -51 20 -6 40 21 99 48 106 38 10 69 10 90 -1z" transform="translate(0.000000,100.000000) scale(0.100000,-0.100000)"/></g></svg>