<?xml version="1.0" encoding="UTF-8"?>
<svg width="30px" height="38px" viewBox="0 0 30 38" version="1.1" xmlns="http://www.w3.org/2000/svg" xmlns:xlink="http://www.w3.org/1999/xlink">
    <!-- Generator: Sketch 44 (41411) - http://www.bohemiancoding.com/sketch -->
    <title>android</title>
    <desc>Created with Sketch.</desc>
    <defs></defs>
    <g id="ISOframe-UI" stroke="none" stroke-width="1" fill="none" fill-rule="evenodd">
        <g id="0.0-Home" transform="translate(-952.000000, -2200.000000)" fill-rule="nonzero" fill="#BEB4BE">
            <g id="Group-7" transform="translate(0.000000, 1959.093190)">
                <g id="element-/-stand-designer-cta-copy" transform="translate(136.000000, 37.955795)">
                    <g id="Group-2" transform="translate(700.000000, 203.683393)">
                        <g id="android" transform="translate(116.000000, 0.000000)">
                            <path d="M10.5042614,7.74465929 C10.7315341,7.74465929 10.9268466,7.66103152 11.0901989,7.49377597 C11.2535511,7.32652041 11.3352273,7.12654095 11.3352273,6.89383757 C11.3352273,6.66113419 11.2535511,6.46115473 11.0901989,6.29389917 C10.9268466,6.12664362 10.7315341,6.04301584 10.5042614,6.04301584 C10.2769886,6.04301584 10.0852273,6.12664362 9.92897727,6.29389917 C9.77272727,6.46115473 9.69460227,6.66113419 9.69460227,6.89383757 C9.69460227,7.12654095 9.77272727,7.32652041 9.92897727,7.49377597 C10.0852273,7.66103152 10.2769886,7.74465929 10.5042614,7.74465929 Z M19.4957386,7.74465929 C19.7230114,7.74465929 19.9147727,7.66103152 20.0710227,7.49377597 C20.2272727,7.32652041 20.3053977,7.12654095 20.3053977,6.89383757 C20.3053977,6.66113419 20.2272727,6.46115473 20.0710227,6.29389917 C19.9147727,6.12664362 19.7230114,6.04301584 19.4957386,6.04301584 C19.2684659,6.04301584 19.0731534,6.12664362 18.9098011,6.29389917 C18.7464489,6.46115473 18.6647727,6.66113419 18.6647727,6.89383757 C18.6647727,7.12654095 18.7464489,7.32652041 18.9098011,7.49377597 C19.0731534,7.66103152 19.2684659,7.74465929 19.4957386,7.74465929 Z M2.19460227,11.7587926 C2.79119318,11.7587926 3.30255682,11.976952 3.72869318,12.4132708 C4.15482955,12.8495896 4.36789773,13.3731722 4.36789773,13.9840186 L4.36789773,23.3648735 C4.36789773,23.9902639 4.15838068,24.5211184 3.73934659,24.9574373 C3.3203125,25.3937561 2.80539773,25.6119155 2.19460227,25.6119155 C1.58380682,25.6119155 1.06534091,25.3937561 0.639204545,24.9574373 C0.213068182,24.5211184 0,23.9902639 0,23.3648735 L0,13.9840186 C0,13.3731722 0.213068182,12.8495896 0.639204545,12.4132708 C1.06534091,11.976952 1.58380682,11.7587926 2.19460227,11.7587926 Z M24.7798295,12.1732955 L24.7798295,26.7027126 C24.7798295,27.3717348 24.5525568,27.9389493 24.0980114,28.4043561 C23.6434659,28.8697628 23.0965909,29.1024662 22.4573864,29.1024662 L20.859375,29.1024662 L20.859375,34.054685 C20.859375,34.6800753 20.6463068,35.2109299 20.2201705,35.6472487 C19.7940341,36.0835675 19.2755682,36.3017269 18.6647727,36.3017269 C18.0539773,36.3017269 17.5355114,36.0835675 17.109375,35.6472487 C16.6832386,35.2109299 16.4701705,34.6800753 16.4701705,34.054685 L16.4701705,29.1024662 L13.5298295,29.1024662 L13.5298295,34.054685 C13.5298295,34.6800753 13.3167614,35.2109299 12.890625,35.6472487 C12.4644886,36.0835675 11.9460227,36.3017269 11.3352273,36.3017269 C10.7386364,36.3017269 10.2272727,36.0835675 9.80113636,35.6472487 C9.375,35.2109299 9.16193182,34.6800753 9.16193182,34.054685 L9.140625,29.1024662 L7.56392045,29.1024662 C6.91051136,29.1024662 6.35653409,28.8697628 5.90198864,28.4043561 C5.44744318,27.9389493 5.22017045,27.3717348 5.22017045,26.7027126 L5.22017045,12.1732955 L24.7798295,12.1732955 Z M19.8366477,3.33783908 C21.3565341,4.13775694 22.5710227,5.25400595 23.4801136,6.68658612 C24.3892045,8.11916629 24.84375,9.6862781 24.84375,11.3879216 L5.13494318,11.3879216 C5.13494318,9.6862781 5.58948864,8.11916629 6.49857955,6.68658612 C7.40767045,5.25400595 8.62926136,4.13775694 10.1633523,3.33783908 L8.65056818,0.479950717 C8.55113636,0.290879222 8.58664773,0.145439611 8.75710227,0.0436318833 C8.94176136,-0.0436318833 9.08380682,0 9.18323864,0.174527533 L10.7173295,3.05423183 C12.0667614,2.44338547 13.4943182,2.13796228 15,2.13796228 C16.5056818,2.13796228 17.9332386,2.44338547 19.2826705,3.05423183 L20.8167614,0.174527533 C20.9161932,0 21.0582386,-0.0436318833 21.2428977,0.0436318833 C21.4133523,0.145439611 21.4488636,0.290879222 21.3494318,0.479950717 L19.8366477,3.33783908 Z M30,13.9840186 L30,23.3648735 C30,23.9902639 29.7869318,24.5211184 29.3607955,24.9574373 C28.9346591,25.3937561 28.4161932,25.6119155 27.8053977,25.6119155 C27.2088068,25.6119155 26.6974432,25.3937561 26.2713068,24.9574373 C25.8451705,24.5211184 25.6321023,23.9902639 25.6321023,23.3648735 L25.6321023,13.9840186 C25.6321023,13.3586283 25.8451705,12.8314097 26.2713068,12.4023628 C26.6974432,11.973316 27.2088068,11.7587926 27.8053977,11.7587926 C28.4161932,11.7587926 28.9346591,11.973316 29.3607955,12.4023628 C29.7869318,12.8314097 30,13.3586283 30,13.9840186 Z" id="Shape"></path>
                        </g>
                    </g>
                </g>
            </g>
        </g>
    </g>
</svg>