<svg xmlns="http://www.w3.org/2000/svg" xmlns:xlink="http://www.w3.org/1999/xlink" width="26" height="32" version="1.1" viewBox="0 0 26 32"><title>apple</title><desc>Created with Sketch.</desc><g id="ISOframe-UI" fill="none" fill-rule="evenodd" stroke="none" stroke-width="1"><g id="0.0-Home" fill="#BEB4BE" fill-rule="nonzero" transform="translate(-1016.000000, -2203.000000)"><g id="Group-7" transform="translate(0.000000, 1959.093190)"><g id="element-/-stand-designer-cta-copy" transform="translate(136.000000, 37.955795)"><g id="Group-2" transform="translate(700.000000, 203.683393)"><g id="apple" transform="translate(180.000000, 3.071685)"><path id="Shape" d="M25.1141827,22.4284662 C24.6454327,23.9667698 23.90625,25.5050734 22.8966346,27.0433769 C21.3461538,29.4554369 19.8016827,30.6614669 18.2632212,30.6614669 C17.6742788,30.6614669 16.8329327,30.4645641 15.7391827,30.0707584 C14.7055288,29.6769527 13.7980769,29.4800498 13.0168269,29.4800498 C12.2836538,29.4800498 11.4302885,29.6831059 10.4567308,30.089218 C9.48317308,30.5076366 8.68990385,30.7168459 8.07692308,30.7168459 C6.25,30.7168459 4.44110577,29.1231634 2.65024038,25.9357984 C0.883413462,22.7238205 0,19.6287537 0,16.6505979 C0,13.8447322 0.679086538,11.5434301 2.03725962,9.74669148 C3.38341346,7.97456576 5.09014423,7.08850289 7.15745192,7.08850289 C8.02283654,7.08850289 9.08653846,7.27309932 10.3485577,7.64229218 C11.5985577,8.01148504 12.4278846,8.19608147 12.8365385,8.19608147 C13.3774038,8.19608147 14.2367788,7.98687219 15.4146635,7.56845361 C16.640625,7.15003504 17.6802885,6.94082575 18.5336538,6.94082575 C19.9639423,6.94082575 21.2439904,7.34078468 22.3737981,8.14070254 C22.9987981,8.58373397 23.6237981,9.19905541 24.2487981,9.98666684 C23.2992788,10.8111976 22.6141827,11.5372768 22.1935096,12.1649047 C21.4122596,13.321709 21.0216346,14.5954244 21.0216346,15.9860508 C21.0216346,17.512048 21.4362981,18.8842147 22.265625,20.1025512 C23.0949519,21.3208876 24.0444712,22.0961926 25.1141827,22.4284662 Z M18.3353365,0.775305004 C18.3353365,1.52599715 18.1610577,2.3628343 17.8125,3.28581645 C17.4519231,4.20879859 16.8930288,5.05794217 16.1358173,5.83324717 C15.4867788,6.49779432 14.8377404,6.94082575 14.1887019,7.16234147 C13.7439904,7.29771218 13.1189904,7.40231683 12.3137019,7.4761554 C12.3497596,5.64249753 12.8185096,4.06112145 13.7199519,2.73202716 C14.609375,1.41523929 16.1117788,0.504563574 18.2271635,0 C18.2391827,0.0369192859 18.2542067,0.104604643 18.2722356,0.203056073 C18.2902644,0.301507502 18.3052885,0.369192859 18.3173077,0.406112145 C18.3173077,0.45533786 18.3203125,0.516870003 18.3263221,0.590708575 C18.3323317,0.664547146 18.3353365,0.72607929 18.3353365,0.775305004 Z"/></g></g></g></g></g></g></svg>