<svg xmlns="http://www.w3.org/2000/svg" xmlns:xlink="http://www.w3.org/1999/xlink" width="24" height="19" version="1.1" viewBox="0 0 24 19"><title>icon / phone copy</title><desc>Created with Sketch.</desc><defs><path id="path-1" d="M2.078125,0 L21.671875,0 C22.7102844,0 23.75,1.03971563 23.75,2.078125 L23.75,15.734375 C23.75,16.7727844 22.7102844,17.8125 21.671875,17.8125 L2.078125,17.8125 C1.03971563,17.8125 0,16.7727844 0,15.734375 L0,2.078125 C0,1.03971563 1.03971563,0 2.078125,0 Z M2.375,14.25 C2.375,15.0288219 2.78367813,15.4375 3.5625,15.4375 L20.1875,15.4375 C20.9663219,15.4375 21.375,15.0288219 21.375,14.25 L21.375,3.5625 L13.4521781,11.6711656 C12.7179469,12.4053969 11.5274188,12.4053969 10.7931875,11.6711656 L2.375,3.5625 L2.375,14.25 Z M4.15625,2.375 L11.1255687,9.34449688 C11.6762719,9.8952 12.5690937,9.8952 13.1197969,9.34449688 L20.1875,2.375 L4.15625,2.375 Z"/><rect id="path-3" width="38" height="38" x="0" y="0"/></defs><g id="Symbols" fill="none" fill-rule="evenodd" stroke="none" stroke-width="1"><g id="element-/-footer-copy" transform="translate(-333.000000, -205.000000)"><g id="icon-/-email" transform="translate(326.000000, 195.000000)"><g id="appbar.email" transform="translate(7.125000, 10.687500)"><g id="colour-/-d-grey"><mask id="mask-2" fill="#fff"><use xlink:href="#path-1"/></mask><use id="Mask" fill="#4C484C" fill-rule="nonzero" xlink:href="#path-1"/><g id="colour-/-d-grey-2" mask="url(#mask-2)"><g id="Rectangle-1-Copy"><g transform="translate(-7.125000, -10.687500)"><use fill="#BEB4BE" xlink:href="#path-3"/><use fill="#000" fill-opacity=".6" xlink:href="#path-3"/></g></g></g></g></g></g></g></g></svg>