<?xml version="1.0" encoding="UTF-8"?>
<svg width="32px" height="20px" viewBox="0 0 32 20" version="1.1" xmlns="http://www.w3.org/2000/svg" xmlns:xlink="http://www.w3.org/1999/xlink">
    <!-- Generator: Sketch 44 (41411) - http://www.bohemiancoding.com/sketch -->
    <title>icon / facebook-square copy 4</title>
    <desc>Created with Sketch.</desc>
    <defs></defs>
    <g id="Symbols" stroke="none" stroke-width="1" fill="none" fill-rule="evenodd">
        <g id="element-/-footer-copy" transform="translate(-1273.000000, -32.000000)" fill="#4B324B">
            <g id="icon-/-google-plus-square" transform="translate(1273.000000, 26.000000)">
                <g id="google-plus-square" transform="translate(0.000000, 6.000000)">
                    <path d="M19.8205128,10.234375 C19.8205128,9.78298611 19.7692308,9.22743056 19.6666667,8.56770833 L10.3846154,8.56770833 L10.3846154,12.0052083 L15.9487179,12.0052083 C15.8974359,12.421875 15.7564103,12.8559028 15.525641,13.3072917 C15.2948718,13.7586806 14.974359,14.21875 14.5641026,14.6875 C14.1538462,15.15625 13.5854701,15.5425347 12.8589744,15.8463542 C12.1324786,16.1501736 11.3076923,16.3020833 10.3846154,16.3020833 C8.69230769,16.3020833 7.24786325,15.6857639 6.05128205,14.453125 C4.85470085,13.2204861 4.25641026,11.7361111 4.25641026,10 C4.25641026,8.26388889 4.85470085,6.77951389 6.05128205,5.546875 C7.24786325,4.31423611 8.69230769,3.69791667 10.3846154,3.69791667 C11.957265,3.69791667 13.2649573,4.21006944 14.3076923,5.234375 L16.974359,2.60416667 C15.1282051,0.868055556 12.9316239,0 10.3846154,0 C7.64957265,0 5.32478632,0.9765625 3.41025641,2.9296875 C1.4957265,4.8828125 0.538461538,7.23958333 0.538461538,10 C0.538461538,12.7604167 1.4957265,15.1171875 3.41025641,17.0703125 C5.32478632,19.0234375 7.64957265,20 10.3846154,20 C13.2051282,20 15.482906,19.0885417 17.2179487,17.265625 C18.9529915,15.4427083 19.8205128,13.0989583 19.8205128,10.234375 Z M28.6666667,11.4322917 L31.4615385,11.4322917 L31.4615385,8.56770833 L28.6666667,8.56770833 L28.6666667,5.703125 L25.8461538,5.703125 L25.8461538,8.56770833 L23.025641,8.56770833 L23.025641,11.4322917 L25.8461538,11.4322917 L25.8461538,14.296875 L28.6666667,14.296875 L28.6666667,11.4322917 Z" id="Shape" fill-rule="nonzero"></path>
                </g>
            </g>
        </g>
    </g>
</svg>