<?xml version="1.0" encoding="UTF-8"?>
<svg width="13px" height="22px" viewBox="0 0 13 22" version="1.1" xmlns="http://www.w3.org/2000/svg" xmlns:xlink="http://www.w3.org/1999/xlink">
    <!-- Generator: Sketch 44 (41411) - http://www.bohemiancoding.com/sketch -->
    <title>icon / phone</title>
    <desc>Created with Sketch.</desc>
    <defs>
        <path d="M13.2809654,18.8380744 C13.3374487,18.9746815 13.365715,19.1133125 13.365715,19.2540685 C13.365715,19.4486071 13.31525,19.630244 13.2143694,19.7989286 C13.1134888,19.9676131 12.9722067,20.0964286 12.7906217,20.1854256 L11.9370092,20.595247 C11.6040292,20.7504732 11.270556,20.86325 10.9365895,20.933628 C10.602623,21.004006 10.265154,21.0391696 9.92408393,21.0391696 C9.37523437,21.0391696 8.83289643,20.9455179 8.29711942,20.7582143 C7.76134241,20.5709107 7.2488,20.3029077 6.75944286,19.9541548 C6.27008571,19.6054018 5.81101741,19.1836905 5.38218862,18.6890714 C4.95335982,18.1944018 4.56947098,17.6428125 4.23042344,17.0343036 C4.01450446,16.6969851 3.78748616,16.312006 3.54936853,15.8794167 C3.34760737,15.5110327 3.11703728,15.0696905 2.85775692,14.5553393 C2.59842723,14.0410387 2.3365817,13.4703244 2.07226964,12.8431964 C1.80184062,12.2160685 1.58745089,11.668122 1.42900179,11.1993571 C1.27060201,10.7305417 1.14801607,10.3409583 1.06124397,10.030506 C0.960363393,9.66829464 0.890758259,9.35784226 0.852379241,9.09909821 C0.713168973,8.6189494 0.610759152,8.14138095 0.545149777,7.66639286 C0.479589732,7.19140476 0.446785045,6.72102083 0.446785045,6.25534226 C0.446785045,5.64688393 0.506326786,5.06114286 0.625360937,4.49816964 C0.74444442,3.93524702 0.927065402,3.41158631 1.17322388,2.92728869 C1.4194317,2.44299107 1.73169286,2.00989583 2.11010603,1.62805357 C2.48846987,1.24616071 2.93594554,0.935202381 3.45253304,0.695127976 L4.29401027,0.297752976 C4.42720223,0.239770833 4.5603942,0.210830357 4.69358616,0.210830357 C4.88123884,0.210830357 5.05576964,0.264107143 5.2172279,0.37071131 C5.37863683,0.477264881 5.49974286,0.62475 5.58044732,0.813116071 L7.19986429,4.58509226 C7.25634754,4.7216994 7.28461384,4.85830655 7.28461384,4.99491369 C7.28461384,5.1956756 7.23414888,5.38141071 7.1332683,5.55216964 C7.03238772,5.72292857 6.89011897,5.85073214 6.70646205,5.93578274 L5.04166116,6.72102083 C4.8216971,6.82453869 4.6531846,6.97662798 4.53617299,7.17738988 C4.41911205,7.37815179 4.36060625,7.59444643 4.36060625,7.82627381 C4.36060625,8.00219345 4.3928683,8.16774107 4.45744174,8.32296726 L7.1907875,14.7245298 C7.29773571,14.9708274 7.44552946,15.1519583 7.63421808,15.2678214 C7.8229067,15.3837351 8.02821964,15.4417173 8.25020625,15.4417173 C8.40155179,15.4417173 8.55590647,15.406503 8.71331964,15.336125 L10.3781205,14.5506845 C10.50929,14.492753 10.6414953,14.4637619 10.7746873,14.4637619 C10.9582949,14.4637619 11.1318391,14.5170387 11.2953199,14.6236429 C11.4587513,14.730247 11.5818306,14.8766696 11.6645576,15.0629613 L13.2809654,18.8380744 Z" id="path-1"></path>
        <rect id="path-3" x="0" y="0" width="34" height="34"></rect>
    </defs>
    <g id="Symbols" stroke="none" stroke-width="1" fill="none" fill-rule="evenodd">
        <g id="element-/-footer-copy" transform="translate(-139.000000, -203.000000)">
            <g id="icon-/-phone" transform="translate(129.000000, 197.000000)">
                <g id="appbar.phone" transform="translate(10.625000, 6.375000)"></g>
                <g id="colour-/-d-grey" transform="translate(9.562500, 6.375000)">
                    <mask id="mask-2" fill="white">
                        <use xlink:href="#path-1"></use>
                    </mask>
                    <use id="Mask" fill="#4C484C" fill-rule="nonzero" xlink:href="#path-1"></use>
                    <g id="colour-/-d-grey-2" mask="url(#mask-2)">
                        <g transform="translate(-10.625000, -6.375000)" id="Rectangle-1-Copy">
                            <g>
                                <use fill="#BEB4BE" xlink:href="#path-3"></use>
                                <use fill-opacity="0.6" fill="#000000" xlink:href="#path-3"></use>
                            </g>
                        </g>
                    </g>
                </g>
            </g>
        </g>
    </g>
</svg>