<svg xmlns="http://www.w3.org/2000/svg" xmlns:xlink="http://www.w3.org/1999/xlink" width="24" height="24" version="1.1" viewBox="0 0 24 24"><title>icon / facebook-square copy 3</title><desc>Created with Sketch.</desc><g id="Symbols" fill="none" fill-rule="evenodd" stroke="none" stroke-width="1"><g id="element-/-footer-copy" fill="#4B324B" transform="translate(-1218.000000, -30.000000)"><g id="icon-/-pinterest-squar" transform="translate(1214.000000, 26.000000)"><g id="appbar.social.pinterest" transform="translate(4.000000, 4.000000)"><path id="Shape" fill-rule="nonzero" d="M11.6926769,-0.000307692308 C5.23538462,-0.000307692308 0,5.23458462 0,11.6922462 C0,16.48 2.87901538,20.5930462 6.99883077,22.4014769 C6.96590769,21.5849846 6.99292308,20.6049231 7.20233846,19.7165538 C7.42713846,18.7673231 8.70683077,13.3453538 8.70683077,13.3453538 C8.70683077,13.3453538 8.33323077,12.5988923 8.33323077,11.4953231 C8.33323077,9.76270769 9.3376,8.46855385 10.5882462,8.46855385 C11.6517538,8.46855385 12.1656,9.26744615 12.1656,10.2239385 C12.1656,11.2931077 11.4836923,12.8923077 11.1329846,14.3734769 C10.8400615,15.6137846 11.7548923,16.6254154 12.9785231,16.6254154 C15.1937846,16.6254154 16.6858462,13.7801231 16.6858462,10.4088615 C16.6858462,7.84627692 14.9598769,5.92818462 11.8206154,5.92818462 C8.27384615,5.92818462 6.06418462,8.57316923 6.06418462,11.5276308 C6.06418462,12.5462769 6.36455385,13.2647385 6.83501538,13.8209231 C7.05132308,14.0764308 7.08141538,14.1793231 7.00307692,14.4726769 C6.94701538,14.6877538 6.81821538,15.2057231 6.76486154,15.4110154 C6.68701538,15.7070769 6.44713846,15.8129231 6.17944615,15.7035692 C4.54584615,15.0366769 3.78492308,13.2476923 3.78492308,11.2366154 C3.78492308,7.9152 6.58615385,3.93249231 12.1414769,3.93249231 C16.6056,3.93249231 19.5436923,7.16289231 19.5436923,10.6304615 C19.5436923,15.2172308 16.9937231,18.6439385 13.2348923,18.6439385 C11.9724923,18.6439385 10.7850462,17.9614769 10.3783385,17.1865231 C10.3783385,17.1865231 9.69950769,19.8804923 9.55569231,20.4006769 C9.30787692,21.3022154 8.82258462,22.2031385 8.37889231,22.9054154 C9.43052308,23.2158769 10.5413538,23.3849231 11.6926769,23.3849231 C18.1494769,23.3849231 23.3846154,18.1499692 23.3846154,11.6922462 C23.3846154,5.23458462 18.1494769,-0.000307692308 11.6926769,-0.000307692308 Z"/></g></g></g></g></svg>