<svg xmlns="http://www.w3.org/2000/svg" xmlns:xlink="http://www.w3.org/1999/xlink" width="30" height="24" version="1.1" viewBox="0 0 30 24"><title>icon / facebook-square copy 2</title><desc>Created with Sketch.</desc><g id="Symbols" fill="none" fill-rule="evenodd" stroke="none" stroke-width="1"><g id="element-/-footer-copy" fill="#4B324B" transform="translate(-1036.000000, -30.000000)"><g id="icon-/-twitter-square" transform="translate(1035.000000, 26.000000)"><g id="appbar.social.twitter" transform="translate(1.000000, 4.000000)"><path id="Shape" fill-rule="nonzero" d="M29.6349818,2.96407273 C28.5559273,3.44269091 27.3960727,3.76610909 26.1789818,3.91156364 C27.4210909,3.16683636 28.3754182,1.98756364 28.8247273,0.5824 C27.6619636,1.272 26.3741818,1.7728 25.0034182,2.04261818 C23.9058182,0.873090909 22.3419636,0.1424 20.6111273,0.1424 C17.288,0.1424 14.5935273,2.83658182 14.5935273,6.15978182 C14.5935273,6.63134545 14.6467636,7.09069091 14.7493818,7.53112727 C9.74829091,7.28014545 5.31425455,4.88450909 2.3464,1.24378182 C1.82836364,2.13250909 1.53163636,3.16618182 1.53163636,4.26901818 C1.53163636,6.35672727 2.59396364,8.19861818 4.20865455,9.27774545 C3.22232727,9.2464 2.29432727,8.97570909 1.48305455,8.52501818 C1.48254545,8.55018182 1.48254545,8.57527273 1.48254545,8.60072727 C1.48254545,11.5162182 3.5568,13.9482909 6.30952727,14.5012364 C5.80465455,14.6386909 5.27301818,14.7122909 4.72421818,14.7122909 C4.33643636,14.7122909 3.95949091,14.6745455 3.592,14.6043636 C4.35781818,16.9949091 6.58007273,18.7347636 9.21330909,18.7832 C7.15381818,20.3972364 4.5592,21.3592727 1.73985455,21.3592727 C1.25418182,21.3592727 0.7752,21.3306909 0.304436364,21.2751273 C2.96741818,22.9824 6.13054545,23.9787636 9.52872727,23.9787636 C20.5970909,23.9787636 26.6498909,14.8094545 26.6498909,6.85752727 C26.6498909,6.59665455 26.6438545,6.33716364 26.6322909,6.07898182 C27.8081455,5.23054545 28.8282909,4.17076364 29.6349818,2.96407273 Z"/></g></g></g></g></svg>