<?xml version="1.0" encoding="UTF-8"?>
<svg width="21px" height="24px" viewBox="0 0 21 24" version="1.1" xmlns="http://www.w3.org/2000/svg" xmlns:xlink="http://www.w3.org/1999/xlink">
    <!-- Generator: Sketch 44 (41411) - http://www.bohemiancoding.com/sketch -->
    <title>icon / facebook-square</title>
    <desc>Created with Sketch.</desc>
    <defs></defs>
    <g id="Symbols" stroke="none" stroke-width="1" fill="none" fill-rule="evenodd">
        <g id="element-/-footer-copy" transform="translate(-1160.000000, -30.000000)" fill="#4B324B">
            <g id="icon-/-youtube-square" transform="translate(1154.000000, 26.000000)">
                <g id="appbar.youtube" transform="translate(6.000000, 4.000000)">
                    <path d="M17.81725,10.73995 L17.8255,10.7403 L18.0316,10.7403 C19.48395,10.7403 20.6654,11.90635 20.6654,13.3394 L20.6654,13.3546 L20.6667,13.3696 C20.7628,14.6237 20.8095,15.93475 20.8056,17.26635 C20.8095,18.60035 20.7628,19.9114 20.6667,21.1655 L20.6654,21.18055 L20.6654,21.1957 C20.6654,22.62895 19.28605,23.7949 17.8337,23.7949 L18.0152,23.79515 C15.6955,23.892 13.0405,23.93875 10.51465,23.9341 C7.98725,23.93875 5.3324,23.892 3.0127,23.79515 L3.19415,23.7949 C1.7418,23.7949 0.36235,22.62895 0.36235,21.1957 L0.36235,21.18055 L0.3612,21.1655 C0.26505,19.91205 0.2183,18.601 0.22225,17.2686 C0.2183,15.93455 0.265,14.6235 0.3612,13.3696 L0.36235,13.3546 L0.36235,13.3394 C0.36235,11.90635 1.7418,10.7403 3.1941,10.7403 L3.01265,10.73995 C5.332,10.6431 7.987,10.5964 10.51315,10.601 C13.0409,10.5964 15.49795,10.6431 17.81725,10.73995 Z M16.8344,16.7566 C16.8344,16.47005 16.87835,16.2647 16.96685,16.1405 C17.0551,16.01655 17.20045,15.95435 17.403,15.95435 C17.5968,15.95435 17.73795,16.01655 17.8264,16.1405 C17.91465,16.2647 17.9588,16.47005 17.9588,16.7566 L17.9588,17.44955 L16.8344,17.44955 L16.8344,16.7566 Z M19.2687,18.5122 L19.2687,16.76935 C19.2687,16.11965 19.11225,15.6217 18.79985,15.27535 C18.4872,14.92895 18.03985,14.75575 17.4576,14.75575 C16.88805,14.75575 16.4235,14.94285 16.06405,15.31685 C15.70425,15.69105 15.52445,16.17505 15.52445,16.76935 L15.52445,19.842 C15.52445,20.50095 15.6882,21.01865 16.01565,21.3952 C16.3432,21.7716 16.79175,21.95985 17.3613,21.95985 C17.9949,21.95985 18.4713,21.7822 18.7903,21.42715 C19.1092,21.07205 19.2687,20.54365 19.2687,19.842 L19.2687,19.32785 L17.9588,19.32785 L17.9588,19.8036 C17.9588,20.20635 17.91675,20.4669 17.8328,20.58455 C17.7488,20.70235 17.6012,20.7612 17.39025,20.7612 C17.18745,20.7612 17.04425,20.69175 16.96025,20.55235 C16.8763,20.4131 16.8344,20.16345 16.8344,19.8036 L16.8344,18.5122 L19.2687,18.5122 Z M13.25455,20.17 C13.25455,20.3882 13.21765,20.54555 13.14435,20.64175 C13.07095,20.73785 12.9564,20.78595 12.801,20.78595 L12.4931,20.71225 L12.19185,20.4717 L12.19185,16.2056 L12.45425,15.99705 L12.7232,15.92965 C12.8958,15.92965 13.02775,15.9897 13.1184,16.1094 C13.20925,16.2291 13.25455,16.40445 13.25455,16.6354 L13.25455,20.17 Z M13.3235,14.84225 C13.1261,14.84225 12.9312,14.8967 12.7382,15.00535 C12.5454,15.1143 12.36335,15.273 12.19185,15.4819 L12.19185,12.4944 L10.9067,12.4944 L10.9067,21.7745 L12.19185,21.7745 L12.19185,21.24825 C12.35905,21.45665 12.54025,21.611 12.73525,21.711 C12.93015,21.811 13.15205,21.861 13.4008,21.861 C13.77785,21.861 14.0661,21.7321 14.26535,21.47375 C14.4646,21.2154 14.5645,20.8429 14.5645,20.35615 L14.5645,16.5583 C14.5645,15.99915 14.45825,15.57325 14.24605,15.2809 C14.03385,14.98855 13.7263,14.84225 13.3235,14.84225 Z M8.3922,20.1251 L7.99875,20.49365 C7.8558,20.58985 7.73765,20.6377 7.64385,20.6377 C7.52435,20.6377 7.438,20.60135 7.3847,20.52875 C7.33145,20.45615 7.3048,20.3388 7.3048,20.1765 L7.3048,14.92875 L6.032,14.92875 L6.032,20.6506 C6.032,21.05815 6.1066,21.3639 6.25585,21.5678 C6.40515,21.7716 6.62695,21.8734 6.9212,21.8734 C7.1598,21.8734 7.4062,21.8004 7.65985,21.6551 C7.9137,21.5095 8.1576,21.2972 8.3922,21.0188 L8.3922,21.7745 L9.66495,21.7745 L9.66495,14.92875 L8.3922,14.92875 L8.3922,20.1251 Z M6.04945,12.4944 L1.6503,12.4944 L1.6503,13.8413 L3.1332,13.8413 L3.1332,21.7745 L4.5665,21.7745 L4.5665,13.8413 L6.04945,13.8413 L6.04945,12.4944 Z M3.7137,0.24085 L5.1573,0.24085 L6.08735,3.9502 L6.17735,3.9502 L7.06415,0.24085 L8.52055,0.24085 L6.85235,5.67015 L6.85235,9.52095 L5.41895,9.52095 L5.41895,5.84355 L3.7137,0.24085 Z M9.76545,7.9172 C9.76545,8.1057 9.81065,8.25105 9.9014,8.3538 C9.99195,8.4565 10.1213,8.5076 10.28965,8.5076 C10.46225,8.5076 10.5992,8.4553 10.70075,8.3505 C10.8021,8.2456 10.85285,8.1013 10.85285,7.9172 L10.85285,4.18885 C10.85285,4.03925 10.80095,3.91835 10.69745,3.8265 C10.59395,3.73455 10.45805,3.6884 10.28965,3.6884 C10.1344,3.6884 10.00815,3.73455 9.91105,3.8265 C9.81395,3.91835 9.76545,4.03925 9.76545,4.18885 L9.76545,7.9172 Z M8.4556,4.24025 C8.4556,3.71005 8.62685,3.28795 8.96955,2.97365 C9.31235,2.6593 9.77275,2.50215 10.35125,2.50215 C10.878,2.50215 11.3095,2.66795 11.64585,2.9993 C11.98225,3.3306 12.1504,3.7571 12.1504,4.27885 L12.1504,7.81465 C12.1504,8.40055 11.98525,8.86015 11.6555,9.1936 C11.3257,9.5271 10.8716,9.69385 10.2933,9.69385 C9.7365,9.69385 9.29085,9.52165 8.95685,9.1776 C8.62265,8.8335 8.4556,8.37065 8.4556,7.78905 L8.4556,4.24025 Z M16.8637,2.67515 L16.8637,9.52095 L15.59095,9.52095 L15.59095,8.7652 C15.35635,9.04365 15.1123,9.25585 14.8586,9.40145 C14.60485,9.5468 14.3585,9.6198 14.11985,9.6198 C13.82565,9.6198 13.60375,9.51805 13.45455,9.31405 C13.30525,9.1103 13.23075,8.8046 13.23075,8.397 L13.23075,2.67515 L14.50355,2.67515 L14.50355,7.92285 C14.50355,8.08525 14.5302,8.20255 14.58345,8.27515 C14.63675,8.34775 14.72305,8.38415 14.8426,8.38415 C14.9364,8.38415 15.05455,8.33615 15.19745,8.24005 L15.59095,7.87145 L15.59095,2.67515 L16.8637,2.67515 Z" id="Shape" fill-rule="nonzero"></path>
                </g>
            </g>
        </g>
    </g>
</svg>