<svg xmlns="http://www.w3.org/2000/svg" xmlns:xlink="http://www.w3.org/1999/xlink" id="Layer_1" x="0" y="0" version="1.1" viewBox="0 0 21 24" xml:space="preserve" style="enable-background:new 0 0 21 24"><style type="text/css">.st0{fill:#4b324b}</style><title>icon / facebook-square</title><desc>Created with Sketch.</desc><g><path id="Vimeo" d="M17.8,3.7C14.9,3.6,13,5.2,12,8.5c0.5-0.2,1-0.3,1.5-0.3c1,0,1.5,0.6,1.4,1.8 c-0.1,0.7-0.5,1.7-1.4,3.1c-0.9,1.4-1.5,2-1.9,2c-0.6,0-1.1-1-1.5-3.1c-0.2-0.6-0.4-2.2-0.8-4.7C8.8,4.9,7.9,3.8,6.3,4 C5.6,4,4.6,4.7,3.2,5.8c-1,0.9-2,1.8-3,2.7l1,1.2c0.9-0.6,1.5-1,1.6-1c0.7,0,1.4,1.1,2,3.3c0.5,2,1.1,4.1,1.7,6.1 c0.8,2.2,1.8,3.3,3,3.3c1.9,0,4.3-1.8,7.1-5.4c2.7-3.5,4.1-6.2,4.2-8.2C20.9,5.2,19.9,3.8,17.8,3.7z" class="st0"/></g></svg>